{"glyphs":{"0":{"ha":749,"x_min":58,"x_max":692,"o":"m 365 -16 q 139 108 220 -16 q 58 467 58 232 q 143 857 58 724 q 387 989 227 989 q 692 490 692 989 q 606 114 692 243 q 365 -16 519 -16 m 380 895 q 172 472 172 895 q 376 77 172 77 q 578 479 578 77 q 380 895 578 895 z "},"1":{"ha":749,"x_min":114,"x_max":669,"o":"m 669 0 l 119 0 l 119 98 l 339 98 l 339 853 l 114 786 l 114 892 l 450 994 l 450 98 l 669 98 l 669 0 z "},"2":{"ha":749,"x_min":65,"x_max":660,"o":"m 651 0 l 65 0 l 65 99 l 349 383 q 504 564 457 492 q 550 718 550 636 q 502 848 550 802 q 365 895 454 895 q 115 783 235 895 l 115 900 q 380 989 229 989 q 585 918 511 989 q 660 729 660 848 q 608 546 660 635 q 423 325 557 457 l 199 103 l 199 100 l 651 100 l 651 0 z "},"3":{"ha":749,"x_min":89,"x_max":651,"o":"m 89 36 l 89 156 q 314 77 189 77 q 476 128 416 77 q 537 265 537 179 q 267 456 537 456 l 186 456 l 186 550 l 262 550 q 503 729 503 550 q 319 895 503 895 q 126 825 217 895 l 126 933 q 347 989 220 989 q 544 924 470 989 q 617 757 617 859 q 422 510 617 565 l 422 507 q 589 434 527 497 q 651 275 651 370 q 557 64 651 144 q 309 -16 463 -16 q 89 36 171 -16 z "},"4":{"ha":749,"x_min":9,"x_max":701,"o":"m 701 258 l 576 258 l 576 0 l 467 0 l 467 258 l 9 258 l 9 331 l 442 972 l 576 972 l 576 349 l 701 349 l 701 258 m 467 349 l 467 769 q 469 869 467 814 l 467 869 q 429 795 457 845 l 130 349 l 467 349 z "},"5":{"ha":749,"x_min":111,"x_max":656,"o":"m 111 24 l 111 142 q 314 77 211 77 q 480 136 417 77 q 543 290 543 194 q 479 439 543 386 q 294 493 414 493 q 142 485 254 493 l 142 972 l 612 972 l 612 872 l 247 872 l 247 587 q 330 590 292 590 q 571 512 486 590 q 656 297 656 433 q 565 70 656 156 q 313 -16 473 -16 q 111 24 178 -16 z "},"6":{"ha":749,"x_min":75,"x_max":693,"o":"m 633 961 l 633 856 q 475 895 558 895 q 268 779 345 895 q 190 471 190 664 l 193 471 q 415 608 260 608 q 618 527 543 608 q 693 308 693 445 q 607 74 693 165 q 388 -16 521 -16 q 158 100 241 -16 q 75 428 75 217 q 184 836 75 684 q 472 989 293 989 q 633 961 574 989 m 391 514 q 251 456 304 514 q 197 318 197 397 q 251 148 197 218 q 392 77 304 77 q 528 139 476 77 q 579 294 579 200 q 530 456 579 397 q 391 514 480 514 z "},"7":{"ha":749,"x_min":58,"x_max":685,"o":"m 685 937 l 300 0 l 184 0 l 549 872 l 58 872 l 58 972 l 685 972 l 685 937 z "},"8":{"ha":749,"x_min":68,"x_max":682,"o":"m 278 510 l 278 513 q 103 749 103 594 q 183 921 103 854 q 389 989 263 989 q 576 926 503 989 q 650 764 650 863 q 469 513 650 602 l 469 510 q 682 247 682 434 q 595 55 682 126 q 354 -16 509 -16 q 149 54 229 -16 q 68 237 68 125 q 278 510 68 425 m 536 750 q 494 856 536 817 q 379 895 452 895 q 264 854 311 895 q 217 751 217 814 q 375 560 217 625 q 536 750 536 627 m 368 457 q 182 243 182 383 q 236 124 182 170 q 378 77 290 77 q 515 123 462 77 q 568 239 568 169 q 368 457 568 385 z "},"9":{"ha":749,"x_min":64,"x_max":681,"o":"m 117 16 l 117 123 q 289 77 198 77 q 495 184 421 77 q 568 486 568 290 q 566 486 567 486 q 349 361 503 361 q 144 446 224 361 q 64 664 64 530 q 152 898 64 806 q 376 989 239 989 q 601 875 520 989 q 681 545 681 762 q 576 130 681 275 q 286 -16 472 -16 q 117 16 189 -16 m 366 895 q 232 834 286 895 q 178 680 178 773 q 231 518 178 577 q 374 460 283 460 q 507 513 452 460 q 562 644 562 567 q 507 825 562 755 q 366 895 453 895 z "},"\r":{"ha":0,"x_min":0,"x_max":0,"o":""}," ":{"ha":380,"x_min":0,"x_max":0,"o":""},"!":{"ha":395,"x_min":122,"x_max":273,"o":"m 254 972 l 241 274 l 150 274 l 138 972 l 254 972 m 197 -12 q 144 9 166 -12 q 122 62 122 31 q 144 116 122 94 q 197 138 166 138 q 250 116 228 138 q 273 62 273 94 q 250 9 273 31 q 197 -12 228 -12 z "},"\"":{"ha":524,"x_min":121,"x_max":404,"o":"m 404 972 l 397 669 l 318 669 l 313 972 l 404 972 m 213 972 l 205 669 l 127 669 l 121 972 l 213 972 z "},"#":{"ha":821,"x_min":22,"x_max":791,"o":"m 791 700 l 775 628 l 598 628 l 555 425 l 746 425 l 728 353 l 541 353 l 481 83 l 396 83 l 454 353 l 285 353 l 228 83 l 143 83 l 200 353 l 22 353 l 36 425 l 216 425 l 257 628 l 69 628 l 83 700 l 271 700 l 328 972 l 414 972 l 357 700 l 528 700 l 586 972 l 669 972 l 612 700 l 791 700 m 514 628 l 343 628 l 298 425 l 471 425 l 514 628 z "},"$":{"ha":749,"x_min":110,"x_max":663,"o":"m 418 5 l 418 -142 l 347 -142 l 347 0 q 113 58 203 0 l 113 176 q 220 118 152 142 q 347 95 288 95 l 347 442 q 154 575 198 514 q 110 718 110 635 q 177 888 110 817 q 347 974 244 960 l 347 1096 l 418 1096 l 418 977 q 602 939 551 972 l 602 823 q 418 882 532 878 l 418 524 q 611 394 559 456 q 663 251 663 331 q 598 89 663 155 q 418 5 533 24 m 347 562 l 347 878 q 257 827 290 866 q 224 732 224 788 q 251 637 224 674 q 347 562 278 600 m 418 407 l 418 100 q 549 241 549 129 q 418 407 549 335 z "},"%":{"ha":1137,"x_min":54,"x_max":1085,"o":"m 274 485 q 114 551 174 485 q 54 728 54 617 q 117 918 54 848 q 288 987 180 987 q 449 923 391 987 q 506 742 506 859 q 442 555 506 625 q 274 485 378 485 m 283 913 q 182 865 219 913 q 144 734 144 817 q 181 606 144 652 q 281 560 218 560 q 380 608 345 560 q 416 739 416 655 q 381 867 416 821 q 283 913 345 913 m 925 972 l 301 -7 l 204 -7 l 827 972 l 925 972 m 853 -15 q 693 52 753 -15 q 633 228 633 118 q 697 419 633 349 q 867 489 761 489 q 1027 424 970 489 q 1085 241 1085 359 q 1021 55 1085 125 q 853 -15 957 -15 m 863 412 q 761 365 798 412 q 724 233 724 317 q 760 107 724 153 q 860 61 797 61 q 960 109 924 61 q 996 240 996 157 q 960 368 996 323 q 863 412 924 412 z "},"&":{"ha":981,"x_min":81,"x_max":967,"o":"m 967 0 l 811 0 l 707 107 q 389 -16 575 -16 q 163 58 245 -16 q 81 245 81 132 q 302 530 81 416 q 197 760 197 665 q 270 924 197 859 q 453 989 342 989 q 622 931 559 989 q 685 786 685 873 q 638 639 685 700 q 465 515 591 578 q 720 256 605 368 q 798 514 794 366 l 900 514 q 783 184 899 330 q 967 0 811 157 m 576 777 q 541 864 576 829 q 456 900 505 900 q 348 861 388 900 q 308 760 308 821 q 404 579 308 686 q 576 777 576 662 m 643 174 q 365 463 548 270 q 194 250 194 379 q 249 125 194 174 q 389 77 304 77 q 643 174 538 77 z "},"'":{"ha":318,"x_min":114,"x_max":205,"o":"m 205 972 l 199 669 l 121 669 l 114 972 l 205 972 z "},"(":{"ha":419,"x_min":95,"x_max":406,"o":"m 404 -221 l 305 -221 q 95 371 95 19 q 305 972 95 724 l 406 972 q 193 372 193 715 q 404 -221 193 33 z "},")":{"ha":419,"x_min":15,"x_max":327,"o":"m 115 -221 l 16 -221 q 228 372 228 33 q 15 972 228 715 l 115 972 q 327 371 327 724 q 115 -221 327 19 z "},"*":{"ha":579,"x_min":52,"x_max":529,"o":"m 529 749 l 343 711 l 472 546 l 397 494 l 292 674 l 184 494 l 110 546 l 239 711 l 52 749 l 82 833 l 260 766 l 244 972 l 338 972 l 322 766 l 500 833 l 529 749 z "},"+":{"ha":950,"x_min":157,"x_max":795,"o":"m 795 359 l 521 359 l 521 86 l 431 86 l 431 359 l 157 359 l 157 450 l 431 450 l 431 724 l 521 724 l 521 450 l 795 450 l 795 359 z "},",":{"ha":301,"x_min":26,"x_max":214,"o":"m 214 155 l 106 -179 l 26 -179 l 106 155 l 214 155 z "},"-":{"ha":555,"x_min":98,"x_max":468,"o":"m 468 343 l 98 343 l 98 431 l 468 431 l 468 343 z "},".":{"ha":301,"x_min":76,"x_max":228,"o":"m 151 -15 q 98 7 120 -15 q 76 61 76 30 q 98 115 76 92 q 151 138 120 138 q 205 115 183 138 q 228 61 228 92 q 205 7 228 30 q 151 -15 183 -15 z "},"/":{"ha":541,"x_min":-19,"x_max":551,"o":"m 551 972 l 85 -161 l -19 -161 l 446 972 l 551 972 z "},":":{"ha":301,"x_min":76,"x_max":228,"o":"m 151 559 q 98 581 120 559 q 76 635 76 604 q 98 688 76 666 q 151 709 120 709 q 205 688 183 709 q 228 635 228 666 q 205 581 228 604 q 151 559 183 559 m 151 -15 q 98 7 120 -15 q 76 61 76 30 q 98 115 76 92 q 151 138 120 138 q 205 115 183 138 q 228 61 228 92 q 205 7 228 30 q 151 -15 183 -15 z "},";":{"ha":301,"x_min":26,"x_max":229,"o":"m 153 559 q 99 581 121 559 q 77 635 77 604 q 99 688 77 666 q 153 709 121 709 q 207 688 184 709 q 229 635 229 666 q 207 581 229 604 q 153 559 184 559 m 214 155 l 106 -179 l 26 -179 l 106 155 l 214 155 z "},"<":{"ha":950,"x_min":184,"x_max":768,"o":"m 768 86 l 184 379 l 184 419 l 768 746 l 768 644 l 332 403 l 332 400 l 768 187 l 768 86 z "},"=":{"ha":950,"x_min":157,"x_max":795,"o":"m 795 505 l 157 505 l 157 594 l 795 594 l 795 505 m 795 216 l 157 216 l 157 305 l 795 305 l 795 216 z "},">":{"ha":950,"x_min":184,"x_max":768,"o":"m 768 379 l 184 86 l 184 187 l 621 399 l 621 403 l 184 644 l 184 746 l 768 419 l 768 379 z "},"?":{"ha":623,"x_min":89,"x_max":554,"o":"m 314 274 l 212 274 l 212 327 q 235 440 212 392 q 325 541 258 488 q 445 746 445 639 q 402 853 445 812 q 288 895 359 895 q 89 804 174 895 l 89 924 q 304 989 193 989 q 486 924 418 989 q 554 755 554 860 q 414 497 554 616 q 329 403 344 438 q 314 323 314 368 l 314 274 m 262 -12 q 210 9 232 -12 q 187 62 187 31 q 210 116 187 94 q 262 138 232 138 q 315 116 293 138 q 338 62 338 94 q 315 9 338 31 q 262 -12 293 -12 z "},"@":{"ha":1326,"x_min":117,"x_max":1213,"o":"m 789 285 l 786 285 q 591 123 736 123 q 442 192 498 123 q 385 376 385 260 q 464 631 385 530 q 669 732 542 732 q 756 707 718 732 q 806 644 795 682 l 808 644 q 815 722 810 663 l 900 722 q 868 342 868 349 q 949 201 868 201 q 1070 281 1022 201 q 1119 486 1119 360 q 1001 791 1119 673 q 674 909 883 909 q 341 768 473 909 q 210 415 210 627 q 335 79 210 207 q 672 -49 460 -49 q 958 7 840 -49 l 958 -77 q 665 -127 841 -127 q 268 21 418 -127 q 117 411 117 170 q 275 823 117 659 q 680 986 433 986 q 1061 849 910 986 q 1213 492 1213 712 q 1133 227 1213 330 q 939 123 1053 123 q 789 285 790 123 m 668 654 q 532 574 584 654 q 480 375 480 494 q 515 249 480 295 q 608 203 550 203 q 742 287 692 203 q 791 509 791 370 q 668 654 791 654 z "},"A":{"ha":896,"x_min":15,"x_max":880,"o":"m 880 0 l 754 0 l 651 273 l 239 273 l 142 0 l 15 0 l 388 972 l 506 972 l 880 0 m 614 375 l 461 789 q 446 854 454 810 l 444 854 q 428 789 437 813 l 277 375 l 614 375 z "},"B":{"ha":796,"x_min":127,"x_max":726,"o":"m 127 0 l 127 972 l 404 972 q 604 911 530 972 q 678 750 678 849 q 633 606 678 667 q 510 519 589 545 l 510 517 q 667 443 608 505 q 726 279 726 380 q 637 77 726 155 q 411 0 547 0 l 127 0 m 241 869 l 241 555 l 358 555 q 505 601 452 555 q 559 728 559 646 q 372 869 559 869 l 241 869 m 241 453 l 241 103 l 396 103 q 552 151 496 103 q 607 281 607 198 q 372 453 607 453 l 241 453 z "},"C":{"ha":860,"x_min":64,"x_max":789,"o":"m 789 41 q 521 -16 682 -16 q 189 117 313 -16 q 64 468 64 251 q 204 845 64 701 q 560 989 345 989 q 789 949 699 989 l 789 827 q 559 886 685 886 q 287 774 391 886 q 183 475 183 662 q 280 192 183 297 q 536 86 378 86 q 789 151 682 86 l 789 41 z "},"D":{"ha":974,"x_min":127,"x_max":910,"o":"m 127 0 l 127 972 l 396 972 q 910 498 910 972 q 767 137 910 273 q 385 0 625 0 l 127 0 m 241 869 l 241 103 l 387 103 q 684 205 578 103 q 791 496 791 308 q 393 869 791 869 l 241 869 z "},"E":{"ha":703,"x_min":127,"x_max":643,"o":"m 643 0 l 127 0 l 127 972 l 621 972 l 621 869 l 241 869 l 241 546 l 593 546 l 593 444 l 241 444 l 241 103 l 643 103 l 643 0 z "},"F":{"ha":678,"x_min":127,"x_max":621,"o":"m 621 869 l 241 869 l 241 533 l 593 533 l 593 431 l 241 431 l 241 0 l 127 0 l 127 972 l 621 972 l 621 869 z "},"G":{"ha":953,"x_min":64,"x_max":854,"o":"m 854 66 q 529 -16 708 -16 q 192 118 321 -16 q 64 473 64 252 q 207 844 64 699 q 568 989 349 989 q 835 937 727 989 l 835 811 q 555 886 717 886 q 288 773 392 886 q 183 481 183 661 q 280 192 183 297 q 543 86 377 86 q 741 132 657 86 l 741 404 l 528 404 l 528 507 l 854 507 l 854 66 z "},"H":{"ha":986,"x_min":127,"x_max":859,"o":"m 859 0 l 745 0 l 745 444 l 241 444 l 241 0 l 127 0 l 127 972 l 241 972 l 241 546 l 745 546 l 745 972 l 859 972 l 859 0 z "},"I":{"ha":370,"x_min":127,"x_max":241,"o":"m 241 0 l 127 0 l 127 972 l 241 972 l 241 0 z "},"J":{"ha":496,"x_min":14,"x_max":376,"o":"m 376 349 q 303 80 376 176 q 107 -16 230 -16 q 14 0 50 -16 l 14 113 q 109 86 50 86 q 262 347 262 86 l 262 972 l 376 972 l 376 349 z "},"K":{"ha":806,"x_min":127,"x_max":804,"o":"m 804 0 l 646 0 l 270 445 q 244 479 249 470 l 241 479 l 241 0 l 127 0 l 127 972 l 241 972 l 241 515 l 244 515 q 270 549 254 530 l 633 972 l 775 972 l 358 506 l 804 0 z "},"L":{"ha":654,"x_min":127,"x_max":632,"o":"m 632 0 l 127 0 l 127 972 l 241 972 l 241 103 l 632 103 l 632 0 z "},"M":{"ha":1247,"x_min":127,"x_max":1119,"o":"m 1119 0 l 1006 0 l 1006 652 q 1015 842 1006 730 l 1013 842 q 983 747 996 776 l 651 0 l 595 0 l 264 742 q 235 842 250 774 l 232 842 q 237 651 237 783 l 237 0 l 127 0 l 127 972 l 278 972 l 576 294 q 621 178 611 216 l 625 178 q 672 297 654 258 l 977 972 l 1119 972 l 1119 0 z "},"N":{"ha":1039,"x_min":127,"x_max":911,"o":"m 911 0 l 772 0 l 271 775 q 240 836 252 804 l 236 836 q 241 703 241 805 l 241 0 l 127 0 l 127 972 l 275 972 l 762 210 q 802 144 793 162 l 804 144 q 798 288 798 186 l 798 972 l 911 972 l 911 0 z "},"O":{"ha":1047,"x_min":64,"x_max":983,"o":"m 519 -16 q 188 120 313 -16 q 64 475 64 256 q 191 849 64 709 q 536 989 317 989 q 860 853 737 989 q 983 498 983 718 q 857 122 983 260 q 519 -16 731 -16 m 528 886 q 279 775 374 886 q 183 485 183 665 q 276 196 183 305 q 519 86 370 86 q 772 191 680 86 q 864 483 864 295 q 774 781 864 675 q 528 886 685 886 z "},"P":{"ha":778,"x_min":127,"x_max":722,"o":"m 241 368 l 241 0 l 127 0 l 127 972 l 395 972 q 636 897 551 972 q 722 682 722 821 q 627 456 722 544 q 370 368 532 368 l 241 368 m 241 869 l 241 471 l 361 471 q 541 525 479 471 q 603 677 603 578 q 375 869 603 869 l 241 869 z "},"Q":{"ha":1047,"x_min":64,"x_max":983,"o":"m 635 -3 l 861 -239 l 704 -239 l 513 -16 q 188 120 312 -16 q 64 475 64 256 q 190 849 64 709 q 538 989 317 989 q 860 853 736 989 q 983 498 983 718 q 892 165 983 297 q 635 -3 802 34 m 528 886 q 279 775 374 886 q 183 485 183 665 q 276 196 183 305 q 519 86 370 86 q 772 191 680 86 q 864 483 864 295 q 774 781 864 675 q 528 886 685 886 z "},"R":{"ha":799,"x_min":127,"x_max":753,"o":"m 753 0 l 617 0 l 489 293 q 340 414 436 414 l 241 414 l 241 0 l 127 0 l 127 972 l 418 972 q 635 903 557 972 q 713 713 713 833 q 655 539 713 610 q 497 445 597 468 l 497 442 q 597 327 552 422 l 753 0 m 241 869 l 241 517 l 392 517 q 538 569 483 517 q 594 704 594 621 q 543 826 594 782 q 397 869 492 869 l 241 869 z "},"S":{"ha":690,"x_min":82,"x_max":624,"o":"m 82 39 l 82 174 q 192 110 125 134 q 317 86 258 86 q 505 232 505 86 q 467 333 505 288 q 300 452 429 378 q 134 580 184 517 q 83 729 83 642 q 168 916 83 843 q 392 989 253 989 q 583 954 523 989 l 583 826 q 387 886 506 886 q 252 845 302 886 q 203 739 203 804 q 232 643 203 686 q 392 528 262 600 q 571 392 518 457 q 624 245 624 327 q 540 55 624 125 q 301 -16 456 -16 q 180 0 247 -16 q 82 39 114 17 z "},"T":{"ha":728,"x_min":28,"x_max":703,"o":"m 703 869 l 422 869 l 422 0 l 308 0 l 308 869 l 28 869 l 28 972 l 703 972 l 703 869 z "},"U":{"ha":954,"x_min":115,"x_max":839,"o":"m 839 393 q 469 -16 839 -16 q 115 378 115 -16 l 115 972 l 229 972 l 229 385 q 481 86 229 86 q 725 375 725 86 l 725 972 l 839 972 l 839 393 z "},"V":{"ha":863,"x_min":12,"x_max":850,"o":"m 850 972 l 490 0 l 365 0 l 12 972 l 139 972 l 408 201 q 428 115 421 164 l 431 115 q 453 203 436 156 l 728 972 l 850 972 z "},"W":{"ha":1297,"x_min":18,"x_max":1280,"o":"m 1280 972 l 1006 0 l 872 0 l 672 711 q 656 810 659 756 l 654 810 q 636 712 650 760 l 435 0 l 302 0 l 18 972 l 143 972 l 350 227 q 366 129 363 180 l 370 129 q 391 227 373 165 l 606 972 l 715 972 l 921 221 q 937 130 932 182 l 940 130 q 958 224 943 165 l 1157 972 l 1280 972 z "},"X":{"ha":819,"x_min":18,"x_max":799,"o":"m 799 0 l 660 0 l 436 372 q 414 420 426 389 l 411 420 q 388 372 404 405 l 157 0 l 18 0 l 343 489 l 43 972 l 183 972 l 382 631 q 416 563 401 597 l 419 563 q 457 633 441 608 l 664 972 l 795 972 l 489 490 l 799 0 z "},"Y":{"ha":768,"x_min":12,"x_max":760,"o":"m 760 972 l 439 359 l 439 0 l 325 0 l 325 357 l 12 972 l 142 972 l 359 533 q 383 473 363 525 l 385 473 q 411 533 392 496 l 639 972 l 760 972 z "},"Z":{"ha":792,"x_min":22,"x_max":762,"o":"m 762 945 l 193 103 l 749 103 l 749 0 l 22 0 l 22 32 l 587 869 l 68 869 l 68 972 l 762 972 l 762 945 z "},"[":{"ha":419,"x_min":136,"x_max":385,"o":"m 385 -221 l 136 -221 l 136 972 l 385 972 l 385 892 l 235 892 l 235 -140 l 385 -140 l 385 -221 z "},"\\":{"ha":526,"x_min":-18,"x_max":541,"o":"m 541 -163 l 439 -163 l -18 972 l 87 972 l 541 -163 z "},"]":{"ha":419,"x_min":36,"x_max":285,"o":"m 285 -221 l 36 -221 l 36 -140 l 186 -140 l 186 892 l 36 892 l 36 972 l 285 972 l 285 -221 z "},"^":{"ha":950,"x_min":156,"x_max":796,"o":"m 796 423 l 694 423 l 469 843 l 465 843 l 256 423 l 156 423 l 442 989 l 486 989 l 796 423 z "},"_":{"ha":576,"x_min":0,"x_max":576,"o":"m 576 -201 l 0 -201 l 0 -121 l 576 -121 l 576 -201 z "},"`":{"ha":372,"x_min":56,"x_max":319,"o":"m 319 826 l 233 826 l 56 1048 l 170 1048 l 319 826 z "},"a":{"ha":707,"x_min":61,"x_max":610,"o":"m 610 0 l 498 0 l 498 109 l 496 109 q 282 -16 423 -16 q 120 39 178 -16 q 61 184 61 94 q 290 411 61 379 l 498 440 q 355 617 498 617 q 129 532 230 617 l 129 646 q 365 711 231 711 q 610 452 610 711 l 610 0 m 498 351 l 331 328 q 214 290 254 317 q 175 193 175 262 q 211 110 175 142 q 308 77 248 77 q 445 135 391 77 q 498 282 498 193 l 498 351 z "},"b":{"ha":817,"x_min":113,"x_max":751,"o":"m 227 100 l 224 100 l 224 0 l 113 0 l 113 1028 l 224 1028 l 224 572 l 227 572 q 467 711 309 711 q 676 617 600 711 q 751 368 751 524 q 667 89 751 193 q 435 -16 582 -16 q 227 100 297 -16 m 224 380 l 224 283 q 280 137 224 197 q 422 77 336 77 q 580 155 523 77 q 637 370 637 232 q 584 551 637 486 q 439 617 530 617 q 283 550 342 617 q 224 380 224 482 z "},"c":{"ha":642,"x_min":65,"x_max":587,"o":"m 586 32 q 396 -16 506 -16 q 156 80 248 -16 q 65 331 65 177 q 163 607 65 503 q 426 711 262 711 q 587 677 517 711 l 587 563 q 422 617 510 617 q 247 541 315 617 q 179 340 179 465 q 243 148 179 218 q 415 77 307 77 q 586 138 506 77 l 586 32 z "},"d":{"ha":818,"x_min":65,"x_max":705,"o":"m 705 0 l 594 0 l 594 118 l 591 118 q 353 -16 514 -16 q 143 77 222 -16 q 65 331 65 170 q 152 607 65 503 q 383 711 239 711 q 591 598 526 711 l 594 598 l 594 1028 l 705 1028 l 705 0 m 594 314 l 594 416 q 538 559 594 500 q 397 617 483 617 q 237 543 296 617 q 179 336 179 468 q 235 147 179 216 q 385 77 291 77 q 536 144 478 77 q 594 314 594 212 z "},"e":{"ha":726,"x_min":65,"x_max":671,"o":"m 671 319 l 180 319 q 243 140 183 203 q 407 77 302 77 q 623 155 524 77 l 623 50 q 380 -16 531 -16 q 149 78 233 -16 q 65 345 65 173 q 157 609 65 507 q 385 711 249 711 q 596 623 522 711 q 671 378 671 534 l 671 319 m 557 414 q 510 564 556 510 q 383 617 465 617 q 250 561 304 617 q 182 414 195 505 l 557 414 z "},"f":{"ha":435,"x_min":36,"x_max":456,"o":"m 456 930 q 382 949 423 949 q 265 802 265 949 l 265 694 l 428 694 l 428 600 l 265 600 l 265 0 l 155 0 l 155 600 l 36 600 l 36 694 l 155 694 l 155 807 q 218 980 155 916 q 375 1043 281 1043 q 456 1031 426 1043 l 456 930 z "},"g":{"ha":818,"x_min":65,"x_max":705,"o":"m 705 56 q 339 -327 705 -327 q 114 -278 210 -327 l 114 -167 q 338 -232 231 -232 q 594 41 594 -232 l 594 117 l 591 117 q 353 -16 512 -16 q 144 76 223 -16 q 65 325 65 169 q 150 606 65 502 q 383 711 235 711 q 591 598 524 711 l 594 598 l 594 694 l 705 694 l 705 56 m 594 314 l 594 416 q 538 558 594 499 q 399 617 482 617 q 237 542 296 617 q 179 332 179 467 q 235 147 179 216 q 383 77 291 77 q 535 144 477 77 q 594 314 594 210 z "},"h":{"ha":786,"x_min":113,"x_max":689,"o":"m 689 0 l 578 0 l 578 400 q 416 617 578 617 q 279 554 335 617 q 224 393 224 492 l 224 0 l 113 0 l 113 1028 l 224 1028 l 224 579 l 227 579 q 454 711 307 711 q 689 428 689 711 l 689 0 z "},"i":{"ha":336,"x_min":98,"x_max":243,"o":"m 170 871 q 119 891 140 871 q 98 943 98 911 q 119 995 98 974 q 170 1015 140 1015 q 221 995 200 1015 q 243 943 243 974 q 221 892 243 913 q 170 871 200 871 m 224 0 l 113 0 l 113 694 l 224 694 l 224 0 z "},"j":{"ha":336,"x_min":-134,"x_max":243,"o":"m 224 29 q 155 -234 224 -142 q -42 -327 86 -327 q -134 -305 -90 -327 l -134 -201 q -39 -232 -84 -232 q 113 11 113 -232 l 113 694 l 224 694 l 224 29 m 170 871 q 119 891 140 871 q 98 943 98 911 q 119 995 98 974 q 170 1015 140 1015 q 221 995 200 1015 q 243 943 243 974 q 221 892 243 913 q 170 871 200 871 z "},"k":{"ha":690,"x_min":113,"x_max":689,"o":"m 689 0 l 533 0 l 227 334 l 224 334 l 224 0 l 113 0 l 113 1028 l 224 1028 l 224 376 l 227 376 l 518 694 l 664 694 l 342 359 l 689 0 z "},"l":{"ha":336,"x_min":113,"x_max":224,"o":"m 224 0 l 113 0 l 113 1028 l 224 1028 l 224 0 z "},"m":{"ha":1196,"x_min":113,"x_max":1099,"o":"m 1099 0 l 987 0 l 987 399 q 952 566 987 514 q 832 617 916 617 q 711 552 761 617 q 661 396 661 487 l 661 0 l 550 0 l 550 412 q 392 617 550 617 q 271 556 319 617 q 224 396 224 494 l 224 0 l 113 0 l 113 694 l 224 694 l 224 585 l 227 585 q 442 711 300 711 q 566 671 513 711 q 639 567 619 631 q 869 711 716 711 q 1099 428 1099 711 l 1099 0 z "},"n":{"ha":786,"x_min":113,"x_max":689,"o":"m 689 0 l 578 0 l 578 396 q 416 617 578 617 q 278 554 333 617 q 224 396 224 492 l 224 0 l 113 0 l 113 694 l 224 694 l 224 579 l 227 579 q 454 711 305 711 q 629 637 568 711 q 689 425 689 564 l 689 0 z "},"o":{"ha":814,"x_min":65,"x_max":749,"o":"m 403 -16 q 157 81 249 -16 q 65 339 65 178 q 161 612 65 514 q 419 711 256 711 q 662 615 574 711 q 749 350 749 519 q 655 84 749 184 q 403 -16 561 -16 m 411 617 q 241 544 304 617 q 179 343 179 471 q 242 149 179 220 q 411 77 305 77 q 577 147 519 77 q 635 346 635 217 q 577 547 635 476 q 411 617 519 617 z "},"p":{"ha":817,"x_min":113,"x_max":751,"o":"m 227 100 l 224 100 l 224 -319 l 113 -319 l 113 694 l 224 694 l 224 572 l 227 572 q 467 711 309 711 q 676 617 601 711 q 751 368 751 524 q 667 89 751 193 q 435 -16 582 -16 q 227 100 300 -16 m 224 380 l 224 283 q 280 137 224 197 q 422 77 336 77 q 580 155 523 77 q 637 370 637 232 q 584 551 637 486 q 439 617 530 617 q 283 550 342 617 q 224 380 224 482 z "},"q":{"ha":818,"x_min":65,"x_max":705,"o":"m 705 -319 l 594 -319 l 594 119 l 591 119 q 354 -16 519 -16 q 144 77 223 -16 q 65 331 65 170 q 152 607 65 504 q 385 711 239 711 q 591 598 528 711 l 594 598 l 594 694 l 705 694 l 705 -319 m 594 313 l 594 414 q 538 558 594 499 q 396 617 482 617 q 237 543 296 617 q 179 334 179 469 q 235 145 179 214 q 380 77 292 77 q 536 144 478 77 q 594 313 594 211 z "},"r":{"ha":483,"x_min":113,"x_max":475,"o":"m 475 582 q 391 604 446 604 q 272 537 319 604 q 224 354 224 470 l 224 0 l 113 0 l 113 694 l 224 694 l 224 551 l 227 551 q 299 666 250 625 q 408 707 348 707 q 475 697 452 707 l 475 582 z "},"s":{"ha":553,"x_min":71,"x_max":497,"o":"m 71 25 l 71 144 q 251 77 152 77 q 383 175 383 77 q 354 242 383 216 q 240 305 325 269 q 106 396 140 349 q 72 510 72 442 q 140 654 72 597 q 317 711 209 711 q 465 680 399 711 l 465 567 q 308 617 397 617 q 219 590 252 617 q 186 519 186 563 q 210 452 186 477 q 318 391 234 426 q 459 300 420 347 q 497 186 497 252 q 429 40 497 97 q 243 -16 360 -16 q 71 25 144 -16 z "},"t":{"ha":471,"x_min":29,"x_max":435,"o":"m 435 7 q 331 -15 395 -15 q 149 189 149 -15 l 149 600 l 29 600 l 29 694 l 149 694 l 149 864 l 260 900 l 260 694 l 435 694 l 435 600 l 260 600 l 260 208 q 283 109 260 138 q 362 79 307 79 q 435 102 404 79 l 435 7 z "},"u":{"ha":786,"x_min":98,"x_max":674,"o":"m 674 0 l 563 0 l 563 110 l 560 110 q 346 -16 491 -16 q 98 279 98 -16 l 98 694 l 208 694 l 208 297 q 376 77 208 77 q 510 137 458 77 q 563 294 563 197 l 563 694 l 674 694 l 674 0 z "},"v":{"ha":665,"x_min":9,"x_max":659,"o":"m 659 694 l 382 0 l 273 0 l 9 694 l 132 694 l 308 190 q 332 93 328 134 l 335 93 q 357 187 342 145 l 541 694 l 659 694 z "},"w":{"ha":1004,"x_min":16,"x_max":987,"o":"m 987 694 l 779 0 l 664 0 l 521 497 q 510 562 513 526 l 507 562 q 493 498 505 537 l 338 0 l 227 0 l 16 694 l 133 694 l 277 172 q 286 110 283 149 l 292 110 q 304 174 294 140 l 464 694 l 566 694 l 709 171 q 720 109 716 146 l 725 109 q 736 171 726 135 l 878 694 l 987 694 z "},"x":{"ha":637,"x_min":18,"x_max":620,"o":"m 620 694 l 387 343 l 616 0 l 486 0 l 350 225 q 319 278 337 246 l 317 278 q 285 225 313 272 l 146 0 l 18 0 l 254 340 l 28 694 l 157 694 l 292 457 q 321 403 307 431 l 323 403 l 497 694 l 620 694 z "},"y":{"ha":672,"x_min":9,"x_max":665,"o":"m 665 694 l 346 -111 q 106 -327 260 -327 q 33 -318 62 -327 l 33 -218 q 99 -231 69 -231 q 225 -130 183 -231 l 281 1 l 9 694 l 133 694 l 321 160 q 335 107 324 150 l 339 107 q 353 159 342 123 l 550 694 l 665 694 z "},"z":{"ha":628,"x_min":22,"x_max":597,"o":"m 597 663 l 186 95 l 593 95 l 593 0 l 22 0 l 22 35 l 433 600 l 61 600 l 61 694 l 597 694 l 597 663 z "},"{":{"ha":419,"x_min":62,"x_max":376,"o":"m 376 -221 q 168 -11 168 -218 l 168 193 q 62 336 168 330 l 62 415 q 168 562 168 422 l 168 760 q 376 972 168 970 l 376 886 q 269 751 269 883 l 269 553 q 167 378 269 410 l 167 375 q 269 201 269 345 l 269 5 q 293 -102 269 -70 q 376 -136 317 -134 l 376 -221 z "},"|":{"ha":332,"x_min":117,"x_max":217,"o":"m 217 -327 l 117 -327 l 117 1062 l 217 1062 l 217 -327 z "},"}":{"ha":419,"x_min":45,"x_max":358,"o":"m 358 336 q 252 193 252 330 l 252 -11 q 45 -221 252 -218 l 45 -136 q 129 -102 104 -134 q 153 5 153 -69 l 153 201 q 254 375 153 345 l 254 378 q 153 553 153 410 l 153 751 q 45 886 153 883 l 45 972 q 252 760 252 970 l 252 562 q 358 415 252 422 l 358 336 z "},"~":{"ha":950,"x_min":142,"x_max":810,"o":"m 810 509 q 755 353 805 408 q 620 298 705 298 q 440 372 546 298 q 332 418 374 418 q 233 298 237 418 l 142 298 q 196 452 145 395 q 332 509 246 509 q 492 449 404 509 q 625 388 581 388 q 692 421 667 388 q 718 509 717 454 l 810 509 z "},"Ä":{"ha":896,"x_min":15,"x_max":880,"o":"m 880 0 l 754 0 l 651 273 l 239 273 l 142 0 l 15 0 l 388 972 l 506 972 l 880 0 m 614 375 l 461 789 q 446 854 454 810 l 444 854 q 428 789 437 813 l 277 375 l 614 375 m 570 1061 q 523 1080 543 1061 q 503 1128 503 1099 q 522 1176 503 1157 q 568 1195 541 1195 q 616 1176 597 1195 q 636 1128 636 1156 q 617 1081 636 1101 q 570 1061 598 1061 m 309 1061 q 261 1081 281 1061 q 241 1128 241 1101 q 260 1176 241 1157 q 307 1195 279 1195 q 355 1176 335 1195 q 376 1128 376 1156 q 356 1081 376 1101 q 309 1061 336 1061 z "},"Å":{"ha":896,"x_min":15,"x_max":880,"o":"m 880 0 l 754 0 l 651 273 l 239 273 l 142 0 l 15 0 l 374 935 q 305 1046 305 970 q 346 1143 305 1106 q 449 1181 387 1181 q 547 1144 509 1181 q 585 1050 585 1107 q 519 937 585 974 l 880 0 m 445 1125 q 389 1104 411 1125 q 368 1050 368 1082 q 445 972 368 972 q 500 995 477 972 q 522 1050 522 1017 q 500 1104 522 1083 q 445 1125 477 1125 m 614 375 l 461 789 q 446 854 454 810 l 444 854 q 428 789 437 813 l 277 375 l 614 375 z "},"Ç":{"ha":860,"x_min":64,"x_max":789,"o":"m 789 41 q 524 -16 675 -17 l 524 -71 q 616 -98 582 -71 q 651 -174 651 -125 q 465 -293 651 -293 q 420 -292 439 -293 l 420 -231 q 468 -235 449 -235 q 564 -174 564 -235 q 476 -121 564 -121 q 449 -123 469 -121 l 449 -12 q 168 141 273 10 q 64 468 64 271 q 204 845 64 701 q 560 989 345 989 q 789 949 699 989 l 789 827 q 559 886 685 886 q 287 774 391 886 q 183 475 183 662 q 280 192 183 297 q 536 86 378 86 q 789 151 682 86 l 789 41 z "},"É":{"ha":703,"x_min":127,"x_max":643,"o":"m 643 0 l 127 0 l 127 972 l 621 972 l 621 869 l 241 869 l 241 546 l 593 546 l 593 444 l 241 444 l 241 103 l 643 103 l 643 0 m 545 1284 l 367 1061 l 281 1061 l 432 1284 l 545 1284 z "},"Ñ":{"ha":1039,"x_min":127,"x_max":911,"o":"m 911 0 l 772 0 l 271 775 q 240 836 252 804 l 236 836 q 241 703 241 805 l 241 0 l 127 0 l 127 972 l 275 972 l 762 210 q 802 144 793 162 l 804 144 q 798 288 798 186 l 798 972 l 911 972 l 911 0 m 755 1223 q 722 1106 755 1152 q 634 1061 690 1061 q 524 1097 586 1061 q 444 1126 472 1126 q 384 1049 384 1126 l 320 1049 q 353 1165 320 1122 q 444 1209 385 1209 q 545 1174 488 1209 q 631 1144 595 1144 q 688 1223 688 1144 l 755 1223 z "},"Ö":{"ha":1047,"x_min":64,"x_max":983,"o":"m 519 -16 q 188 120 313 -16 q 64 475 64 256 q 191 849 64 709 q 536 989 317 989 q 860 853 737 989 q 983 498 983 718 q 857 122 983 260 q 519 -16 731 -16 m 528 886 q 279 775 374 886 q 183 485 183 665 q 276 196 183 305 q 519 86 370 86 q 772 191 680 86 q 864 483 864 295 q 774 781 864 675 q 528 886 685 886 m 656 1060 q 610 1079 629 1060 q 590 1127 590 1098 q 609 1175 590 1156 q 655 1194 628 1194 q 703 1174 684 1194 q 723 1127 723 1155 q 704 1080 723 1099 q 656 1060 685 1060 m 396 1060 q 348 1080 368 1060 q 328 1127 328 1100 q 347 1175 328 1156 q 394 1194 366 1194 q 442 1174 422 1194 q 463 1127 463 1155 q 443 1080 463 1099 q 396 1060 423 1060 z "},"Ü":{"ha":954,"x_min":115,"x_max":839,"o":"m 839 393 q 469 -16 839 -16 q 115 378 115 -16 l 115 972 l 229 972 l 229 385 q 481 86 229 86 q 725 375 725 86 l 725 972 l 839 972 l 839 393 m 607 1063 q 560 1082 580 1063 q 541 1130 541 1101 q 559 1177 541 1158 q 606 1196 578 1196 q 654 1177 634 1196 q 673 1130 673 1158 q 654 1082 673 1102 q 607 1063 635 1063 m 347 1063 q 298 1083 318 1063 q 278 1130 278 1103 q 297 1177 278 1158 q 345 1196 317 1196 q 393 1177 372 1196 q 413 1130 413 1158 q 393 1082 413 1102 q 347 1063 374 1063 z "},"á":{"ha":707,"x_min":61,"x_max":610,"o":"m 610 0 l 498 0 l 498 109 l 496 109 q 282 -16 423 -16 q 120 39 178 -16 q 61 184 61 94 q 290 411 61 379 l 498 440 q 355 617 498 617 q 129 532 230 617 l 129 646 q 365 711 231 711 q 610 452 610 711 l 610 0 m 498 351 l 331 328 q 214 290 254 317 q 175 193 175 262 q 211 110 175 142 q 308 77 248 77 q 445 135 391 77 q 498 282 498 193 l 498 351 m 513 1048 l 336 826 l 250 826 l 401 1048 l 513 1048 z "},"à":{"ha":707,"x_min":61,"x_max":610,"o":"m 610 0 l 498 0 l 498 109 l 496 109 q 282 -16 423 -16 q 120 39 178 -16 q 61 184 61 94 q 290 411 61 379 l 498 440 q 355 617 498 617 q 129 532 230 617 l 129 646 q 365 711 231 711 q 610 452 610 711 l 610 0 m 498 351 l 331 328 q 214 290 254 317 q 175 193 175 262 q 211 110 175 142 q 308 77 248 77 q 445 135 391 77 q 498 282 498 193 l 498 351 m 457 826 l 371 826 l 193 1048 l 307 1048 l 457 826 z "},"â":{"ha":707,"x_min":61,"x_max":610,"o":"m 610 0 l 498 0 l 498 109 l 496 109 q 282 -16 423 -16 q 120 39 178 -16 q 61 184 61 94 q 290 411 61 379 l 498 440 q 355 617 498 617 q 129 532 230 617 l 129 646 q 365 711 231 711 q 610 452 610 711 l 610 0 m 498 351 l 331 328 q 214 290 254 317 q 175 193 175 262 q 211 110 175 142 q 308 77 248 77 q 445 135 391 77 q 498 282 498 193 l 498 351 m 547 826 l 464 826 l 353 982 l 241 826 l 164 826 l 310 1051 l 400 1051 l 547 826 z "},"ä":{"ha":707,"x_min":61,"x_max":610,"o":"m 610 0 l 498 0 l 498 109 l 496 109 q 282 -16 423 -16 q 120 39 178 -16 q 61 184 61 94 q 290 411 61 379 l 498 440 q 355 617 498 617 q 129 532 230 617 l 129 646 q 365 711 231 711 q 610 452 610 711 l 610 0 m 498 351 l 331 328 q 214 290 254 317 q 175 193 175 262 q 211 110 175 142 q 308 77 248 77 q 445 135 391 77 q 498 282 498 193 l 498 351 m 480 826 q 433 845 453 826 q 414 893 414 864 q 433 941 414 922 q 479 960 452 960 q 527 940 507 960 q 547 893 547 921 q 528 846 547 865 q 480 826 509 826 m 220 826 q 171 846 191 826 q 151 893 151 866 q 171 941 151 922 q 218 960 190 960 q 266 940 245 960 q 286 893 286 921 q 267 846 286 865 q 220 826 247 826 z "},"ã":{"ha":707,"x_min":61,"x_max":610,"o":"m 610 0 l 498 0 l 498 109 l 496 109 q 282 -16 423 -16 q 120 39 178 -16 q 61 184 61 94 q 290 411 61 379 l 498 440 q 355 617 498 617 q 129 532 230 617 l 129 646 q 365 711 231 711 q 610 452 610 711 l 610 0 m 498 351 l 331 328 q 214 290 254 317 q 175 193 175 262 q 211 110 175 142 q 308 77 248 77 q 445 135 391 77 q 498 282 498 193 l 498 351 m 572 989 q 540 872 572 918 q 452 827 507 827 q 342 863 404 827 q 261 892 290 892 q 201 815 201 892 l 138 815 q 170 931 138 888 q 261 975 203 975 q 362 940 305 975 q 449 910 412 910 q 506 989 506 910 l 572 989 z "},"å":{"ha":707,"x_min":61,"x_max":610,"o":"m 610 0 l 498 0 l 498 109 l 496 109 q 282 -16 423 -16 q 120 39 178 -16 q 61 184 61 94 q 290 411 61 379 l 498 440 q 355 617 498 617 q 129 532 230 617 l 129 646 q 365 711 231 711 q 610 452 610 711 l 610 0 m 498 351 l 331 328 q 214 290 254 317 q 175 193 175 262 q 211 110 175 142 q 308 77 248 77 q 445 135 391 77 q 498 282 498 193 l 498 351 m 351 798 q 253 833 292 798 q 214 926 214 869 q 254 1024 214 987 q 355 1061 294 1061 q 454 1024 416 1061 q 493 930 493 987 q 452 836 493 873 q 351 798 410 798 m 351 1006 q 296 984 318 1006 q 275 929 275 962 q 351 853 275 853 q 407 875 385 853 q 429 929 429 897 q 407 984 429 962 q 351 1006 385 1006 z "},"ç":{"ha":642,"x_min":65,"x_max":587,"o":"m 586 32 q 400 -16 507 -16 l 400 -71 q 493 -98 458 -71 q 528 -174 528 -125 q 341 -293 528 -293 q 297 -292 315 -293 l 297 -231 q 345 -235 326 -235 q 440 -174 440 -235 q 353 -121 440 -121 q 325 -123 346 -121 l 325 -9 q 135 106 205 14 q 65 331 65 198 q 163 607 65 503 q 426 711 262 711 q 587 677 517 711 l 587 563 q 422 617 510 617 q 247 541 315 617 q 179 340 179 465 q 243 148 179 218 q 415 77 307 77 q 586 138 506 77 l 586 32 z "},"é":{"ha":726,"x_min":65,"x_max":671,"o":"m 671 319 l 180 319 q 243 140 183 203 q 407 77 302 77 q 623 155 524 77 l 623 50 q 380 -16 531 -16 q 149 78 233 -16 q 65 345 65 173 q 157 609 65 507 q 385 711 249 711 q 596 623 522 711 q 671 378 671 534 l 671 319 m 557 414 q 510 564 556 510 q 383 617 465 617 q 250 561 304 617 q 182 414 195 505 l 557 414 m 539 1048 l 361 826 l 275 826 l 427 1048 l 539 1048 z "},"è":{"ha":726,"x_min":65,"x_max":671,"o":"m 671 319 l 180 319 q 243 140 183 203 q 407 77 302 77 q 623 155 524 77 l 623 50 q 380 -16 531 -16 q 149 78 233 -16 q 65 345 65 173 q 157 609 65 507 q 385 711 249 711 q 596 623 522 711 q 671 378 671 534 l 671 319 m 557 414 q 510 564 556 510 q 383 617 465 617 q 250 561 304 617 q 182 414 195 505 l 557 414 m 492 826 l 406 826 l 228 1048 l 342 1048 l 492 826 z "},"ê":{"ha":726,"x_min":65,"x_max":671,"o":"m 671 319 l 180 319 q 243 140 183 203 q 407 77 302 77 q 623 155 524 77 l 623 50 q 380 -16 531 -16 q 149 78 233 -16 q 65 345 65 173 q 157 609 65 507 q 385 711 249 711 q 596 623 522 711 q 671 378 671 534 l 671 319 m 557 414 q 510 564 556 510 q 383 617 465 617 q 250 561 304 617 q 182 414 195 505 l 557 414 m 570 826 l 487 826 l 376 982 l 264 826 l 187 826 l 333 1051 l 423 1051 l 570 826 z "},"ë":{"ha":726,"x_min":65,"x_max":671,"o":"m 671 319 l 180 319 q 243 140 183 203 q 407 77 302 77 q 623 155 524 77 l 623 50 q 380 -16 531 -16 q 149 78 233 -16 q 65 345 65 173 q 157 609 65 507 q 385 711 249 711 q 596 623 522 711 q 671 378 671 534 l 671 319 m 557 414 q 510 564 556 510 q 383 617 465 617 q 250 561 304 617 q 182 414 195 505 l 557 414 m 506 826 q 459 845 479 826 q 439 893 439 864 q 458 941 439 922 q 505 960 477 960 q 553 940 533 960 q 572 893 572 921 q 553 846 572 865 q 506 826 534 826 m 245 826 q 197 846 217 826 q 177 893 177 866 q 196 941 177 922 q 243 960 216 960 q 292 940 271 960 q 312 893 312 921 q 292 846 312 865 q 245 826 273 826 z "},"í":{"ha":336,"x_min":67,"x_max":331,"o":"m 224 0 l 113 0 l 113 694 l 224 694 l 224 0 m 331 1048 l 153 826 l 67 826 l 218 1048 l 331 1048 z "},"ì":{"ha":336,"x_min":-6,"x_max":258,"o":"m 224 0 l 113 0 l 113 694 l 224 694 l 224 0 m 258 826 l 172 826 l -6 1048 l 108 1048 l 258 826 z "},"î":{"ha":336,"x_min":-23,"x_max":359,"o":"m 224 0 l 113 0 l 113 694 l 224 694 l 224 0 m 359 826 l 277 826 l 165 982 l 54 826 l -23 826 l 123 1051 l 213 1051 l 359 826 z "},"ï":{"ha":336,"x_min":-31,"x_max":365,"o":"m 224 0 l 113 0 l 113 694 l 224 694 l 224 0 m 298 826 q 252 845 271 826 q 232 893 232 864 q 251 941 232 922 q 297 960 270 960 q 345 940 326 960 q 365 893 365 921 q 346 846 365 865 q 298 826 327 826 m 38 826 q -11 846 9 826 q -31 893 -31 866 q -11 941 -31 922 q 36 960 8 960 q 84 940 64 960 q 104 893 104 921 q 85 846 104 865 q 38 826 65 826 z "},"ñ":{"ha":786,"x_min":113,"x_max":689,"o":"m 689 0 l 578 0 l 578 396 q 416 617 578 617 q 278 554 333 617 q 224 396 224 492 l 224 0 l 113 0 l 113 694 l 224 694 l 224 579 l 227 579 q 454 711 305 711 q 629 637 568 711 q 689 425 689 564 l 689 0 m 616 989 q 583 872 616 918 q 495 827 551 827 q 385 863 447 827 q 304 892 333 892 q 245 815 245 892 l 181 815 q 214 931 181 888 q 304 975 246 975 q 406 940 349 975 q 492 910 456 910 q 549 989 549 910 l 616 989 z "},"ó":{"ha":814,"x_min":65,"x_max":749,"o":"m 403 -16 q 157 81 249 -16 q 65 339 65 178 q 161 612 65 514 q 419 711 256 711 q 662 615 574 711 q 749 350 749 519 q 655 84 749 184 q 403 -16 561 -16 m 411 617 q 241 544 304 617 q 179 343 179 471 q 242 149 179 220 q 411 77 305 77 q 577 147 519 77 q 635 346 635 217 q 577 547 635 476 q 411 617 519 617 m 574 1048 l 396 826 l 310 826 l 461 1048 l 574 1048 z "},"ò":{"ha":814,"x_min":65,"x_max":749,"o":"m 403 -16 q 157 81 249 -16 q 65 339 65 178 q 161 612 65 514 q 419 711 256 711 q 662 615 574 711 q 749 350 749 519 q 655 84 749 184 q 403 -16 561 -16 m 411 617 q 241 544 304 617 q 179 343 179 471 q 242 149 179 220 q 411 77 305 77 q 577 147 519 77 q 635 346 635 217 q 577 547 635 476 q 411 617 519 617 m 507 826 l 420 826 l 243 1048 l 357 1048 l 507 826 z "},"ô":{"ha":814,"x_min":65,"x_max":749,"o":"m 403 -16 q 157 81 249 -16 q 65 339 65 178 q 161 612 65 514 q 419 711 256 711 q 662 615 574 711 q 749 350 749 519 q 655 84 749 184 q 403 -16 561 -16 m 411 617 q 241 544 304 617 q 179 343 179 471 q 242 149 179 220 q 411 77 305 77 q 577 147 519 77 q 635 346 635 217 q 577 547 635 476 q 411 617 519 617 m 600 826 l 517 826 l 406 982 l 294 826 l 218 826 l 363 1051 l 454 1051 l 600 826 z "},"ö":{"ha":814,"x_min":65,"x_max":749,"o":"m 403 -16 q 157 81 249 -16 q 65 339 65 178 q 161 612 65 514 q 419 711 256 711 q 662 615 574 711 q 749 350 749 519 q 655 84 749 184 q 403 -16 561 -16 m 411 617 q 241 544 304 617 q 179 343 179 471 q 242 149 179 220 q 411 77 305 77 q 577 147 519 77 q 635 346 635 217 q 577 547 635 476 q 411 617 519 617 m 538 826 q 491 845 511 826 q 471 893 471 864 q 490 941 471 922 q 536 960 509 960 q 585 940 565 960 q 604 893 604 921 q 585 846 604 865 q 538 826 566 826 m 277 826 q 229 846 249 826 q 209 893 209 866 q 228 941 209 922 q 275 960 248 960 q 323 940 303 960 q 344 893 344 921 q 324 846 344 865 q 277 826 304 826 z "},"õ":{"ha":814,"x_min":65,"x_max":749,"o":"m 403 -16 q 157 81 249 -16 q 65 339 65 178 q 161 612 65 514 q 419 711 256 711 q 662 615 574 711 q 749 350 749 519 q 655 84 749 184 q 403 -16 561 -16 m 411 617 q 241 544 304 617 q 179 343 179 471 q 242 149 179 220 q 411 77 305 77 q 577 147 519 77 q 635 346 635 217 q 577 547 635 476 q 411 617 519 617 m 631 989 q 599 872 631 918 q 511 827 566 827 q 401 863 463 827 q 320 892 349 892 q 260 815 260 892 l 197 815 q 229 931 197 888 q 320 975 262 975 q 421 940 364 975 q 508 910 471 910 q 565 989 565 910 l 631 989 z "},"ú":{"ha":786,"x_min":98,"x_max":674,"o":"m 674 0 l 563 0 l 563 110 l 560 110 q 346 -16 491 -16 q 98 279 98 -16 l 98 694 l 208 694 l 208 297 q 376 77 208 77 q 510 137 458 77 q 563 294 563 197 l 563 694 l 674 694 l 674 0 m 570 1048 l 392 826 l 306 826 l 457 1048 l 570 1048 z "},"ù":{"ha":786,"x_min":98,"x_max":674,"o":"m 674 0 l 563 0 l 563 110 l 560 110 q 346 -16 491 -16 q 98 279 98 -16 l 98 694 l 208 694 l 208 297 q 376 77 208 77 q 510 137 458 77 q 563 294 563 197 l 563 694 l 674 694 l 674 0 m 478 826 l 392 826 l 214 1048 l 328 1048 l 478 826 z "},"û":{"ha":786,"x_min":98,"x_max":674,"o":"m 674 0 l 563 0 l 563 110 l 560 110 q 346 -16 491 -16 q 98 279 98 -16 l 98 694 l 208 694 l 208 297 q 376 77 208 77 q 510 137 458 77 q 563 294 563 197 l 563 694 l 674 694 l 674 0 m 579 826 l 496 826 l 385 982 l 273 826 l 197 826 l 342 1051 l 433 1051 l 579 826 z "},"ü":{"ha":786,"x_min":98,"x_max":674,"o":"m 674 0 l 563 0 l 563 110 l 560 110 q 346 -16 491 -16 q 98 279 98 -16 l 98 694 l 208 694 l 208 297 q 376 77 208 77 q 510 137 458 77 q 563 294 563 197 l 563 694 l 674 694 l 674 0 m 522 826 q 475 845 495 826 q 456 893 456 864 q 475 941 456 922 q 521 960 494 960 q 569 940 549 960 q 589 893 589 921 q 570 846 589 865 q 522 826 551 826 m 262 826 q 213 846 233 826 q 193 893 193 866 q 213 941 193 922 q 260 960 232 960 q 308 940 288 960 q 328 893 328 921 q 309 846 328 865 q 262 826 289 826 z "},"†":{"ha":521,"x_min":46,"x_max":473,"o":"m 473 678 l 302 678 l 302 167 l 217 167 l 217 678 l 46 678 l 46 753 l 217 753 l 217 970 l 302 970 l 302 753 l 473 753 l 473 678 z "},"°":{"ha":524,"x_min":73,"x_max":449,"o":"m 261 608 q 128 664 183 608 q 73 798 73 719 q 127 929 73 876 q 260 983 182 983 q 394 929 338 983 q 449 798 449 875 q 394 664 449 719 q 261 608 339 608 m 261 904 q 186 873 217 904 q 155 798 155 842 q 185 720 155 752 q 260 688 216 688 q 336 720 304 688 q 368 798 368 753 q 336 873 368 842 q 261 904 305 904 z "},"¢":{"ha":749,"x_min":125,"x_max":646,"o":"m 646 142 q 496 95 581 102 l 496 -33 l 411 -33 l 411 96 q 202 205 280 111 q 125 440 125 300 q 202 689 125 589 q 411 814 280 789 l 411 958 l 496 958 l 496 821 q 646 786 579 819 l 646 669 q 496 722 577 718 l 496 190 q 646 248 578 198 l 646 142 m 411 197 l 411 713 q 284 623 330 692 q 239 452 239 553 q 285 283 239 350 q 411 197 331 216 z "},"£":{"ha":749,"x_min":72,"x_max":682,"o":"m 682 0 l 72 0 l 72 92 q 220 304 220 138 l 220 431 l 86 431 l 86 526 l 220 526 l 220 699 q 294 907 220 826 q 485 989 368 989 q 629 961 564 989 l 629 856 q 486 895 562 895 q 331 686 331 895 l 331 526 l 532 526 l 532 431 l 331 431 l 331 325 q 200 95 331 161 l 682 95 l 682 0 z "},"§":{"ha":623,"x_min":89,"x_max":547,"o":"m 446 282 q 507 156 507 232 q 439 11 507 66 q 267 -45 372 -45 q 104 -7 178 -45 l 104 100 q 274 50 193 50 q 362 77 331 50 q 393 144 393 104 q 369 205 393 180 q 247 282 345 230 q 89 497 89 365 q 189 663 89 608 q 117 814 117 719 q 180 956 117 900 q 347 1011 243 1011 q 496 982 435 1011 l 496 875 q 345 917 427 917 q 231 819 231 917 q 258 751 231 782 q 396 668 286 721 q 547 469 547 595 q 446 282 547 354 m 270 614 q 201 506 201 579 q 240 420 201 457 q 374 340 278 383 q 433 457 433 387 q 398 540 433 506 q 270 614 362 574 z "},"•":{"ha":564,"x_min":111,"x_max":453,"o":"m 283 277 q 162 326 213 277 q 111 446 111 376 q 162 567 111 516 q 283 618 213 618 q 404 568 354 618 q 453 446 453 517 q 404 326 453 376 q 283 277 354 277 z "},"¶":{"ha":636,"x_min":57,"x_max":566,"o":"m 566 903 l 479 903 l 479 0 l 407 0 l 407 903 l 300 903 l 300 0 l 227 0 l 227 612 q 105 664 153 612 q 57 793 57 715 q 107 923 57 873 q 231 972 158 972 l 566 972 l 566 903 z "},"ß":{"ha":755,"x_min":113,"x_max":708,"o":"m 313 1 l 313 110 q 428 77 363 77 q 548 127 502 77 q 594 261 594 177 q 526 426 594 363 q 338 503 458 490 l 338 591 q 469 661 418 605 q 521 795 521 718 q 484 908 521 868 q 380 949 446 949 q 224 739 224 949 l 224 0 l 113 0 l 113 755 q 187 964 113 886 q 388 1043 262 1043 q 568 979 500 1043 q 635 808 635 914 q 584 654 635 722 q 452 559 533 585 l 452 555 q 708 267 708 505 q 633 65 708 146 q 433 -16 557 -16 q 313 1 365 -16 z "},"­":{"ha":555,"x_min":98,"x_max":468,"o":"m 468 343 l 98 343 l 98 431 l 468 431 l 468 343 z "},"®":{"ha":1236,"x_min":110,"x_max":1126,"o":"m 618 -22 q 259 126 408 -22 q 110 486 110 275 q 259 846 110 697 q 618 995 408 995 q 978 846 829 995 q 1126 486 1126 697 q 978 126 1126 275 q 618 -22 829 -22 m 618 935 q 301 804 433 935 q 170 486 170 672 q 301 169 170 300 q 618 38 433 38 q 936 169 804 38 q 1067 486 1067 300 q 936 804 1067 672 q 618 935 804 935 m 865 168 l 755 168 l 685 323 q 570 440 631 440 l 510 440 l 510 168 l 420 168 l 420 815 l 602 815 q 776 768 715 815 q 838 639 838 720 q 794 526 838 572 q 674 463 751 479 l 674 460 q 781 340 728 448 l 865 168 m 510 738 l 510 517 l 607 517 q 741 628 741 517 q 705 713 741 688 q 591 738 669 738 l 510 738 z "},"©":{"ha":1236,"x_min":110,"x_max":1126,"o":"m 618 -22 q 259 126 408 -22 q 110 486 110 275 q 259 846 110 697 q 618 995 408 995 q 978 846 829 995 q 1126 486 1126 697 q 978 126 1126 275 q 618 -22 829 -22 m 618 935 q 301 804 433 935 q 170 486 170 672 q 301 169 170 300 q 618 38 433 38 q 936 169 804 38 q 1067 486 1067 300 q 936 804 1067 672 q 618 935 804 935 m 823 180 q 640 134 745 134 q 403 230 498 134 q 307 469 307 326 q 405 736 307 637 q 660 836 503 836 q 820 800 749 836 l 820 699 q 648 747 755 747 q 473 675 542 747 q 404 481 404 603 q 474 291 404 363 q 653 220 545 220 q 823 273 752 220 l 823 180 z "},"™":{"ha":1074,"x_min":52,"x_max":947,"o":"m 947 524 l 873 524 l 873 848 l 871 848 l 722 524 l 682 524 l 537 848 l 534 848 l 534 524 l 465 524 l 465 972 l 551 972 l 704 636 l 707 636 l 861 972 l 947 972 l 947 524 m 408 906 l 267 906 l 267 524 l 191 524 l 191 906 l 52 906 l 52 972 l 408 972 l 408 906 z "},"´":{"ha":392,"x_min":92,"x_max":355,"o":"m 355 1048 l 178 826 l 92 826 l 243 1048 l 355 1048 z "},"¨":{"ha":575,"x_min":85,"x_max":480,"o":"m 414 826 q 367 845 387 826 q 347 893 347 864 q 366 941 347 922 q 412 960 385 960 q 460 940 441 960 q 480 893 480 921 q 461 846 480 865 q 414 826 442 826 m 153 826 q 105 846 125 826 q 85 893 85 866 q 104 941 85 922 q 151 960 123 960 q 199 940 179 960 q 220 893 220 921 q 200 846 220 865 q 153 826 180 826 z "},"≠":{"ha":951,"x_min":157,"x_max":795,"o":"m 795 216 l 422 216 l 311 0 l 216 0 l 327 216 l 157 216 l 157 305 l 374 305 l 475 505 l 157 505 l 157 594 l 522 594 l 629 806 l 725 806 l 617 594 l 795 594 l 795 505 l 571 505 l 468 305 l 795 305 l 795 216 z "},"Æ":{"ha":1195,"x_min":7,"x_max":1131,"o":"m 1131 0 l 616 0 l 616 273 l 270 273 l 139 0 l 7 0 l 481 972 l 1108 972 l 1108 869 l 729 869 l 729 546 l 1081 546 l 1081 444 l 729 444 l 729 103 l 1131 103 l 1131 0 m 616 375 l 616 869 l 551 869 l 317 375 l 616 375 z "},"Ø":{"ha":1047,"x_min":64,"x_max":983,"o":"m 220 89 l 117 -35 l 64 9 l 171 139 q 64 475 64 271 q 190 848 64 707 q 536 989 317 989 q 808 901 694 989 l 900 1011 l 953 968 l 859 856 q 983 498 983 720 q 857 122 983 260 q 519 -16 731 -16 q 220 89 339 -16 m 739 817 q 528 886 654 886 q 278 774 374 886 q 183 485 183 663 q 250 232 183 334 l 739 817 m 785 766 l 293 179 q 519 86 382 86 q 772 191 680 86 q 864 483 864 296 q 785 766 864 659 z "},"∞":{"ha":1135,"x_min":56,"x_max":1081,"o":"m 567 327 q 308 140 453 140 q 126 213 196 140 q 56 401 56 285 q 129 590 56 511 q 308 668 202 668 q 570 483 468 668 q 827 668 681 668 q 1010 596 940 668 q 1081 407 1081 524 q 1008 219 1081 298 q 827 140 935 140 q 567 327 674 140 m 611 404 q 827 228 700 228 q 946 277 901 228 q 990 407 990 326 q 944 533 990 483 q 827 583 898 583 q 611 404 710 583 m 525 406 q 308 583 435 583 q 189 532 233 583 q 144 401 144 481 q 190 277 144 327 q 308 228 236 228 q 525 406 427 228 z "},"±":{"ha":950,"x_min":157,"x_max":795,"o":"m 795 442 l 521 442 l 521 168 l 432 168 l 432 442 l 157 442 l 157 532 l 432 532 l 432 806 l 521 806 l 521 532 l 795 532 l 795 442 m 795 0 l 157 0 l 157 90 l 795 90 l 795 0 z "},"≤":{"ha":951,"x_min":157,"x_max":795,"o":"m 768 172 l 184 467 l 184 506 l 768 832 l 768 730 l 332 490 l 332 488 l 768 275 l 768 172 m 795 0 l 157 0 l 157 90 l 795 90 l 795 0 z "},"≥":{"ha":951,"x_min":157,"x_max":795,"o":"m 768 468 l 184 174 l 184 277 l 621 486 l 621 490 l 184 732 l 184 833 l 768 507 l 768 468 m 795 0 l 157 0 l 157 90 l 795 90 l 795 0 z "},"¥":{"ha":749,"x_min":46,"x_max":707,"o":"m 707 972 l 465 528 l 659 528 l 659 433 l 432 433 l 432 293 l 659 293 l 659 199 l 432 199 l 432 0 l 321 0 l 321 199 l 87 199 l 87 293 l 321 293 l 321 433 l 87 433 l 87 528 l 285 528 l 46 972 l 176 972 l 346 624 q 378 549 365 585 l 380 549 q 414 628 389 577 l 585 972 l 707 972 z "},"µ":{"ha":802,"x_min":113,"x_max":711,"o":"m 711 0 l 595 0 q 580 114 580 49 l 576 114 q 387 -16 519 -16 q 226 68 274 -16 l 223 68 l 223 -269 l 113 -269 l 113 694 l 223 694 l 223 270 q 270 133 223 184 q 392 82 317 82 q 525 140 474 82 q 576 297 576 199 l 576 694 l 689 694 l 689 180 q 711 0 689 52 z "},"∂":{"ha":743,"x_min":53,"x_max":697,"o":"m 585 591 l 587 591 q 407 914 605 914 q 240 860 323 914 l 267 966 q 435 1010 347 1010 q 632 920 566 1010 q 697 633 697 831 q 653 321 697 484 q 517 71 609 158 q 301 -16 426 -16 q 121 56 189 -16 q 53 251 53 128 q 153 570 53 435 q 407 705 253 705 q 585 591 528 705 m 576 469 q 420 611 537 611 q 239 505 312 611 q 167 256 167 398 q 205 125 167 173 q 309 77 243 77 q 485 185 412 77 q 576 469 558 294 z "},"∑":{"ha":857,"x_min":35,"x_max":821,"o":"m 821 -318 l 35 -318 l 35 -265 l 493 334 l 60 911 l 60 972 l 793 972 l 793 868 l 227 868 l 629 336 l 205 -214 l 821 -214 l 821 -318 z "},"∏":{"ha":1047,"x_min":127,"x_max":924,"o":"m 924 -318 l 810 -318 l 810 868 l 241 868 l 241 -318 l 127 -318 l 127 972 l 924 972 l 924 -318 z "},"∫":{"ha":749,"x_min":129,"x_max":621,"o":"m 621 930 q 546 949 589 949 q 431 802 431 949 l 431 -95 q 367 -266 431 -202 q 210 -330 304 -330 q 129 -317 159 -330 l 129 -217 q 203 -235 161 -235 q 319 -87 319 -235 l 319 807 q 383 979 319 916 q 540 1043 446 1043 q 621 1031 591 1043 l 621 930 z "},"ª":{"ha":545,"x_min":56,"x_max":467,"o":"m 467 486 l 379 486 l 379 554 l 376 554 q 220 473 323 473 q 101 514 146 473 q 56 617 56 554 q 224 777 56 754 l 379 798 q 277 911 379 911 q 104 853 184 911 l 104 940 q 285 987 180 987 q 418 939 370 987 q 467 802 467 890 l 467 486 m 379 729 l 257 712 q 143 621 143 696 q 169 565 143 587 q 239 543 195 543 q 337 585 294 543 q 379 684 379 626 l 379 729 z "},"º":{"ha":598,"x_min":53,"x_max":545,"o":"m 296 472 q 118 540 182 472 q 53 725 53 608 q 122 917 53 848 q 307 986 192 986 q 481 919 417 986 q 545 735 545 851 q 477 543 545 614 q 296 472 410 472 m 301 911 q 187 863 229 911 q 144 728 144 814 q 185 596 144 644 q 300 549 225 549 q 413 597 371 549 q 454 729 454 646 q 413 863 454 814 q 301 911 372 911 z "},"Ω":{"ha":1048,"x_min":68,"x_max":983,"o":"m 983 0 l 631 0 l 631 100 q 865 529 865 273 q 770 792 865 695 q 528 888 676 888 q 281 792 377 888 q 186 530 186 696 q 420 100 186 273 l 420 0 l 68 0 l 68 100 l 304 100 q 68 532 68 259 q 193 867 68 745 q 524 989 319 989 q 858 868 733 989 q 983 533 983 747 q 747 100 983 260 l 983 100 l 983 0 z "},"æ":{"ha":1156,"x_min":61,"x_max":1100,"o":"m 1100 319 l 608 319 q 670 140 610 203 q 833 77 730 77 q 1051 155 954 77 l 1051 50 q 808 -16 962 -16 q 549 139 625 -16 l 546 139 q 283 -16 448 -16 q 120 38 180 -16 q 61 184 61 93 q 321 404 61 388 l 498 415 q 353 617 498 617 q 129 534 234 617 l 129 646 q 365 711 229 711 q 568 575 522 711 l 571 575 q 812 711 650 711 q 1025 622 949 711 q 1100 376 1100 534 l 1100 319 m 986 414 q 940 564 985 511 q 814 617 895 617 q 679 562 735 617 q 610 414 623 506 l 986 414 m 498 278 l 498 321 l 361 313 q 220 279 267 307 q 174 187 174 252 q 210 107 174 138 q 307 77 245 77 q 443 135 387 77 q 498 278 498 192 z "},"ø":{"ha":814,"x_min":33,"x_max":796,"o":"m 796 711 l 682 589 q 749 354 749 495 q 654 83 749 183 q 403 -16 560 -16 q 187 53 273 -16 l 89 -56 l 33 -3 l 134 109 q 65 339 65 201 q 161 612 65 514 q 420 711 258 711 q 629 644 545 711 l 739 764 l 796 711 m 557 567 q 411 617 503 617 q 241 544 303 617 q 179 343 179 471 q 213 191 179 254 l 557 567 m 604 503 l 260 129 q 410 77 319 77 q 578 148 520 77 q 636 347 636 218 q 604 503 636 438 z "},"¿":{"ha":623,"x_min":71,"x_max":533,"o":"m 362 560 q 310 582 332 560 q 288 635 288 604 q 310 688 288 666 q 362 709 332 709 q 416 688 393 709 q 439 635 439 666 q 416 582 439 604 q 362 560 393 560 m 533 -227 q 319 -293 427 -293 q 138 -227 206 -293 q 71 -57 71 -161 q 208 203 71 87 q 288 284 266 252 q 309 375 309 316 l 309 425 l 412 425 l 412 372 q 387 258 412 307 q 297 157 361 209 q 176 -47 176 58 q 221 -156 176 -114 q 336 -197 266 -197 q 533 -107 449 -197 l 533 -227 z "}," ":{"ha":380,"x_min":0,"x_max":0,"o":""},"¡":{"ha":395,"x_min":122,"x_max":273,"o":"m 197 560 q 144 582 166 560 q 122 635 122 604 q 144 688 122 666 q 197 709 166 709 q 250 688 228 709 q 273 635 273 666 q 250 582 273 604 q 197 560 228 560 m 257 -275 l 140 -275 l 153 423 l 244 423 l 257 -275 z "},"¬":{"ha":950,"x_min":157,"x_max":795,"o":"m 795 172 l 705 172 l 705 464 l 157 464 l 157 554 l 795 554 l 795 172 z "},"√":{"ha":903,"x_min":83,"x_max":755,"o":"m 755 1028 l 492 0 l 415 0 l 199 509 l 83 509 l 83 590 l 262 590 l 449 142 l 675 1028 l 755 1028 z "},"ƒ":{"ha":749,"x_min":64,"x_max":646,"o":"m 646 859 q 572 878 613 878 q 457 769 473 878 l 436 628 l 549 628 l 549 534 l 422 534 l 361 95 q 125 -189 321 -189 q 64 -178 104 -189 l 64 -81 q 122 -95 88 -95 q 251 103 224 -95 l 313 534 l 243 534 l 243 628 l 327 628 l 346 777 q 417 919 357 865 q 567 972 476 972 q 646 960 610 972 l 646 859 z "},"≈":{"ha":951,"x_min":142,"x_max":810,"o":"m 810 651 q 755 497 805 552 q 620 442 705 442 q 440 515 546 442 q 332 562 374 562 q 233 442 237 562 l 142 442 q 196 595 145 540 q 332 651 246 651 q 492 591 404 651 q 625 530 581 530 q 692 564 667 530 q 718 651 717 597 l 810 651 m 810 372 q 755 218 805 273 q 620 163 705 163 q 440 236 546 163 q 332 281 376 281 q 233 163 237 281 l 142 163 q 196 316 145 260 q 332 372 246 372 q 492 313 404 372 q 625 251 581 251 q 692 285 667 251 q 718 372 717 319 l 810 372 z "},"Δ":{"ha":895,"x_min":35,"x_max":863,"o":"m 863 0 l 35 0 l 35 52 l 388 972 l 506 972 l 863 52 l 863 0 m 717 103 l 472 760 q 446 856 450 819 l 444 856 q 416 760 439 823 l 178 103 l 717 103 z "},"«":{"ha":703,"x_min":62,"x_max":643,"o":"m 642 136 l 528 136 l 325 363 l 528 597 l 643 597 l 435 363 l 642 136 m 378 136 l 265 136 l 62 363 l 265 597 l 378 597 l 172 363 l 378 136 z "},"»":{"ha":703,"x_min":61,"x_max":643,"o":"m 643 365 l 439 136 l 327 136 l 532 365 l 327 597 l 439 597 l 643 365 m 379 365 l 176 136 l 61 136 l 270 365 l 61 597 l 176 597 l 379 365 z "},"…":{"ha":1018,"x_min":95,"x_max":924,"o":"m 849 -12 q 797 9 818 -12 q 775 62 775 31 q 797 116 775 94 q 849 139 818 139 q 902 116 880 139 q 924 62 924 94 q 902 9 924 31 q 849 -12 880 -12 m 509 -12 q 455 9 477 -12 q 433 62 433 31 q 455 116 433 94 q 509 139 477 139 q 561 116 539 139 q 583 62 583 94 q 561 9 583 31 q 509 -12 539 -12 m 168 -12 q 116 9 137 -12 q 95 62 95 31 q 116 116 95 94 q 168 139 137 139 q 221 116 199 139 q 243 62 243 94 q 221 9 243 31 q 168 -12 199 -12 z "},"À":{"ha":896,"x_min":15,"x_max":880,"o":"m 880 0 l 754 0 l 651 273 l 239 273 l 142 0 l 15 0 l 388 972 l 506 972 l 880 0 m 614 375 l 461 789 q 446 854 454 810 l 444 854 q 428 789 437 813 l 277 375 l 614 375 m 514 1062 l 428 1062 l 250 1284 l 364 1284 l 514 1062 z "},"Ã":{"ha":896,"x_min":15,"x_max":880,"o":"m 880 0 l 754 0 l 651 273 l 239 273 l 142 0 l 15 0 l 388 972 l 506 972 l 880 0 m 614 375 l 461 789 q 446 854 454 810 l 444 854 q 428 789 437 813 l 277 375 l 614 375 m 663 1223 q 630 1106 663 1152 q 542 1061 597 1061 q 432 1097 494 1061 q 351 1126 380 1126 q 292 1049 292 1126 l 228 1049 q 260 1165 228 1122 q 351 1209 293 1209 q 452 1174 395 1209 q 539 1144 503 1144 q 596 1223 596 1144 l 663 1223 z "},"Õ":{"ha":1047,"x_min":64,"x_max":983,"o":"m 519 -16 q 188 120 313 -16 q 64 475 64 256 q 191 849 64 709 q 536 989 317 989 q 860 853 737 989 q 983 498 983 718 q 857 122 983 260 q 519 -16 731 -16 m 528 886 q 279 775 374 886 q 183 485 183 665 q 276 196 183 305 q 519 86 370 86 q 772 191 680 86 q 864 483 864 295 q 774 781 864 675 q 528 886 685 886 m 748 1222 q 715 1106 748 1151 q 627 1061 683 1061 q 517 1096 579 1061 q 437 1125 465 1125 q 377 1048 377 1125 l 313 1048 q 346 1165 313 1121 q 437 1208 378 1208 q 538 1173 481 1208 q 625 1143 588 1143 q 682 1222 682 1143 l 748 1222 z "},"Œ":{"ha":1293,"x_min":64,"x_max":1227,"o":"m 1227 0 l 739 0 q 646 -9 728 0 q 522 -16 579 -16 q 187 120 311 -16 q 64 475 64 256 q 192 849 64 709 q 541 989 321 989 q 662 982 602 989 q 739 972 738 972 l 1206 972 l 1206 869 l 826 869 l 826 546 l 1177 546 l 1177 444 l 826 444 l 826 103 l 1227 103 l 1227 0 m 712 109 l 712 867 q 530 886 604 886 q 279 773 375 886 q 183 485 183 661 q 278 198 183 310 q 526 86 372 86 q 712 109 605 86 z "},"œ":{"ha":1289,"x_min":65,"x_max":1238,"o":"m 1238 319 l 746 319 q 808 140 748 203 q 972 77 868 77 q 1189 155 1091 77 l 1189 50 q 947 -16 1097 -16 q 688 144 764 -16 l 685 144 q 403 -16 596 -16 q 156 81 248 -16 q 65 338 65 178 q 161 612 65 513 q 420 711 258 711 q 693 551 620 711 l 696 551 q 957 711 777 711 q 1164 622 1090 711 q 1238 379 1238 532 l 1238 319 m 1124 414 q 1077 564 1122 510 q 953 617 1031 617 q 815 559 871 617 q 747 414 758 501 l 1124 414 m 411 617 q 241 544 304 617 q 179 340 179 470 q 241 148 179 218 q 410 77 304 77 q 576 147 517 77 q 635 345 635 216 q 576 547 635 476 q 411 617 517 617 z "},"–":{"ha":694,"x_min":0,"x_max":694,"o":"m 694 343 l 0 343 l 0 431 l 694 431 l 694 343 z "},"—":{"ha":1389,"x_min":0,"x_max":1389,"o":"m 1389 343 l 0 343 l 0 431 l 1389 431 l 1389 343 z "},"“":{"ha":524,"x_min":72,"x_max":453,"o":"m 453 989 l 378 686 l 278 686 l 374 989 l 453 989 m 247 989 l 174 686 l 72 686 l 167 989 l 247 989 z "},"”":{"ha":524,"x_min":75,"x_max":456,"o":"m 456 989 l 361 686 l 281 686 l 354 989 l 456 989 m 250 989 l 155 686 l 75 686 l 150 989 l 250 989 z "},"‘":{"ha":318,"x_min":72,"x_max":247,"o":"m 247 989 l 174 686 l 72 686 l 167 989 l 247 989 z "},"’":{"ha":318,"x_min":75,"x_max":250,"o":"m 250 989 l 155 686 l 75 686 l 150 989 l 250 989 z "},"÷":{"ha":950,"x_min":157,"x_max":795,"o":"m 480 589 q 430 609 450 589 q 410 660 410 630 q 429 712 410 690 q 480 734 449 734 q 550 661 550 734 q 529 609 550 629 q 480 589 509 589 m 795 359 l 157 359 l 157 450 l 795 450 l 795 359 m 477 76 q 427 96 448 76 q 406 146 406 117 q 426 199 406 176 q 477 221 446 221 q 546 147 546 221 q 526 96 546 117 q 477 76 507 76 z "},"◊":{"ha":810,"x_min":73,"x_max":738,"o":"m 738 486 l 431 0 l 379 0 l 73 485 l 379 972 l 431 972 l 738 486 m 647 486 l 406 876 l 164 486 l 406 95 l 647 486 z "},"ÿ":{"ha":672,"x_min":9,"x_max":665,"o":"m 665 694 l 346 -111 q 106 -327 260 -327 q 33 -318 62 -327 l 33 -218 q 99 -231 69 -231 q 225 -130 183 -231 l 281 1 l 9 694 l 133 694 l 321 160 q 335 107 324 150 l 339 107 q 353 159 342 123 l 550 694 l 665 694 m 467 826 q 420 845 440 826 q 401 893 401 864 q 420 941 401 922 q 466 960 439 960 q 514 940 494 960 q 534 893 534 921 q 515 846 534 865 q 467 826 496 826 m 207 826 q 158 846 178 826 q 138 893 138 866 q 158 941 138 922 q 205 960 177 960 q 253 940 233 960 q 273 893 273 921 q 254 846 273 865 q 207 826 234 826 z "},"Ÿ":{"ha":768,"x_min":12,"x_max":760,"o":"m 760 972 l 439 359 l 439 0 l 325 0 l 325 357 l 12 972 l 142 972 l 359 533 q 383 473 363 525 l 385 473 q 411 533 392 496 l 639 972 l 760 972 m 515 1061 q 468 1080 488 1061 q 448 1128 448 1099 q 467 1176 448 1157 q 513 1195 486 1195 q 562 1176 542 1195 q 581 1128 581 1156 q 562 1081 581 1101 q 515 1061 543 1061 m 254 1061 q 206 1081 226 1061 q 186 1128 186 1101 q 205 1176 186 1157 q 252 1195 224 1195 q 300 1176 280 1195 q 321 1128 321 1156 q 301 1081 321 1101 q 254 1061 281 1061 z "},"⁄":{"ha":240,"x_min":-212,"x_max":468,"o":"m 468 972 l -114 0 l -212 0 l 371 972 l 468 972 z "},"€":{"ha":749,"x_min":69,"x_max":688,"o":"m 688 34 q 496 -16 597 -16 q 151 327 207 -16 l 69 327 l 69 422 l 142 422 q 140 474 140 443 q 144 547 140 507 l 69 547 l 69 642 l 158 642 q 289 897 193 805 q 522 989 385 989 q 688 951 614 989 l 688 841 q 514 894 610 894 q 363 826 429 894 q 271 642 297 758 l 608 642 l 608 547 l 256 547 q 255 422 250 480 l 608 422 l 608 327 l 266 327 q 503 79 315 79 q 688 138 592 79 l 688 34 z "},"‹":{"ha":439,"x_min":62,"x_max":379,"o":"m 378 136 l 265 136 l 62 363 l 265 597 l 379 597 l 172 363 l 378 136 z "},"›":{"ha":439,"x_min":62,"x_max":379,"o":"m 379 365 l 175 136 l 62 136 l 269 365 l 62 597 l 175 597 l 379 365 z "},"ﬁ":{"ha":770,"x_min":36,"x_max":680,"o":"m 456 930 q 382 949 423 949 q 265 802 265 949 l 265 694 l 428 694 l 428 600 l 265 600 l 265 0 l 155 0 l 155 600 l 36 600 l 36 694 l 155 694 l 155 807 q 218 980 155 916 q 375 1043 281 1043 q 456 1031 426 1043 l 456 930 m 606 871 q 554 891 575 871 q 533 943 533 911 q 554 994 533 973 q 606 1015 575 1015 q 658 995 636 1015 q 680 943 680 974 q 658 892 680 913 q 606 871 636 871 m 660 0 l 549 0 l 549 694 l 660 694 l 660 0 z "},"ﬂ":{"ha":770,"x_min":36,"x_max":661,"o":"m 456 930 q 382 949 423 949 q 265 802 265 949 l 265 694 l 428 694 l 428 600 l 265 600 l 265 0 l 155 0 l 155 600 l 36 600 l 36 694 l 155 694 l 155 807 q 218 980 155 916 q 375 1043 281 1043 q 456 1031 426 1043 l 456 930 m 661 0 l 551 0 l 551 1028 l 661 1028 l 661 0 z "},"‡":{"ha":521,"x_min":46,"x_max":473,"o":"m 473 391 l 302 391 l 302 167 l 217 167 l 217 391 l 46 391 l 46 464 l 217 464 l 217 678 l 46 678 l 46 753 l 217 753 l 217 970 l 302 970 l 302 753 l 473 753 l 473 678 l 302 678 l 302 464 l 473 464 l 473 391 z "},"·":{"ha":301,"x_min":76,"x_max":228,"o":"m 151 346 q 98 368 120 346 q 76 422 76 391 q 98 476 76 454 q 151 498 120 498 q 205 476 183 498 q 228 422 228 454 q 205 368 228 391 q 151 346 183 346 z "},"‚":{"ha":318,"x_min":60,"x_max":235,"o":"m 235 147 l 139 -155 l 60 -155 l 134 147 l 235 147 z "},"„":{"ha":524,"x_min":60,"x_max":440,"o":"m 440 147 l 346 -155 l 265 -155 l 339 147 l 440 147 m 235 147 l 139 -155 l 60 -155 l 134 147 l 235 147 z "},"‰":{"ha":1681,"x_min":54,"x_max":1626,"o":"m 274 485 q 114 551 174 485 q 54 728 54 617 q 117 918 54 848 q 288 987 180 987 q 449 923 391 987 q 506 742 506 859 q 442 555 506 625 q 274 485 378 485 m 283 913 q 182 865 219 913 q 144 734 144 817 q 181 606 144 652 q 281 560 218 560 q 380 608 345 560 q 416 739 416 655 q 381 867 416 821 q 283 913 345 913 m 926 972 l 301 -7 l 204 -7 l 829 972 l 926 972 m 1394 -15 q 1234 52 1294 -15 q 1175 228 1175 118 q 1239 418 1175 348 q 1408 489 1303 489 q 1569 424 1512 489 q 1626 241 1626 359 q 1563 55 1626 125 q 1394 -15 1499 -15 m 1404 412 q 1302 365 1339 412 q 1265 233 1265 317 q 1302 106 1265 152 q 1401 61 1338 61 q 1501 109 1466 61 q 1537 240 1537 157 q 1501 367 1537 322 q 1404 412 1466 412 m 853 -15 q 693 52 753 -15 q 633 228 633 118 q 697 419 633 349 q 867 489 761 489 q 1027 424 970 489 q 1085 241 1085 359 q 1021 55 1085 125 q 853 -15 957 -15 m 863 412 q 761 365 798 412 q 724 233 724 317 q 760 107 724 153 q 860 61 797 61 q 960 109 924 61 q 996 240 996 157 q 960 368 996 323 q 863 412 924 412 z "},"Â":{"ha":896,"x_min":15,"x_max":880,"o":"m 880 0 l 754 0 l 651 273 l 239 273 l 142 0 l 15 0 l 388 972 l 506 972 l 880 0 m 614 375 l 461 789 q 446 854 454 810 l 444 854 q 428 789 437 813 l 277 375 l 614 375 m 629 1061 l 546 1061 l 435 1217 l 323 1061 l 246 1061 l 392 1286 l 482 1286 l 629 1061 z "},"Ê":{"ha":703,"x_min":127,"x_max":643,"o":"m 643 0 l 127 0 l 127 972 l 621 972 l 621 869 l 241 869 l 241 546 l 593 546 l 593 444 l 241 444 l 241 103 l 643 103 l 643 0 m 561 1063 l 478 1063 l 367 1219 l 255 1063 l 178 1063 l 324 1288 l 414 1288 l 561 1063 z "},"Á":{"ha":896,"x_min":15,"x_max":880,"o":"m 880 0 l 754 0 l 651 273 l 239 273 l 142 0 l 15 0 l 388 972 l 506 972 l 880 0 m 614 375 l 461 789 q 446 854 454 810 l 444 854 q 428 789 437 813 l 277 375 l 614 375 m 588 1284 l 410 1062 l 324 1062 l 475 1284 l 588 1284 z "},"Ë":{"ha":703,"x_min":127,"x_max":643,"o":"m 643 0 l 127 0 l 127 972 l 621 972 l 621 869 l 241 869 l 241 546 l 593 546 l 593 444 l 241 444 l 241 103 l 643 103 l 643 0 m 508 1062 q 461 1081 481 1062 q 441 1129 441 1100 q 460 1177 441 1158 q 507 1196 479 1196 q 555 1176 535 1196 q 574 1129 574 1157 q 555 1082 574 1101 q 508 1062 536 1062 m 248 1062 q 199 1082 219 1062 q 179 1129 179 1102 q 198 1177 179 1158 q 245 1196 218 1196 q 294 1176 273 1196 q 314 1129 314 1157 q 294 1082 314 1101 q 248 1062 275 1062 z "},"È":{"ha":703,"x_min":127,"x_max":643,"o":"m 643 0 l 127 0 l 127 972 l 621 972 l 621 869 l 241 869 l 241 546 l 593 546 l 593 444 l 241 444 l 241 103 l 643 103 l 643 0 m 477 1062 l 391 1062 l 213 1284 l 327 1284 l 477 1062 z "},"Í":{"ha":370,"x_min":81,"x_max":345,"o":"m 241 0 l 127 0 l 127 972 l 241 972 l 241 0 m 345 1284 l 168 1062 l 81 1062 l 233 1284 l 345 1284 z "},"Î":{"ha":370,"x_min":-3,"x_max":380,"o":"m 241 0 l 127 0 l 127 972 l 241 972 l 241 0 m 380 1063 l 297 1063 l 186 1219 l 74 1063 l -3 1063 l 143 1288 l 233 1288 l 380 1063 z "},"Ï":{"ha":370,"x_min":-10,"x_max":385,"o":"m 241 0 l 127 0 l 127 972 l 241 972 l 241 0 m 319 1062 q 272 1081 292 1062 q 252 1129 252 1100 q 271 1177 252 1158 q 317 1196 290 1196 q 366 1176 346 1196 q 385 1129 385 1157 q 366 1082 385 1101 q 319 1062 347 1062 m 58 1062 q 10 1082 30 1062 q -10 1129 -10 1102 q 9 1177 -10 1158 q 56 1196 28 1196 q 104 1176 84 1196 q 125 1129 125 1157 q 105 1082 125 1101 q 58 1062 85 1062 z "},"Ì":{"ha":370,"x_min":18,"x_max":282,"o":"m 241 0 l 127 0 l 127 972 l 241 972 l 241 0 m 282 1062 l 196 1062 l 18 1284 l 132 1284 l 282 1062 z "},"Ó":{"ha":1047,"x_min":64,"x_max":983,"o":"m 519 -16 q 188 120 313 -16 q 64 475 64 256 q 191 849 64 709 q 536 989 317 989 q 860 853 737 989 q 983 498 983 718 q 857 122 983 260 q 519 -16 731 -16 m 528 886 q 279 775 374 886 q 183 485 183 665 q 276 196 183 305 q 519 86 370 86 q 772 191 680 86 q 864 483 864 295 q 774 781 864 675 q 528 886 685 886 m 697 1284 l 519 1062 l 433 1062 l 585 1284 l 697 1284 z "},"Ô":{"ha":1047,"x_min":64,"x_max":983,"o":"m 519 -16 q 188 120 313 -16 q 64 475 64 256 q 191 849 64 709 q 536 989 317 989 q 860 853 737 989 q 983 498 983 718 q 857 122 983 260 q 519 -16 731 -16 m 528 886 q 279 775 374 886 q 183 485 183 665 q 276 196 183 305 q 519 86 370 86 q 772 191 680 86 q 864 483 864 295 q 774 781 864 675 q 528 886 685 886 m 721 1062 l 638 1062 l 527 1218 l 415 1062 l 338 1062 l 484 1287 l 574 1287 l 721 1062 z "},"Ò":{"ha":1047,"x_min":64,"x_max":983,"o":"m 519 -16 q 188 120 313 -16 q 64 475 64 256 q 191 849 64 709 q 536 989 317 989 q 860 853 737 989 q 983 498 983 718 q 857 122 983 260 q 519 -16 731 -16 m 528 886 q 279 775 374 886 q 183 485 183 665 q 276 196 183 305 q 519 86 370 86 q 772 191 680 86 q 864 483 864 295 q 774 781 864 675 q 528 886 685 886 m 597 1062 l 511 1062 l 333 1284 l 447 1284 l 597 1062 z "},"Ú":{"ha":954,"x_min":115,"x_max":839,"o":"m 839 393 q 469 -16 839 -16 q 115 378 115 -16 l 115 972 l 229 972 l 229 385 q 481 86 229 86 q 725 375 725 86 l 725 972 l 839 972 l 839 393 m 651 1284 l 473 1061 l 387 1061 l 538 1284 l 651 1284 z "},"Û":{"ha":954,"x_min":115,"x_max":839,"o":"m 839 393 q 469 -16 839 -16 q 115 378 115 -16 l 115 972 l 229 972 l 229 385 q 481 86 229 86 q 725 375 725 86 l 725 972 l 839 972 l 839 393 m 669 1063 l 587 1063 l 475 1219 l 363 1063 l 287 1063 l 433 1288 l 523 1288 l 669 1063 z "},"Ù":{"ha":954,"x_min":115,"x_max":839,"o":"m 839 393 q 469 -16 839 -16 q 115 378 115 -16 l 115 972 l 229 972 l 229 385 q 481 86 229 86 q 725 375 725 86 l 725 972 l 839 972 l 839 393 m 563 1062 l 477 1062 l 299 1284 l 413 1284 l 563 1062 z "},"ı":{"ha":336,"x_min":113,"x_max":224,"o":"m 224 0 l 113 0 l 113 694 l 224 694 l 224 0 z "},"ˆ":{"ha":515,"x_min":62,"x_max":445,"o":"m 445 826 l 362 826 l 251 982 l 139 826 l 62 826 l 208 1051 l 298 1051 l 445 826 z "},"˜":{"ha":468,"x_min":24,"x_max":458,"o":"m 458 989 q 426 872 458 918 q 338 827 393 827 q 228 863 290 827 q 147 892 176 892 q 87 815 87 892 l 24 815 q 56 931 24 888 q 147 975 89 975 q 248 940 191 975 q 335 910 298 910 q 392 989 392 910 l 458 989 z "},"ˉ":{"ha":431,"x_min":42,"x_max":387,"o":"m 387 826 l 42 826 l 42 900 l 387 900 l 387 826 z "},"˘":{"ha":422,"x_min":25,"x_max":397,"o":"m 397 997 q 337 873 391 920 q 208 826 284 826 q 79 873 129 826 q 25 997 28 920 l 93 997 q 210 892 101 892 q 289 920 256 892 q 328 997 321 949 l 397 997 z "},"˙":{"ha":279,"x_min":73,"x_max":207,"o":"m 140 826 q 93 845 113 826 q 73 893 73 865 q 93 939 73 920 q 140 958 113 958 q 188 940 168 958 q 207 893 207 921 q 188 846 207 865 q 140 826 168 826 z "},"˚":{"ha":389,"x_min":56,"x_max":335,"o":"m 193 798 q 95 833 134 798 q 56 926 56 869 q 96 1024 56 987 q 197 1061 136 1061 q 296 1024 258 1061 q 335 930 335 987 q 294 836 335 873 q 193 798 252 798 m 193 1006 q 138 984 160 1006 q 117 929 117 962 q 193 853 117 853 q 249 875 227 853 q 271 929 271 897 q 249 984 271 962 q 193 1006 227 1006 z "},"¸":{"ha":285,"x_min":35,"x_max":265,"o":"m 265 -174 q 79 -293 265 -293 q 35 -292 53 -293 l 35 -231 q 82 -235 64 -235 q 178 -174 178 -235 q 90 -121 178 -121 q 62 -123 83 -121 l 62 0 l 136 0 l 136 -71 q 230 -98 195 -71 q 265 -174 265 -125 z "},"˝":{"ha":450,"x_min":43,"x_max":439,"o":"m 439 1042 l 273 826 l 207 826 l 349 1042 l 439 1042 m 271 1042 l 109 826 l 43 826 l 183 1042 l 271 1042 z "},"˛":{"ha":257,"x_min":42,"x_max":229,"o":"m 229 0 q 127 -151 127 -96 q 174 -199 127 -199 q 212 -190 194 -199 l 212 -262 q 156 -271 191 -271 q 73 -244 104 -271 q 42 -170 42 -217 q 149 0 42 -87 l 229 0 z "},"ˇ":{"ha":515,"x_min":69,"x_max":450,"o":"m 450 1050 l 305 826 l 216 826 l 69 1050 l 147 1050 l 258 895 l 370 1050 l 450 1050 z "},"Ł":{"ha":654,"x_min":22,"x_max":632,"o":"m 632 0 l 127 0 l 127 371 l 22 305 l 22 408 l 127 473 l 127 972 l 241 972 l 241 545 l 464 682 l 464 578 l 241 442 l 241 103 l 632 103 l 632 0 z "},"ł":{"ha":380,"x_min":15,"x_max":359,"o":"m 359 550 l 241 467 l 241 0 l 130 0 l 130 392 l 15 311 l 15 418 l 130 498 l 130 1028 l 241 1028 l 241 574 l 359 656 l 359 550 z "},"Š":{"ha":690,"x_min":82,"x_max":624,"o":"m 82 39 l 82 174 q 192 110 125 134 q 317 86 258 86 q 505 232 505 86 q 467 333 505 288 q 300 452 429 378 q 134 580 184 517 q 83 729 83 642 q 168 916 83 843 q 392 989 253 989 q 583 954 523 989 l 583 826 q 387 886 506 886 q 252 845 302 886 q 203 739 203 804 q 232 643 203 686 q 392 528 262 600 q 571 392 518 457 q 624 245 624 327 q 540 55 624 125 q 301 -16 456 -16 q 180 0 247 -16 q 82 39 114 17 m 560 1287 l 415 1063 l 326 1063 l 179 1287 l 257 1287 l 368 1132 l 479 1287 l 560 1287 z "},"š":{"ha":553,"x_min":71,"x_max":497,"o":"m 71 25 l 71 144 q 251 77 152 77 q 383 175 383 77 q 354 242 383 216 q 240 305 325 269 q 106 396 140 349 q 72 510 72 442 q 140 654 72 597 q 317 711 209 711 q 465 680 399 711 l 465 567 q 308 617 397 617 q 219 590 252 617 q 186 519 186 563 q 210 452 186 477 q 318 391 234 426 q 459 300 420 347 q 497 186 497 252 q 429 40 497 97 q 243 -16 360 -16 q 71 25 144 -16 m 463 1050 l 317 826 l 228 826 l 81 1050 l 159 1050 l 271 895 l 382 1050 l 463 1050 z "},"Ž":{"ha":792,"x_min":22,"x_max":762,"o":"m 762 945 l 193 103 l 749 103 l 749 0 l 22 0 l 22 32 l 587 869 l 68 869 l 68 972 l 762 972 l 762 945 m 610 1285 l 465 1061 l 376 1061 l 229 1285 l 307 1285 l 418 1130 l 530 1285 l 610 1285 z "},"ž":{"ha":628,"x_min":22,"x_max":597,"o":"m 597 663 l 186 95 l 593 95 l 593 0 l 22 0 l 22 35 l 433 600 l 61 600 l 61 694 l 597 694 l 597 663 m 530 1050 l 385 826 l 296 826 l 149 1050 l 227 1050 l 338 895 l 450 1050 l 530 1050 z "},"¦":{"ha":332,"x_min":117,"x_max":217,"o":"m 217 485 l 117 485 l 117 1062 l 217 1062 l 217 485 m 217 -327 l 117 -327 l 117 251 l 217 251 l 217 -327 z "},"Ð":{"ha":974,"x_min":19,"x_max":910,"o":"m 127 0 l 127 435 l 19 435 l 19 540 l 127 540 l 127 972 l 396 972 q 910 498 910 972 q 767 136 910 272 q 385 0 625 0 l 127 0 m 241 869 l 241 540 l 469 540 l 469 435 l 241 435 l 241 103 l 387 103 q 684 205 578 103 q 791 496 791 308 q 393 869 791 869 l 241 869 z "},"ð":{"ha":777,"x_min":65,"x_max":711,"o":"m 533 656 l 536 659 q 401 839 475 768 l 199 736 l 164 803 l 347 892 q 168 1028 267 963 l 318 1028 q 435 936 369 993 l 631 1034 l 668 970 l 489 882 q 711 357 711 673 q 623 90 711 194 q 385 -15 536 -15 q 150 80 235 -15 q 65 339 65 175 q 153 607 65 504 q 391 709 241 709 q 533 656 474 709 m 395 617 q 237 544 294 617 q 179 343 179 470 q 235 149 179 220 q 392 77 292 77 q 542 151 486 77 q 597 346 597 224 q 395 617 597 617 z "},"Ý":{"ha":768,"x_min":12,"x_max":760,"o":"m 760 972 l 439 359 l 439 0 l 325 0 l 325 357 l 12 972 l 142 972 l 359 533 q 383 473 363 525 l 385 473 q 411 533 392 496 l 639 972 l 760 972 m 564 1284 l 386 1062 l 300 1062 l 451 1284 l 564 1284 z "},"ý":{"ha":672,"x_min":9,"x_max":665,"o":"m 665 694 l 346 -111 q 106 -327 260 -327 q 33 -318 62 -327 l 33 -218 q 99 -231 69 -231 q 225 -130 183 -231 l 281 1 l 9 694 l 133 694 l 321 160 q 335 107 324 150 l 339 107 q 353 159 342 123 l 550 694 l 665 694 m 517 1048 l 339 826 l 253 826 l 404 1048 l 517 1048 z "},"Þ":{"ha":778,"x_min":127,"x_max":722,"o":"m 241 216 l 241 0 l 127 0 l 127 972 l 241 972 l 241 819 l 395 819 q 637 744 552 819 q 722 529 722 668 q 626 303 722 391 q 368 216 530 216 l 241 216 m 241 717 l 241 318 l 361 318 q 541 371 478 318 q 603 522 603 424 q 375 717 603 717 l 241 717 z "},"þ":{"ha":817,"x_min":113,"x_max":751,"o":"m 227 100 l 224 100 l 224 -319 l 113 -319 l 113 1028 l 224 1028 l 224 572 l 227 572 q 467 711 309 711 q 676 617 601 711 q 751 368 751 524 q 667 89 751 193 q 435 -16 582 -16 q 227 100 300 -16 m 224 380 l 224 283 q 280 137 224 197 q 422 77 336 77 q 580 155 523 77 q 637 370 637 232 q 584 551 637 486 q 439 617 530 617 q 283 550 342 617 q 224 380 224 482 z "},"−":{"ha":950,"x_min":157,"x_max":795,"o":"m 795 359 l 157 359 l 157 450 l 795 450 l 795 359 z "},"×":{"ha":950,"x_min":182,"x_max":769,"o":"m 769 175 l 705 111 l 475 342 l 245 111 l 182 175 l 412 404 l 182 635 l 245 699 l 475 468 l 705 699 l 769 635 l 538 404 l 769 175 z "},"¹":{"ha":488,"x_min":86,"x_max":433,"o":"m 433 396 l 92 396 l 92 472 l 217 472 l 217 875 l 86 838 l 86 922 l 305 987 l 305 472 l 433 472 l 433 396 z "},"²":{"ha":509,"x_min":71,"x_max":446,"o":"m 446 396 l 71 396 l 71 473 l 233 633 q 323 740 304 703 q 342 814 342 777 q 316 878 342 853 q 248 903 290 903 q 102 833 168 903 l 102 935 q 261 986 159 986 q 388 941 341 986 q 435 823 435 897 q 296 587 435 720 l 184 481 l 184 479 l 446 479 l 446 396 z "},"³":{"ha":509,"x_min":87,"x_max":444,"o":"m 87 418 l 87 514 q 235 463 157 463 q 320 488 289 463 q 351 557 351 513 q 203 652 351 652 l 146 652 l 146 732 l 200 732 q 334 823 334 732 q 236 904 334 904 q 110 857 172 904 l 110 951 q 254 986 169 986 q 376 946 331 986 q 422 840 422 905 q 323 701 422 738 l 323 699 q 444 562 444 670 q 386 432 444 482 q 232 382 328 382 q 87 418 139 382 z "},"½":{"ha":1293,"x_min":86,"x_max":1185,"o":"m 433 396 l 92 396 l 92 472 l 217 472 l 217 875 l 86 838 l 86 922 l 305 987 l 305 472 l 433 472 l 433 396 m 945 972 l 363 0 l 265 0 l 848 972 l 945 972 m 1185 1 l 810 1 l 810 78 l 972 238 q 1062 344 1043 307 q 1081 418 1081 381 q 1055 483 1081 458 q 987 507 1029 507 q 841 438 907 507 l 841 539 q 1000 591 898 591 q 1127 546 1080 591 q 1174 428 1174 501 q 1035 192 1174 324 l 924 86 l 924 83 l 1185 83 l 1185 1 z "},"¼":{"ha":1259,"x_min":86,"x_max":1157,"o":"m 433 396 l 92 396 l 92 472 l 217 472 l 217 875 l 86 838 l 86 922 l 305 987 l 305 472 l 433 472 l 433 396 m 945 972 l 363 0 l 265 0 l 848 972 l 945 972 m 1157 138 l 1082 138 l 1082 0 l 993 0 l 993 138 l 726 138 l 726 201 l 977 576 l 1082 576 l 1082 212 l 1157 212 l 1157 138 m 996 491 l 993 491 q 967 441 985 470 l 819 212 l 993 212 l 993 431 q 996 491 993 453 z "},"¾":{"ha":1322,"x_min":87,"x_max":1201,"o":"m 87 418 l 87 514 q 235 463 157 463 q 320 488 289 463 q 351 557 351 513 q 203 652 351 652 l 146 652 l 146 732 l 200 732 q 334 823 334 732 q 236 904 334 904 q 110 857 172 904 l 110 951 q 254 986 169 986 q 376 946 331 986 q 422 840 422 905 q 323 701 422 738 l 323 699 q 444 562 444 670 q 386 432 444 482 q 232 382 328 382 q 87 418 139 382 m 993 972 l 411 0 l 313 0 l 896 972 l 993 972 m 1201 138 l 1126 138 l 1126 0 l 1037 0 l 1037 138 l 770 138 l 770 201 l 1021 576 l 1126 576 l 1126 212 l 1201 212 l 1201 138 m 1040 491 l 1037 491 q 1011 441 1029 470 l 863 212 l 1037 212 l 1037 431 q 1040 491 1037 453 z "},"₣":{"ha":678,"x_min":19,"x_max":621,"o":"m 407 189 l 241 189 l 241 0 l 127 0 l 127 189 l 19 189 l 19 294 l 127 294 l 127 972 l 621 972 l 621 869 l 241 869 l 241 533 l 593 533 l 593 431 l 241 431 l 241 294 l 407 294 l 407 189 z "},"Ğ":{"ha":953,"x_min":64,"x_max":854,"o":"m 854 66 q 529 -16 708 -16 q 192 118 321 -16 q 64 473 64 252 q 207 844 64 699 q 568 989 349 989 q 835 937 727 989 l 835 811 q 555 886 717 886 q 288 773 392 886 q 183 481 183 661 q 280 192 183 297 q 543 86 377 86 q 741 132 657 86 l 741 404 l 528 404 l 528 507 l 854 507 l 854 66 m 724 1232 q 664 1108 718 1156 q 535 1061 611 1061 q 406 1108 456 1061 q 352 1232 355 1155 l 420 1232 q 536 1127 428 1127 q 615 1156 583 1127 q 655 1232 648 1184 l 724 1232 z "},"ğ":{"ha":818,"x_min":65,"x_max":705,"o":"m 705 56 q 339 -327 705 -327 q 114 -278 210 -327 l 114 -167 q 338 -232 231 -232 q 594 41 594 -232 l 594 117 l 591 117 q 353 -16 512 -16 q 144 76 223 -16 q 65 325 65 169 q 150 606 65 502 q 383 711 235 711 q 591 598 524 711 l 594 598 l 594 694 l 705 694 l 705 56 m 594 314 l 594 416 q 538 558 594 499 q 399 617 482 617 q 237 542 296 617 q 179 332 179 467 q 235 147 179 216 q 383 77 291 77 q 535 144 477 77 q 594 314 594 210 m 589 997 q 529 873 582 920 q 399 826 475 826 q 270 873 320 826 q 216 997 220 920 l 284 997 q 401 892 292 892 q 480 920 447 892 q 519 997 513 949 l 589 997 z "},"İ":{"ha":370,"x_min":117,"x_max":251,"o":"m 241 0 l 127 0 l 127 972 l 241 972 l 241 0 m 184 1063 q 137 1082 157 1063 q 117 1130 117 1101 q 137 1176 117 1157 q 184 1195 157 1195 q 232 1176 212 1195 q 251 1130 251 1158 q 232 1082 251 1102 q 184 1063 212 1063 z "},"Ş":{"ha":690,"x_min":82,"x_max":624,"o":"m 82 39 l 82 174 q 317 86 180 86 q 505 232 505 86 q 466 334 505 288 q 300 452 427 380 q 133 581 182 518 q 83 729 83 644 q 169 916 83 843 q 392 989 254 989 q 583 954 520 989 l 583 826 q 387 886 509 886 q 252 845 302 886 q 203 739 203 804 q 231 643 203 686 q 392 528 260 600 q 572 392 519 457 q 624 245 624 327 q 554 67 624 137 q 355 -14 484 -2 l 355 -71 q 450 -98 414 -71 q 485 -174 485 -126 q 298 -293 485 -293 q 254 -292 273 -293 l 254 -231 q 301 -235 279 -235 q 397 -174 397 -235 q 309 -121 397 -121 q 282 -123 301 -121 l 282 -16 q 82 39 152 -9 z "},"ş":{"ha":553,"x_min":71,"x_max":497,"o":"m 197 -292 l 197 -231 q 244 -235 221 -235 q 339 -174 339 -235 q 252 -121 339 -121 q 224 -123 244 -121 l 224 -16 q 71 25 132 -9 l 71 144 q 251 77 153 77 q 383 175 383 77 q 354 242 383 216 q 240 305 325 269 q 106 396 140 349 q 72 510 72 442 q 140 654 72 597 q 317 711 209 711 q 465 680 401 711 l 465 567 q 308 617 396 617 q 219 590 252 617 q 186 519 186 563 q 211 450 186 476 q 318 391 237 425 q 459 300 420 347 q 497 186 497 252 q 445 55 497 109 q 298 -13 392 0 l 298 -71 q 392 -99 357 -71 q 427 -174 427 -127 q 241 -293 427 -293 q 197 -292 215 -293 z "},"Ć":{"ha":860,"x_min":64,"x_max":789,"o":"m 789 41 q 521 -16 682 -16 q 189 117 313 -16 q 64 468 64 251 q 204 845 64 701 q 560 989 345 989 q 789 949 699 989 l 789 827 q 559 886 685 886 q 287 774 391 886 q 183 475 183 662 q 280 192 183 297 q 536 86 378 86 q 789 151 682 86 l 789 41 m 673 1284 l 496 1062 l 410 1062 l 561 1284 l 673 1284 z "},"ć":{"ha":642,"x_min":65,"x_max":587,"o":"m 586 32 q 396 -16 506 -16 q 156 80 248 -16 q 65 331 65 177 q 163 607 65 503 q 426 711 262 711 q 587 677 517 711 l 587 563 q 422 617 510 617 q 247 541 315 617 q 179 340 179 465 q 243 148 179 218 q 415 77 307 77 q 586 138 506 77 l 586 32 m 553 1048 l 375 826 l 289 826 l 440 1048 l 553 1048 z "},"Č":{"ha":860,"x_min":64,"x_max":789,"o":"m 789 41 q 521 -16 682 -16 q 189 117 313 -16 q 64 468 64 251 q 204 845 64 701 q 560 989 345 989 q 789 949 699 989 l 789 827 q 559 886 685 886 q 287 774 391 886 q 183 475 183 662 q 280 192 183 297 q 536 86 378 86 q 789 151 682 86 l 789 41 m 715 1286 l 570 1062 l 480 1062 l 334 1286 l 412 1286 l 523 1131 l 634 1286 l 715 1286 z "},"č":{"ha":642,"x_min":65,"x_max":587,"o":"m 586 32 q 396 -16 506 -16 q 156 80 248 -16 q 65 331 65 177 q 163 607 65 503 q 426 711 262 711 q 587 677 517 711 l 587 563 q 422 617 510 617 q 247 541 315 617 q 179 340 179 465 q 243 148 179 218 q 415 77 307 77 q 586 138 506 77 l 586 32 m 582 1050 l 437 826 l 347 826 l 201 1050 l 279 1050 l 390 895 l 501 1050 l 582 1050 z "},"đ":{"ha":818,"x_min":65,"x_max":798,"o":"m 705 0 l 594 0 l 594 118 l 591 118 q 353 -16 514 -16 q 143 77 222 -16 q 65 331 65 170 q 152 607 65 503 q 383 711 239 711 q 591 598 524 711 l 594 598 l 594 815 l 370 815 l 370 906 l 594 906 l 594 1028 l 705 1028 l 705 906 l 798 906 l 798 815 l 705 815 l 705 0 m 594 314 l 594 416 q 538 559 594 500 q 397 617 483 617 q 237 543 296 617 q 179 336 179 468 q 235 147 179 216 q 385 77 291 77 q 536 144 477 77 q 594 314 594 212 z "},"¯":{"ha":576,"x_min":0,"x_max":576,"o":"m 576 947 l 0 947 l 0 1028 l 576 1028 l 576 947 z "},"∙":{"ha":301,"x_min":76,"x_max":228,"o":"m 151 346 q 98 368 120 346 q 76 422 76 391 q 98 476 76 454 q 151 498 120 498 q 205 476 183 498 q 228 422 228 454 q 205 368 228 391 q 151 346 183 346 z "},"Ă":{"ha":896,"x_min":15,"x_max":880,"o":"m 880 0 l 754 0 l 651 273 l 239 273 l 142 0 l 15 0 l 388 972 l 506 972 l 880 0 m 614 375 l 461 789 q 446 854 454 810 l 444 854 q 428 789 437 813 l 277 375 l 614 375 m 632 1234 q 572 1110 625 1157 q 443 1063 519 1063 q 313 1109 363 1063 q 260 1234 263 1156 l 328 1234 q 444 1128 336 1128 q 523 1157 490 1128 q 563 1234 556 1185 l 632 1234 z "},"ă":{"ha":707,"x_min":61,"x_max":610,"o":"m 610 0 l 498 0 l 498 109 l 496 109 q 282 -16 423 -16 q 120 39 178 -16 q 61 184 61 94 q 290 411 61 379 l 498 440 q 355 617 498 617 q 129 532 230 617 l 129 646 q 365 711 231 711 q 610 452 610 711 l 610 0 m 498 351 l 331 328 q 214 290 254 317 q 175 193 175 262 q 211 110 175 142 q 308 77 248 77 q 445 135 391 77 q 498 282 498 193 l 498 351 m 546 997 q 486 873 539 920 q 357 826 433 826 q 227 873 277 826 q 174 997 177 920 l 241 997 q 358 892 250 892 q 437 920 404 892 q 477 997 470 949 l 546 997 z "},"Ą":{"ha":896,"x_min":15,"x_max":910,"o":"m 910 -214 q 823 -229 871 -229 q 742 -198 772 -229 q 711 -113 711 -166 q 754 0 711 -68 l 651 273 l 239 273 l 142 0 l 15 0 l 388 972 l 506 972 l 880 0 l 838 0 q 798 -113 798 -68 q 843 -157 798 -157 q 910 -140 876 -157 l 910 -214 m 614 375 l 461 789 q 446 854 453 812 l 444 854 q 428 789 435 811 l 277 375 l 614 375 z "},"ą":{"ha":707,"x_min":61,"x_max":654,"o":"m 654 -214 q 568 -229 616 -229 q 486 -197 517 -229 q 456 -113 456 -165 q 499 0 456 -68 q 498 109 499 100 l 496 109 q 282 -16 422 -16 q 120 39 179 -16 q 61 184 61 94 q 290 411 61 379 l 498 440 q 355 617 498 617 q 129 532 229 617 l 129 646 q 234 691 164 671 q 365 711 303 711 q 610 452 610 711 l 610 0 l 582 0 q 542 -113 542 -68 q 587 -157 542 -157 q 654 -140 621 -157 l 654 -214 m 498 282 l 498 351 l 331 328 q 214 290 254 317 q 175 193 175 262 q 211 109 175 141 q 308 77 247 77 q 445 136 391 77 q 498 282 498 195 z "},"Ď":{"ha":974,"x_min":127,"x_max":910,"o":"m 127 0 l 127 972 l 396 972 q 910 498 910 972 q 767 137 910 273 q 385 0 625 0 l 127 0 m 241 869 l 241 103 l 387 103 q 684 205 578 103 q 791 496 791 308 q 393 869 791 869 l 241 869 m 652 1286 l 507 1062 l 418 1062 l 271 1286 l 349 1286 l 460 1131 l 572 1286 l 652 1286 z "},"ď":{"ha":920,"x_min":65,"x_max":989,"o":"m 705 0 l 594 0 l 594 118 l 591 118 q 353 -16 514 -16 q 143 77 222 -16 q 65 331 65 170 q 152 607 65 503 q 383 711 239 711 q 591 598 526 711 l 594 598 l 594 1028 l 705 1028 l 705 0 m 594 314 l 594 416 q 538 559 594 500 q 397 617 483 617 q 237 543 296 617 q 179 336 179 468 q 235 147 179 216 q 385 77 291 77 q 536 144 478 77 q 594 314 594 212 m 989 1028 l 877 852 l 793 852 l 873 1028 l 989 1028 z "},"Đ":{"ha":974,"x_min":19,"x_max":910,"o":"m 127 0 l 127 435 l 19 435 l 19 540 l 127 540 l 127 972 l 396 972 q 910 498 910 972 q 767 136 910 272 q 385 0 625 0 l 127 0 m 241 869 l 241 540 l 469 540 l 469 435 l 241 435 l 241 103 l 387 103 q 684 205 578 103 q 791 496 791 308 q 393 869 791 869 l 241 869 z "},"Ę":{"ha":703,"x_min":127,"x_max":643,"o":"m 627 -214 q 541 -229 589 -229 q 459 -197 489 -229 q 429 -113 429 -165 q 472 0 429 -68 l 127 0 l 127 972 l 621 972 l 621 869 l 241 869 l 241 546 l 593 546 l 593 444 l 241 444 l 241 103 l 643 103 l 643 0 l 555 0 q 514 -113 514 -68 q 560 -157 514 -157 q 627 -140 594 -157 l 627 -214 z "},"ę":{"ha":726,"x_min":65,"x_max":671,"o":"m 507 -214 q 420 -229 469 -229 q 339 -198 370 -229 q 308 -113 308 -166 q 342 -15 308 -70 q 138 92 211 -2 q 65 345 65 186 q 157 609 65 507 q 385 711 248 711 q 596 623 522 711 q 671 378 671 534 l 671 319 l 180 319 q 243 140 184 202 q 407 77 302 77 q 623 155 525 77 l 623 50 q 426 -15 548 -4 q 395 -113 395 -71 q 440 -157 395 -157 q 507 -140 473 -157 l 507 -214 m 557 414 q 510 564 556 511 q 383 617 465 617 q 250 561 304 617 q 182 414 195 505 l 557 414 z "},"Ě":{"ha":703,"x_min":127,"x_max":643,"o":"m 643 0 l 127 0 l 127 972 l 621 972 l 621 869 l 241 869 l 241 546 l 593 546 l 593 444 l 241 444 l 241 103 l 643 103 l 643 0 m 570 1286 l 425 1062 l 336 1062 l 189 1286 l 267 1286 l 378 1131 l 490 1286 l 570 1286 z "},"ě":{"ha":726,"x_min":65,"x_max":671,"o":"m 671 319 l 180 319 q 243 140 183 203 q 407 77 302 77 q 623 155 524 77 l 623 50 q 380 -16 531 -16 q 149 78 233 -16 q 65 345 65 173 q 157 609 65 507 q 385 711 249 711 q 596 623 522 711 q 671 378 671 534 l 671 319 m 557 414 q 510 564 556 510 q 383 617 465 617 q 250 561 304 617 q 182 414 195 505 l 557 414 m 572 1050 l 427 826 l 338 826 l 191 1050 l 269 1050 l 380 895 l 492 1050 l 572 1050 z "},"Ĺ":{"ha":654,"x_min":127,"x_max":632,"o":"m 632 0 l 127 0 l 127 972 l 241 972 l 241 103 l 632 103 l 632 0 m 581 1284 l 403 1062 l 317 1062 l 468 1284 l 581 1284 z "},"ĺ":{"ha":336,"x_min":100,"x_max":363,"o":"m 224 0 l 113 0 l 113 1028 l 224 1028 l 224 0 m 363 1342 l 186 1120 l 100 1120 l 251 1342 l 363 1342 z "},"Ľ":{"ha":654,"x_min":127,"x_max":632,"o":"m 632 0 l 127 0 l 127 972 l 241 972 l 241 103 l 632 103 l 632 0 m 614 972 l 501 796 l 418 796 l 497 972 l 614 972 z "},"ľ":{"ha":410,"x_min":113,"x_max":479,"o":"m 224 0 l 113 0 l 113 1028 l 224 1028 l 224 0 m 479 1024 l 367 848 l 283 848 l 363 1024 l 479 1024 z "},"Ŀ":{"ha":654,"x_min":127,"x_max":632,"o":"m 632 0 l 127 0 l 127 972 l 241 972 l 241 103 l 632 103 l 632 0 m 499 452 q 452 471 472 452 q 432 519 432 490 q 452 565 432 546 q 499 584 471 584 q 546 565 527 584 q 566 519 566 547 q 546 471 566 491 q 499 452 527 452 z "},"ŀ":{"ha":437,"x_min":113,"x_max":439,"o":"m 224 0 l 113 0 l 113 1028 l 224 1028 l 224 0 m 372 452 q 325 471 345 452 q 305 519 305 490 q 325 565 305 546 q 372 584 345 584 q 419 565 400 584 q 439 519 439 547 q 419 471 439 491 q 372 452 400 452 z "},"Ń":{"ha":1039,"x_min":127,"x_max":911,"o":"m 911 0 l 772 0 l 271 775 q 240 836 252 804 l 236 836 q 241 703 241 805 l 241 0 l 127 0 l 127 972 l 275 972 l 762 210 q 802 144 793 162 l 804 144 q 798 288 798 186 l 798 972 l 911 972 l 911 0 m 682 1284 l 505 1062 l 418 1062 l 570 1284 l 682 1284 z "},"ń":{"ha":786,"x_min":113,"x_max":689,"o":"m 689 0 l 578 0 l 578 396 q 416 617 578 617 q 278 554 333 617 q 224 396 224 492 l 224 0 l 113 0 l 113 694 l 224 694 l 224 579 l 227 579 q 454 711 305 711 q 629 637 568 711 q 689 425 689 564 l 689 0 m 567 1048 l 389 826 l 303 826 l 454 1048 l 567 1048 z "},"Ň":{"ha":1039,"x_min":127,"x_max":911,"o":"m 911 0 l 772 0 l 271 775 q 240 836 252 804 l 236 836 q 241 703 241 805 l 241 0 l 127 0 l 127 972 l 275 972 l 762 210 q 802 144 793 162 l 804 144 q 798 288 798 186 l 798 972 l 911 972 l 911 0 m 709 1286 l 564 1062 l 475 1062 l 328 1286 l 406 1286 l 517 1131 l 629 1286 l 709 1286 z "},"ň":{"ha":786,"x_min":113,"x_max":689,"o":"m 689 0 l 578 0 l 578 396 q 416 617 578 617 q 278 554 333 617 q 224 396 224 492 l 224 0 l 113 0 l 113 694 l 224 694 l 224 579 l 227 579 q 454 711 305 711 q 629 637 568 711 q 689 425 689 564 l 689 0 m 598 1050 l 453 826 l 363 826 l 217 1050 l 295 1050 l 406 895 l 517 1050 l 598 1050 z "},"Ő":{"ha":1047,"x_min":64,"x_max":983,"o":"m 519 -16 q 188 120 313 -16 q 64 475 64 256 q 191 849 64 709 q 536 989 317 989 q 860 853 737 989 q 983 498 983 718 q 857 122 983 260 q 519 -16 731 -16 m 528 886 q 279 775 374 886 q 183 485 183 665 q 276 196 183 305 q 519 86 370 86 q 772 191 680 86 q 864 483 864 295 q 774 781 864 675 q 528 886 685 886 m 765 1279 l 599 1063 l 533 1063 l 675 1279 l 765 1279 m 597 1279 l 435 1063 l 370 1063 l 509 1279 l 597 1279 z "},"ő":{"ha":814,"x_min":65,"x_max":749,"o":"m 403 -16 q 157 81 249 -16 q 65 339 65 178 q 161 612 65 514 q 419 711 256 711 q 662 615 574 711 q 749 350 749 519 q 655 84 749 184 q 403 -16 561 -16 m 411 617 q 241 544 304 617 q 179 343 179 471 q 242 149 179 220 q 411 77 305 77 q 577 147 519 77 q 635 346 635 217 q 577 547 635 476 q 411 617 519 617 m 655 1042 l 489 826 l 423 826 l 565 1042 l 655 1042 m 488 1042 l 325 826 l 260 826 l 399 1042 l 488 1042 z "},"Ŕ":{"ha":799,"x_min":127,"x_max":753,"o":"m 753 0 l 617 0 l 489 293 q 340 414 436 414 l 241 414 l 241 0 l 127 0 l 127 972 l 418 972 q 635 903 557 972 q 713 713 713 833 q 655 539 713 610 q 497 445 597 468 l 497 442 q 597 327 552 422 l 753 0 m 241 869 l 241 517 l 392 517 q 538 569 483 517 q 594 704 594 621 q 543 826 594 782 q 397 869 492 869 l 241 869 m 578 1284 l 400 1062 l 314 1062 l 465 1284 l 578 1284 z "},"ŕ":{"ha":483,"x_min":113,"x_max":475,"o":"m 475 582 q 391 604 446 604 q 272 537 319 604 q 224 354 224 470 l 224 0 l 113 0 l 113 694 l 224 694 l 224 551 l 227 551 q 299 666 250 625 q 408 707 348 707 q 475 697 452 707 l 475 582 m 467 1048 l 289 826 l 203 826 l 354 1048 l 467 1048 z "},"Ř":{"ha":799,"x_min":127,"x_max":753,"o":"m 753 0 l 617 0 l 489 293 q 340 414 436 414 l 241 414 l 241 0 l 127 0 l 127 972 l 418 972 q 635 903 557 972 q 713 713 713 833 q 655 539 713 610 q 497 445 597 468 l 497 442 q 597 327 552 422 l 753 0 m 241 869 l 241 517 l 392 517 q 538 569 483 517 q 594 704 594 621 q 543 826 594 782 q 397 869 492 869 l 241 869 m 589 1286 l 444 1062 l 354 1062 l 208 1286 l 286 1286 l 397 1131 l 508 1286 l 589 1286 z "},"ř":{"ha":483,"x_min":102,"x_max":484,"o":"m 475 582 q 391 604 446 604 q 272 537 319 604 q 224 354 224 470 l 224 0 l 113 0 l 113 694 l 224 694 l 224 551 l 227 551 q 299 666 250 625 q 408 707 348 707 q 475 697 452 707 l 475 582 m 484 1050 l 338 826 l 249 826 l 102 1050 l 180 1050 l 292 895 l 403 1050 l 484 1050 z "},"Ś":{"ha":690,"x_min":82,"x_max":624,"o":"m 82 39 l 82 174 q 192 110 125 134 q 317 86 258 86 q 505 232 505 86 q 467 333 505 288 q 300 452 429 378 q 134 580 184 517 q 83 729 83 642 q 168 916 83 843 q 392 989 253 989 q 583 954 523 989 l 583 826 q 387 886 506 886 q 252 845 302 886 q 203 739 203 804 q 232 643 203 686 q 392 528 262 600 q 571 392 518 457 q 624 245 624 327 q 540 55 624 125 q 301 -16 456 -16 q 180 0 247 -16 q 82 39 114 17 m 540 1284 l 362 1061 l 276 1061 l 427 1284 l 540 1284 z "},"ś":{"ha":553,"x_min":71,"x_max":497,"o":"m 71 25 l 71 144 q 251 77 152 77 q 383 175 383 77 q 354 242 383 216 q 240 305 325 269 q 106 396 140 349 q 72 510 72 442 q 140 654 72 597 q 317 711 209 711 q 465 680 399 711 l 465 567 q 308 617 397 617 q 219 590 252 617 q 186 519 186 563 q 210 452 186 477 q 318 391 234 426 q 459 300 420 347 q 497 186 497 252 q 429 40 497 97 q 243 -16 360 -16 q 71 25 144 -16 m 466 1048 l 288 826 l 202 826 l 353 1048 l 466 1048 z "},"Ţ":{"ha":728,"x_min":28,"x_max":703,"o":"m 288 -292 l 288 -231 q 335 -235 313 -235 q 431 -174 431 -235 q 343 -121 431 -121 q 315 -123 335 -121 l 315 0 l 308 0 l 308 869 l 28 869 l 28 972 l 703 972 l 703 869 l 422 869 l 422 0 l 389 0 l 389 -71 q 483 -98 448 -71 q 518 -174 518 -126 q 332 -293 518 -293 q 288 -292 306 -293 z "},"ţ":{"ha":471,"x_min":29,"x_max":452,"o":"m 221 -292 l 221 -231 q 269 -235 245 -235 q 363 -174 363 -235 q 277 -121 363 -121 q 248 -123 269 -121 l 248 -2 q 149 189 149 35 l 149 600 l 29 600 l 29 694 l 149 694 l 149 864 q 204 882 151 865 l 260 900 l 260 694 l 435 694 l 435 600 l 260 600 l 260 208 q 283 109 260 138 q 362 79 307 79 q 435 102 403 79 l 435 7 q 331 -15 393 -16 l 322 -15 l 322 -71 q 416 -99 381 -71 q 452 -174 452 -127 q 265 -293 452 -293 q 221 -292 239 -293 z "},"Ť":{"ha":728,"x_min":28,"x_max":703,"o":"m 703 869 l 422 869 l 422 0 l 308 0 l 308 869 l 28 869 l 28 972 l 703 972 l 703 869 m 557 1286 l 412 1062 l 322 1062 l 176 1286 l 254 1286 l 365 1131 l 476 1286 l 557 1286 z "},"ť":{"ha":571,"x_min":29,"x_max":664,"o":"m 435 7 q 331 -15 395 -15 q 149 189 149 -15 l 149 600 l 29 600 l 29 694 l 149 694 l 149 864 l 260 900 l 260 694 l 435 694 l 435 600 l 260 600 l 260 208 q 283 109 260 138 q 362 79 307 79 q 435 102 404 79 l 435 7 m 664 945 l 551 769 l 468 769 l 547 945 l 664 945 z "},"Ů":{"ha":954,"x_min":115,"x_max":839,"o":"m 839 393 q 469 -16 839 -16 q 115 378 115 -16 l 115 972 l 229 972 l 229 385 q 481 86 229 86 q 725 375 725 86 l 725 972 l 839 972 l 839 393 m 463 1063 q 365 1098 404 1063 q 326 1192 326 1134 q 366 1289 326 1253 q 467 1326 406 1326 q 566 1289 528 1326 q 605 1196 605 1253 q 564 1101 605 1139 q 463 1063 522 1063 m 463 1271 q 408 1249 430 1271 q 387 1194 387 1227 q 463 1118 387 1118 q 519 1140 496 1118 q 541 1194 541 1162 q 519 1249 541 1227 q 463 1271 496 1271 z "},"ů":{"ha":786,"x_min":98,"x_max":674,"o":"m 674 0 l 563 0 l 563 110 l 560 110 q 346 -16 491 -16 q 98 279 98 -16 l 98 694 l 208 694 l 208 297 q 376 77 208 77 q 510 137 458 77 q 563 294 563 197 l 563 694 l 674 694 l 674 0 m 382 798 q 284 833 323 798 q 245 926 245 869 q 286 1024 245 987 q 387 1061 326 1061 q 486 1024 448 1061 q 525 930 525 987 q 484 836 525 873 q 382 798 442 798 m 382 1006 q 328 984 350 1006 q 307 929 307 962 q 382 853 307 853 q 439 875 416 853 q 461 929 461 897 q 439 984 461 962 q 382 1006 416 1006 z "},"Ű":{"ha":954,"x_min":115,"x_max":839,"o":"m 839 393 q 469 -16 839 -16 q 115 378 115 -16 l 115 972 l 229 972 l 229 385 q 481 86 229 86 q 725 375 725 86 l 725 972 l 839 972 l 839 393 m 712 1278 l 546 1062 l 480 1062 l 622 1278 l 712 1278 m 545 1278 l 382 1062 l 317 1062 l 456 1278 l 545 1278 z "},"ű":{"ha":786,"x_min":98,"x_max":674,"o":"m 674 0 l 563 0 l 563 110 l 560 110 q 346 -16 491 -16 q 98 279 98 -16 l 98 694 l 208 694 l 208 297 q 376 77 208 77 q 510 137 458 77 q 563 294 563 197 l 563 694 l 674 694 l 674 0 m 616 1042 l 450 826 l 384 826 l 526 1042 l 616 1042 m 448 1042 l 286 826 l 220 826 l 360 1042 l 448 1042 z "},"Ź":{"ha":792,"x_min":22,"x_max":762,"o":"m 762 945 l 193 103 l 749 103 l 749 0 l 22 0 l 22 32 l 587 869 l 68 869 l 68 972 l 762 972 l 762 945 m 589 1285 l 411 1063 l 325 1063 l 476 1285 l 589 1285 z "},"ź":{"ha":628,"x_min":22,"x_max":597,"o":"m 597 663 l 186 95 l 593 95 l 593 0 l 22 0 l 22 35 l 433 600 l 61 600 l 61 694 l 597 694 l 597 663 m 490 1048 l 313 826 l 227 826 l 378 1048 l 490 1048 z "},"Ż":{"ha":792,"x_min":22,"x_max":762,"o":"m 762 945 l 193 103 l 749 103 l 749 0 l 22 0 l 22 32 l 587 869 l 68 869 l 68 972 l 762 972 l 762 945 m 403 1062 q 356 1081 376 1062 q 336 1129 336 1101 q 355 1175 336 1156 q 403 1194 375 1194 q 450 1176 431 1194 q 469 1129 469 1157 q 450 1082 469 1101 q 403 1062 431 1062 z "},"ż":{"ha":628,"x_min":22,"x_max":597,"o":"m 597 663 l 186 95 l 593 95 l 593 0 l 22 0 l 22 35 l 433 600 l 61 600 l 61 694 l 597 694 l 597 663 m 330 826 q 282 845 302 826 q 262 893 262 865 q 282 939 262 920 q 330 958 302 958 q 377 940 357 958 q 396 893 396 921 q 377 846 396 865 q 330 826 357 826 z "},"Γ":{"ha":655,"x_min":127,"x_max":632,"o":"m 632 867 l 242 867 l 242 0 l 127 0 l 127 972 l 632 972 l 632 867 z "},"Θ":{"ha":1047,"x_min":64,"x_max":983,"o":"m 519 -16 q 189 119 313 -16 q 64 475 64 254 q 190 848 64 707 q 536 989 317 989 q 860 853 737 989 q 983 498 983 718 q 858 122 983 260 q 519 -16 732 -16 m 527 886 q 279 775 374 886 q 184 486 184 665 q 277 196 184 305 q 519 86 370 86 q 771 191 680 86 q 863 484 863 295 q 774 780 863 673 q 527 886 685 886 m 706 433 l 342 433 l 342 538 l 706 538 l 706 433 z "},"Φ":{"ha":1047,"x_min":65,"x_max":981,"o":"m 576 126 l 576 -10 l 471 -10 l 471 126 l 441 126 q 169 233 273 126 q 65 511 65 340 q 169 779 65 678 q 443 880 272 880 l 471 880 l 471 981 l 576 981 l 576 880 l 605 880 q 879 779 776 880 q 981 511 981 677 q 877 233 981 340 q 606 126 772 126 l 576 126 m 576 784 l 576 228 l 606 228 q 800 302 730 228 q 870 510 870 377 q 799 710 870 635 q 605 784 727 784 l 576 784 m 471 228 l 471 784 l 443 784 q 249 710 321 784 q 176 509 176 636 q 247 302 176 376 q 441 228 317 228 l 471 228 z "},"α":{"ha":859,"x_min":68,"x_max":825,"o":"m 825 694 l 688 353 q 793 0 699 309 l 677 0 l 625 212 l 623 212 q 505 35 568 87 q 349 -16 441 -16 q 145 78 223 -16 q 68 327 68 172 q 155 606 68 500 q 389 711 242 711 q 642 494 570 711 l 644 494 l 708 694 l 825 694 m 592 353 q 509 557 557 496 q 389 618 460 618 q 240 539 298 618 q 182 334 182 460 q 233 150 182 219 q 362 81 283 81 q 581 321 493 81 l 592 353 z "},"δ":{"ha":822,"x_min":66,"x_max":755,"o":"m 341 646 q 202 766 234 716 q 170 869 170 817 q 241 993 170 946 q 431 1040 312 1040 q 655 987 545 1040 l 655 863 q 431 945 541 945 q 284 860 284 945 q 316 792 284 823 q 487 677 349 762 q 696 498 637 583 q 755 319 755 414 q 661 75 755 166 q 405 -16 566 -16 q 161 75 256 -16 q 66 306 66 166 q 341 646 66 548 m 429 590 q 179 312 179 510 q 244 142 179 205 q 414 79 309 79 q 580 141 518 79 q 642 311 642 203 q 429 590 642 454 z "},"ε":{"ha":620,"x_min":61,"x_max":567,"o":"m 567 15 q 346 -16 479 -16 q 137 39 214 -16 q 61 189 61 95 q 109 298 61 252 q 233 357 156 345 l 233 361 q 131 416 175 372 q 87 516 87 460 q 159 660 87 608 q 353 711 231 711 q 536 681 450 711 l 536 568 q 346 617 446 617 q 201 518 201 617 q 255 435 201 466 q 395 404 309 404 q 475 407 444 404 l 475 308 q 380 311 426 311 q 174 190 174 311 q 223 107 174 138 q 357 77 272 77 q 567 126 469 77 l 567 15 z "},"σ":{"ha":798,"x_min":66,"x_max":783,"o":"m 783 605 l 609 605 q 705 332 705 481 q 620 81 705 178 q 391 -16 534 -16 q 154 81 242 -16 q 66 340 66 178 q 419 694 66 694 l 783 694 l 783 605 m 509 605 l 429 605 q 180 336 180 605 q 238 149 180 219 q 391 79 295 79 q 537 150 484 79 q 591 339 591 220 q 509 605 591 488 z "},"τ":{"ha":677,"x_min":23,"x_max":654,"o":"m 654 605 l 389 605 l 389 186 q 468 90 389 90 q 541 103 505 90 l 541 7 q 448 -8 496 -8 q 279 187 279 -8 l 279 605 l 183 605 q 23 545 106 605 l 23 646 q 186 694 75 694 l 654 694 l 654 605 z "},"φ":{"ha":971,"x_min":65,"x_max":906,"o":"m 557 -16 q 534 -16 555 -19 l 534 -327 l 434 -327 l 434 -16 q 415 -16 418 -19 q 160 81 255 -16 q 65 346 65 179 q 208 694 65 559 l 339 694 q 179 343 179 548 q 244 149 179 218 q 414 79 309 79 l 434 79 l 434 527 q 620 711 434 711 q 827 610 747 711 q 906 339 906 509 q 811 82 906 181 q 557 -16 715 -16 m 534 79 l 557 79 q 726 150 661 79 q 792 345 792 222 q 742 541 792 467 q 623 616 692 616 q 534 528 534 616 l 534 79 z "},"‗":{"ha":576,"x_min":0,"x_max":576,"o":"m 0 -201 l 0 -121 l 576 -121 l 576 -201 l 0 -201 m 0 -392 l 0 -311 l 576 -311 l 576 -392 l 0 -392 z "},"‼":{"ha":667,"x_min":122,"x_max":545,"o":"m 254 972 l 241 274 l 150 274 l 138 972 l 254 972 m 197 -12 q 144 9 166 -12 q 122 62 122 31 q 144 116 122 94 q 197 138 166 138 q 250 116 228 138 q 273 62 273 94 q 250 9 273 31 q 197 -12 228 -12 m 526 972 l 513 274 l 422 274 l 410 972 l 526 972 m 469 -12 q 416 9 438 -12 q 394 62 394 31 q 416 116 394 94 q 469 138 438 138 q 522 116 500 138 q 545 62 545 94 q 522 9 545 31 q 469 -12 500 -12 z "},"ⁿ":{"ha":545,"x_min":75,"x_max":479,"o":"m 161 486 l 75 486 l 75 974 l 161 974 l 161 896 l 164 896 q 307 987 210 987 q 433 937 388 987 q 479 798 479 887 l 479 486 l 391 486 l 391 792 q 288 911 391 911 q 200 870 238 911 q 161 772 161 829 l 161 486 z "},"₧":{"ha":1542,"x_min":127,"x_max":1497,"o":"m 241 368 l 241 0 l 127 0 l 127 972 l 339 972 q 652 682 652 972 q 563 454 652 540 q 314 368 473 368 l 241 368 m 241 869 l 241 471 l 305 471 q 533 677 533 471 q 319 869 533 869 l 241 869 m 1053 7 q 949 -15 1013 -15 q 820 33 860 -15 q 781 189 781 81 l 781 503 l 675 503 l 675 597 l 781 597 l 781 766 l 892 803 l 892 597 l 1053 597 l 1053 503 l 892 503 l 892 208 q 981 79 892 79 q 1053 102 1021 79 l 1053 7 m 1099 25 l 1099 144 q 1274 77 1181 77 q 1383 155 1383 77 q 1362 209 1383 182 q 1173 298 1340 236 q 1100 419 1100 340 q 1162 550 1100 501 q 1324 600 1225 600 q 1465 568 1412 600 l 1465 460 q 1322 506 1400 506 q 1244 485 1274 506 q 1214 429 1214 463 q 1287 361 1214 391 q 1399 313 1351 334 q 1472 254 1447 292 q 1497 165 1497 216 q 1438 32 1497 81 q 1274 -16 1378 -16 q 1099 25 1164 -16 z "},"Ĳ":{"ha":865,"x_min":127,"x_max":746,"o":"m 241 0 l 127 0 l 127 972 l 241 972 l 241 0 m 746 349 q 673 80 746 176 q 477 -16 600 -16 q 383 0 420 -16 l 383 113 q 478 86 420 86 q 632 347 632 86 l 632 972 l 746 972 l 746 349 z "},"ĳ":{"ha":672,"x_min":98,"x_max":578,"o":"m 170 871 q 119 891 140 871 q 98 943 98 911 q 119 995 98 974 q 170 1015 140 1015 q 221 995 200 1015 q 243 943 243 974 q 221 892 243 913 q 170 871 200 871 m 224 0 l 113 0 l 113 694 l 224 694 l 224 0 m 559 29 q 491 -234 559 -142 q 294 -327 422 -327 q 201 -305 246 -327 l 201 -201 q 296 -232 252 -232 q 448 11 448 -232 l 448 694 l 559 694 l 559 29 m 505 871 q 454 891 475 871 q 433 943 433 911 q 454 995 433 974 q 505 1015 475 1015 q 557 995 536 1015 q 578 943 578 974 q 557 892 578 913 q 505 871 536 871 z "},"ŉ":{"ha":842,"x_min":-28,"x_max":745,"o":"m 745 0 l 633 0 l 633 396 q 472 617 633 617 q 334 554 389 617 q 279 396 279 492 l 279 0 l 168 0 l 168 694 l 279 694 l 279 579 l 282 579 q 510 711 361 711 q 684 637 624 711 q 745 425 745 564 l 745 0 m 147 989 l 52 686 l -28 686 l 47 989 l 147 989 z "},"′":{"ha":318,"x_min":88,"x_max":237,"o":"m 237 972 l 167 669 l 88 669 l 146 972 l 237 972 z "},"″":{"ha":524,"x_min":96,"x_max":437,"o":"m 437 972 l 365 669 l 286 669 l 345 972 l 437 972 m 245 972 l 174 669 l 96 669 l 153 972 l 245 972 z "},"℅":{"ha":1116,"x_min":102,"x_max":1051,"o":"m 515 862 q 400 907 461 907 q 272 841 320 907 q 223 689 223 775 q 328 562 223 562 q 466 615 386 562 l 445 519 q 313 484 376 484 q 178 537 227 484 q 130 683 130 591 q 208 899 130 812 q 410 986 285 986 q 536 952 487 986 l 515 862 m 1035 972 l 201 0 l 102 0 l 935 972 l 1035 972 m 789 -14 q 643 42 694 -14 q 593 187 593 98 q 669 398 593 308 q 859 488 745 488 q 1000 435 948 488 q 1051 290 1051 382 q 976 77 1051 168 q 789 -14 901 -14 m 857 414 q 734 342 784 414 q 684 186 684 271 q 792 62 684 62 q 911 129 863 62 q 960 287 960 196 q 857 414 960 414 z "},"ℓ":{"ha":449,"x_min":9,"x_max":437,"o":"m 9 286 l 130 446 l 130 754 q 172 959 130 907 q 289 1011 214 1011 q 397 965 357 1011 q 437 849 437 920 q 244 452 437 717 l 244 170 q 254 95 244 109 q 283 81 263 81 q 418 153 316 81 l 418 43 q 265 -16 342 -16 q 130 147 130 -16 l 130 300 l 76 233 l 9 286 m 244 610 q 331 775 318 736 q 343 849 343 813 q 292 929 343 929 q 258 908 272 929 q 244 764 244 887 l 244 610 z "},"□":{"ha":839,"x_min":99,"x_max":739,"o":"m 99 640 l 739 640 l 739 0 l 99 0 l 99 640 m 150 589 l 150 52 l 688 52 l 688 589 l 150 589 z "},"▪":{"ha":492,"x_min":89,"x_max":403,"o":"m 403 616 l 403 301 l 89 301 l 89 616 l 403 616 z "},"▫":{"ha":492,"x_min":89,"x_max":403,"o":"m 89 616 l 403 616 l 403 301 l 89 301 l 89 616 m 140 564 l 140 353 l 351 353 l 351 564 l 140 564 z "},"●":{"ha":839,"x_min":121,"x_max":718,"o":"m 718 392 q 631 180 718 267 q 420 93 544 93 q 208 180 296 93 q 121 392 121 267 q 210 604 121 517 q 419 690 298 690 q 631 602 543 690 q 718 392 718 514 z "},"◦":{"ha":492,"x_min":76,"x_max":416,"o":"m 416 460 q 367 338 416 388 q 246 289 317 289 q 126 339 176 289 q 76 460 76 389 q 125 579 76 529 q 246 629 175 629 q 366 579 316 629 q 416 460 416 529 m 127 460 q 162 375 127 410 q 247 340 197 340 q 331 375 297 340 q 365 460 365 410 q 330 544 365 509 q 245 578 296 578 q 162 543 197 578 q 127 460 127 508 z "},"Ā":{"ha":896,"x_min":15,"x_max":880,"o":"m 880 0 l 754 0 l 651 273 l 239 273 l 142 0 l 15 0 l 388 972 l 506 972 l 880 0 m 614 375 l 461 789 q 446 854 454 810 l 444 854 q 428 789 437 813 l 277 375 l 614 375 m 618 1063 l 274 1063 l 274 1137 l 618 1137 l 618 1063 z "},"ā":{"ha":707,"x_min":61,"x_max":610,"o":"m 610 0 l 498 0 l 498 109 l 496 109 q 282 -16 423 -16 q 120 39 178 -16 q 61 184 61 94 q 290 411 61 379 l 498 440 q 355 617 498 617 q 129 532 230 617 l 129 646 q 365 711 231 711 q 610 452 610 711 l 610 0 m 498 351 l 331 328 q 214 290 254 317 q 175 193 175 262 q 211 110 175 142 q 308 77 248 77 q 445 135 391 77 q 498 282 498 193 l 498 351 m 543 826 l 198 826 l 198 900 l 543 900 l 543 826 z "},"Ĉ":{"ha":860,"x_min":64,"x_max":789,"o":"m 789 41 q 521 -16 682 -16 q 189 117 313 -16 q 64 468 64 251 q 204 845 64 701 q 560 989 345 989 q 789 949 699 989 l 789 827 q 559 886 685 886 q 287 774 391 886 q 183 475 183 662 q 280 192 183 297 q 536 86 378 86 q 789 151 682 86 l 789 41 m 710 1063 l 627 1063 l 516 1219 l 404 1063 l 328 1063 l 473 1289 l 564 1289 l 710 1063 z "},"ĉ":{"ha":642,"x_min":65,"x_max":587,"o":"m 586 32 q 396 -16 506 -16 q 156 80 248 -16 q 65 331 65 177 q 163 607 65 503 q 426 711 262 711 q 587 677 517 711 l 587 563 q 422 617 510 617 q 247 541 315 617 q 179 340 179 465 q 243 148 179 218 q 415 77 307 77 q 586 138 506 77 l 586 32 m 570 826 l 487 826 l 376 982 l 264 826 l 187 826 l 333 1051 l 423 1051 l 570 826 z "},"Ċ":{"ha":860,"x_min":64,"x_max":789,"o":"m 789 41 q 521 -16 682 -16 q 189 117 313 -16 q 64 468 64 251 q 204 845 64 701 q 560 989 345 989 q 789 949 699 989 l 789 827 q 559 886 685 886 q 287 774 391 886 q 183 475 183 662 q 280 192 183 297 q 536 86 378 86 q 789 151 682 86 l 789 41 m 521 1063 q 474 1082 494 1063 q 454 1130 454 1101 q 473 1176 454 1157 q 521 1195 493 1195 q 568 1176 549 1195 q 587 1130 587 1158 q 568 1082 587 1102 q 521 1063 549 1063 z "},"ċ":{"ha":642,"x_min":65,"x_max":587,"o":"m 586 32 q 396 -16 506 -16 q 156 80 248 -16 q 65 331 65 177 q 163 607 65 503 q 426 711 262 711 q 587 677 517 711 l 587 563 q 422 617 510 617 q 247 541 315 617 q 179 340 179 465 q 243 148 179 218 q 415 77 307 77 q 586 138 506 77 l 586 32 m 404 826 q 356 845 376 826 q 336 893 336 865 q 356 939 336 920 q 404 958 376 958 q 451 940 431 958 q 470 893 470 921 q 451 846 470 865 q 404 826 431 826 z "},"Ē":{"ha":703,"x_min":127,"x_max":643,"o":"m 643 0 l 127 0 l 127 972 l 621 972 l 621 869 l 241 869 l 241 546 l 593 546 l 593 444 l 241 444 l 241 103 l 643 103 l 643 0 m 559 1062 l 214 1062 l 214 1136 l 559 1136 l 559 1062 z "},"ē":{"ha":726,"x_min":65,"x_max":671,"o":"m 671 319 l 180 319 q 243 140 183 203 q 407 77 302 77 q 623 155 524 77 l 623 50 q 380 -16 531 -16 q 149 78 233 -16 q 65 345 65 173 q 157 609 65 507 q 385 711 249 711 q 596 623 522 711 q 671 378 671 534 l 671 319 m 557 414 q 510 564 556 510 q 383 617 465 617 q 250 561 304 617 q 182 414 195 505 l 557 414 m 556 826 l 212 826 l 212 900 l 556 900 l 556 826 z "},"Ĕ":{"ha":703,"x_min":127,"x_max":643,"o":"m 643 0 l 127 0 l 127 972 l 621 972 l 621 869 l 241 869 l 241 546 l 593 546 l 593 444 l 241 444 l 241 103 l 643 103 l 643 0 m 562 1234 q 502 1111 555 1158 q 373 1063 449 1063 q 243 1110 294 1063 q 190 1234 193 1157 l 258 1234 q 374 1129 266 1129 q 453 1158 420 1129 q 493 1234 486 1186 l 562 1234 z "},"ĕ":{"ha":726,"x_min":65,"x_max":671,"o":"m 671 319 l 180 319 q 243 140 183 203 q 407 77 302 77 q 623 155 524 77 l 623 50 q 380 -16 531 -16 q 149 78 233 -16 q 65 345 65 173 q 157 609 65 507 q 385 711 249 711 q 596 623 522 711 q 671 378 671 534 l 671 319 m 557 414 q 510 564 556 510 q 383 617 465 617 q 250 561 304 617 q 182 414 195 505 l 557 414 m 564 997 q 504 873 557 920 q 374 826 450 826 q 245 873 295 826 q 191 997 195 920 l 259 997 q 376 892 267 892 q 455 920 422 892 q 494 997 488 949 l 564 997 z "},"Ė":{"ha":703,"x_min":127,"x_max":643,"o":"m 643 0 l 127 0 l 127 972 l 621 972 l 621 869 l 241 869 l 241 546 l 593 546 l 593 444 l 241 444 l 241 103 l 643 103 l 643 0 m 373 1063 q 326 1082 346 1063 q 306 1130 306 1101 q 326 1176 306 1157 q 373 1195 345 1195 q 420 1176 401 1195 q 439 1130 439 1158 q 420 1082 439 1102 q 373 1063 401 1063 z "},"ė":{"ha":726,"x_min":65,"x_max":671,"o":"m 671 319 l 180 319 q 243 140 183 203 q 407 77 302 77 q 623 155 524 77 l 623 50 q 380 -16 531 -16 q 149 78 233 -16 q 65 345 65 173 q 157 609 65 507 q 385 711 249 711 q 596 623 522 711 q 671 378 671 534 l 671 319 m 557 414 q 510 564 556 510 q 383 617 465 617 q 250 561 304 617 q 182 414 195 505 l 557 414 m 391 826 q 343 845 363 826 q 323 893 323 865 q 343 939 323 920 q 391 958 363 958 q 438 940 418 958 q 457 893 457 921 q 438 846 457 865 q 391 826 418 826 z "},"Ĝ":{"ha":953,"x_min":64,"x_max":854,"o":"m 854 66 q 529 -16 708 -16 q 192 118 321 -16 q 64 473 64 252 q 207 844 64 699 q 568 989 349 989 q 835 937 727 989 l 835 811 q 555 886 717 886 q 288 773 392 886 q 183 481 183 661 q 280 192 183 297 q 543 86 377 86 q 741 132 657 86 l 741 404 l 528 404 l 528 507 l 854 507 l 854 66 m 720 1063 l 637 1063 l 526 1219 l 414 1063 l 337 1063 l 483 1289 l 573 1289 l 720 1063 z "},"ĝ":{"ha":818,"x_min":65,"x_max":705,"o":"m 705 56 q 339 -327 705 -327 q 114 -278 210 -327 l 114 -167 q 338 -232 231 -232 q 594 41 594 -232 l 594 117 l 591 117 q 353 -16 512 -16 q 144 76 223 -16 q 65 325 65 169 q 150 606 65 502 q 383 711 235 711 q 591 598 524 711 l 594 598 l 594 694 l 705 694 l 705 56 m 594 314 l 594 416 q 538 558 594 499 q 399 617 482 617 q 237 542 296 617 q 179 332 179 467 q 235 147 179 216 q 383 77 291 77 q 535 144 477 77 q 594 314 594 210 m 587 826 l 504 826 l 393 982 l 281 826 l 204 826 l 350 1051 l 440 1051 l 587 826 z "},"Ġ":{"ha":953,"x_min":64,"x_max":854,"o":"m 854 66 q 529 -16 708 -16 q 192 118 321 -16 q 64 473 64 252 q 207 844 64 699 q 568 989 349 989 q 835 937 727 989 l 835 811 q 555 886 717 886 q 288 773 392 886 q 183 481 183 661 q 280 192 183 297 q 543 86 377 86 q 741 132 657 86 l 741 404 l 528 404 l 528 507 l 854 507 l 854 66 m 541 1063 q 494 1082 514 1063 q 474 1130 474 1101 q 494 1176 474 1157 q 541 1195 513 1195 q 588 1176 569 1195 q 608 1130 608 1158 q 588 1082 608 1102 q 541 1063 569 1063 z "},"ġ":{"ha":818,"x_min":65,"x_max":705,"o":"m 705 56 q 339 -327 705 -327 q 114 -278 210 -327 l 114 -167 q 338 -232 231 -232 q 594 41 594 -232 l 594 117 l 591 117 q 353 -16 512 -16 q 144 76 223 -16 q 65 325 65 169 q 150 606 65 502 q 383 711 235 711 q 591 598 524 711 l 594 598 l 594 694 l 705 694 l 705 56 m 594 314 l 594 416 q 538 558 594 499 q 399 617 482 617 q 237 542 296 617 q 179 332 179 467 q 235 147 179 216 q 383 77 291 77 q 535 144 477 77 q 594 314 594 210 m 390 826 q 343 845 363 826 q 323 893 323 865 q 342 939 323 920 q 390 958 362 958 q 437 940 418 958 q 456 893 456 921 q 437 846 456 865 q 390 826 418 826 z "},"Ģ":{"ha":953,"x_min":64,"x_max":854,"o":"m 449 -292 l 449 -231 q 496 -235 477 -235 q 591 -174 591 -235 q 505 -121 591 -121 q 476 -123 503 -121 l 476 -14 q 177 136 290 3 q 64 473 64 268 q 207 844 64 699 q 568 989 349 989 q 835 937 726 989 l 835 811 q 555 886 718 886 q 288 773 392 886 q 183 481 183 660 q 280 192 183 297 q 543 86 377 86 q 741 132 656 86 l 741 404 l 528 404 l 528 507 l 854 507 l 854 66 q 550 -16 718 -12 l 550 -71 q 644 -98 609 -71 q 680 -174 680 -125 q 493 -293 680 -293 q 449 -292 467 -293 z "},"ģ":{"ha":818,"x_min":65,"x_max":705,"o":"m 705 56 q 339 -327 705 -327 q 114 -278 208 -327 l 114 -167 q 338 -232 232 -232 q 594 41 594 -232 l 594 117 l 591 117 q 353 -16 513 -16 q 144 77 224 -16 q 65 325 65 170 q 150 606 65 502 q 383 711 235 711 q 591 598 525 711 l 594 598 l 594 694 l 705 694 l 705 56 m 594 314 l 594 416 q 538 558 594 498 q 399 617 483 617 q 237 542 294 617 q 179 332 179 467 q 235 147 179 217 q 383 77 292 77 q 536 143 477 77 q 594 314 594 210 m 319 826 l 432 1002 l 515 1002 l 436 826 l 319 826 z "},"Ĥ":{"ha":986,"x_min":127,"x_max":859,"o":"m 859 0 l 745 0 l 745 444 l 241 444 l 241 0 l 127 0 l 127 972 l 241 972 l 241 546 l 745 546 l 745 972 l 859 972 l 859 0 m 682 1062 l 600 1062 l 488 1218 l 376 1062 l 300 1062 l 446 1287 l 536 1287 l 682 1062 z "},"ĥ":{"ha":786,"x_min":113,"x_max":689,"o":"m 689 0 l 578 0 l 578 400 q 416 617 578 617 q 279 554 335 617 q 224 393 224 492 l 224 0 l 113 0 l 113 1028 l 224 1028 l 224 579 l 227 579 q 454 711 307 711 q 689 428 689 711 l 689 0 m 618 1117 l 536 1117 l 425 1273 l 313 1117 l 236 1117 l 382 1342 l 472 1342 l 618 1117 z "},"Ħ":{"ha":986,"x_min":19,"x_max":967,"o":"m 859 0 l 745 0 l 745 444 l 241 444 l 241 0 l 127 0 l 127 697 l 19 697 l 19 800 l 127 800 l 127 972 l 241 972 l 241 800 l 745 800 l 745 972 l 859 972 l 859 800 l 967 800 l 967 697 l 859 697 l 859 0 m 241 697 l 241 546 l 745 546 l 745 697 l 241 697 z "},"ħ":{"ha":786,"x_min":20,"x_max":689,"o":"m 689 0 l 578 0 l 578 400 q 416 617 578 617 q 279 554 335 617 q 224 393 224 492 l 224 0 l 113 0 l 113 815 l 20 815 l 20 906 l 113 906 l 113 1028 l 224 1028 l 224 906 l 449 906 l 449 815 l 224 815 l 224 579 l 227 579 q 454 711 308 711 q 629 638 568 711 q 689 428 689 566 l 689 0 z "},"Ĩ":{"ha":370,"x_min":-33,"x_max":402,"o":"m 241 0 l 127 0 l 127 972 l 241 972 l 241 0 m 402 1223 q 370 1107 402 1152 q 281 1062 337 1062 q 172 1097 233 1062 q 91 1126 119 1126 q 31 1050 31 1126 l -33 1050 q 0 1166 -33 1122 q 91 1210 33 1210 q 192 1175 135 1210 q 279 1145 242 1145 q 336 1223 336 1145 l 402 1223 z "},"ĩ":{"ha":336,"x_min":-49,"x_max":386,"o":"m 224 0 l 113 0 l 113 694 l 224 694 l 224 0 m 386 989 q 353 872 386 918 q 265 827 321 827 q 155 863 217 827 q 75 892 103 892 q 15 815 15 892 l -49 815 q -16 931 -49 888 q 75 975 16 975 q 176 940 119 975 q 262 910 226 910 q 319 989 319 910 l 386 989 z "},"Ī":{"ha":370,"x_min":13,"x_max":357,"o":"m 241 0 l 127 0 l 127 972 l 241 972 l 241 0 m 357 1062 l 13 1062 l 13 1136 l 357 1136 l 357 1062 z "},"ī":{"ha":336,"x_min":-3,"x_max":342,"o":"m 224 0 l 113 0 l 113 694 l 224 694 l 224 0 m 342 826 l -3 826 l -3 900 l 342 900 l 342 826 z "},"Ĭ":{"ha":370,"x_min":-1,"x_max":371,"o":"m 241 0 l 127 0 l 127 972 l 241 972 l 241 0 m 371 1233 q 311 1109 364 1156 q 182 1062 258 1062 q 52 1109 102 1062 q -1 1233 2 1156 l 66 1233 q 183 1128 75 1128 q 262 1156 229 1128 q 302 1233 295 1185 l 371 1233 z "},"ĭ":{"ha":336,"x_min":-17,"x_max":355,"o":"m 224 0 l 113 0 l 113 694 l 224 694 l 224 0 m 355 997 q 295 873 349 920 q 166 826 242 826 q 37 873 87 826 q -17 997 -14 920 l 51 997 q 168 892 59 892 q 247 920 214 892 q 286 997 279 949 l 355 997 z "},"Į":{"ha":370,"x_min":86,"x_max":285,"o":"m 285 -214 q 199 -229 247 -229 q 117 -198 147 -229 q 86 -113 86 -166 q 129 0 86 -68 l 127 0 l 127 972 l 241 972 l 241 0 l 213 0 q 172 -113 172 -68 q 218 -157 172 -157 q 285 -140 251 -157 l 285 -214 z "},"į":{"ha":336,"x_min":71,"x_max":269,"o":"m 170 871 q 119 891 140 871 q 98 943 98 911 q 119 995 98 974 q 170 1015 140 1015 q 221 995 200 1015 q 243 943 243 974 q 221 892 243 913 q 170 871 199 871 m 269 -214 q 183 -229 231 -229 q 101 -197 132 -229 q 71 -113 71 -165 q 114 0 71 -68 l 113 0 l 113 694 l 224 694 l 224 0 l 197 0 q 157 -113 157 -68 q 202 -157 157 -157 q 269 -140 236 -157 l 269 -214 z "},"Ĵ":{"ha":496,"x_min":14,"x_max":511,"o":"m 376 349 q 303 80 376 176 q 107 -16 230 -16 q 14 0 50 -16 l 14 113 q 109 86 50 86 q 262 347 262 86 l 262 972 l 376 972 l 376 349 m 511 1062 l 429 1062 l 317 1218 l 205 1062 l 129 1062 l 275 1287 l 365 1287 l 511 1062 z "},"ĵ":{"ha":336,"x_min":-134,"x_max":357,"o":"m 357 826 l 275 826 l 164 982 l 52 826 l -25 826 l 121 1051 l 212 1051 l 357 826 m 224 29 q 155 -235 224 -143 q -42 -327 85 -327 q -134 -305 -93 -327 l -134 -201 q -39 -232 -82 -232 q 113 11 113 -232 l 113 694 l 224 694 l 224 29 z "},"Ķ":{"ha":806,"x_min":127,"x_max":804,"o":"m 804 0 l 646 0 l 270 445 q 244 479 249 470 l 241 479 l 241 0 l 127 0 l 127 972 l 241 972 l 241 515 l 244 515 q 270 549 254 530 l 633 972 l 775 972 l 358 506 l 804 0 m 503 -81 l 391 -257 l 307 -257 l 387 -81 l 503 -81 z "},"ķ":{"ha":690,"x_min":113,"x_max":689,"o":"m 689 0 l 533 0 l 227 334 l 224 334 l 224 0 l 113 0 l 113 1028 l 224 1028 l 224 376 l 227 376 l 518 694 l 664 694 l 342 359 l 689 0 m 436 -81 l 323 -257 l 240 -257 l 319 -81 l 436 -81 z "},"ĸ":{"ha":690,"x_min":113,"x_max":689,"o":"m 689 0 l 533 0 l 227 334 l 224 334 l 224 0 l 113 0 l 113 694 l 224 694 l 224 376 l 227 376 l 518 694 l 664 694 l 342 359 l 689 0 z "},"Ļ":{"ha":654,"x_min":127,"x_max":632,"o":"m 289 -292 l 289 -231 q 336 -235 314 -235 q 432 -174 432 -235 q 345 -121 432 -121 q 317 -123 336 -121 l 317 0 l 127 0 l 127 972 l 241 972 l 241 103 l 632 103 l 632 0 l 391 0 l 391 -71 q 485 -98 450 -71 q 519 -174 519 -126 q 333 -293 519 -293 q 289 -292 307 -293 z "},"ļ":{"ha":336,"x_min":93,"x_max":323,"o":"m 93 -292 l 93 -231 q 140 -235 118 -235 q 236 -174 236 -235 q 149 -121 236 -121 q 121 -123 140 -121 l 121 0 l 113 0 l 113 1028 l 224 1028 l 224 0 l 194 0 l 194 -71 q 288 -98 253 -71 q 323 -174 323 -126 q 137 -293 323 -293 q 93 -292 111 -293 z "},"Ņ":{"ha":1039,"x_min":127,"x_max":911,"o":"m 911 0 l 772 0 l 271 775 q 240 836 252 804 l 236 836 q 241 703 241 805 l 241 0 l 127 0 l 127 972 l 275 972 l 762 210 q 802 144 793 162 l 804 144 q 798 288 798 186 l 798 972 l 911 972 l 911 0 m 590 -81 l 477 -257 l 394 -257 l 473 -81 l 590 -81 z "},"ņ":{"ha":786,"x_min":113,"x_max":689,"o":"m 689 0 l 578 0 l 578 396 q 416 617 578 617 q 278 554 333 617 q 224 396 224 492 l 224 0 l 113 0 l 113 694 l 224 694 l 224 579 l 227 579 q 454 711 305 711 q 629 637 568 711 q 689 425 689 564 l 689 0 m 470 -81 l 357 -257 l 274 -257 l 353 -81 l 470 -81 z "},"Ŋ":{"ha":1039,"x_min":127,"x_max":911,"o":"m 271 775 q 240 836 256 797 l 236 836 q 241 703 241 800 l 241 0 l 127 0 l 127 972 l 275 972 l 762 250 q 802 179 764 248 l 804 179 q 798 328 798 228 l 798 972 l 911 972 l 911 43 q 664 -286 911 -286 q 571 -265 612 -286 l 571 -153 q 667 -183 624 -183 q 795 0 795 -183 l 271 775 z "},"ŋ":{"ha":786,"x_min":113,"x_max":689,"o":"m 689 18 q 446 -286 689 -286 q 353 -265 395 -286 l 353 -153 q 449 -183 406 -183 q 578 0 578 -183 l 578 396 q 416 617 578 617 q 279 554 334 617 q 224 396 224 492 l 224 0 l 113 0 l 113 694 l 224 694 l 224 579 l 227 579 q 454 711 306 711 q 689 425 689 711 l 689 18 z "},"Ō":{"ha":1047,"x_min":64,"x_max":983,"o":"m 519 -16 q 188 120 313 -16 q 64 475 64 256 q 191 849 64 709 q 536 989 317 989 q 860 853 737 989 q 983 498 983 718 q 857 122 983 260 q 519 -16 731 -16 m 528 886 q 279 775 374 886 q 183 485 183 665 q 276 196 183 305 q 519 86 370 86 q 772 191 680 86 q 864 483 864 295 q 774 781 864 675 q 528 886 685 886 m 700 1062 l 355 1062 l 355 1136 l 700 1136 l 700 1062 z "},"ō":{"ha":814,"x_min":65,"x_max":749,"o":"m 403 -16 q 157 81 249 -16 q 65 339 65 178 q 161 612 65 514 q 419 711 256 711 q 662 615 574 711 q 749 350 749 519 q 655 84 749 184 q 403 -16 561 -16 m 411 617 q 241 544 304 617 q 179 343 179 471 q 242 149 179 220 q 411 77 305 77 q 577 147 519 77 q 635 346 635 217 q 577 547 635 476 q 411 617 519 617 m 586 826 l 241 826 l 241 900 l 586 900 l 586 826 z "},"Ŏ":{"ha":1047,"x_min":64,"x_max":983,"o":"m 519 -16 q 188 120 313 -16 q 64 475 64 256 q 191 849 64 709 q 536 989 317 989 q 860 853 737 989 q 983 498 983 718 q 857 122 983 260 q 519 -16 731 -16 m 528 886 q 279 775 374 886 q 183 485 183 665 q 276 196 183 305 q 519 86 370 86 q 772 191 680 86 q 864 483 864 295 q 774 781 864 675 q 528 886 685 886 m 717 1234 q 657 1111 710 1158 q 528 1063 604 1063 q 398 1110 448 1063 q 345 1234 348 1157 l 412 1234 q 529 1129 420 1129 q 608 1158 575 1129 q 648 1234 641 1186 l 717 1234 z "},"ŏ":{"ha":814,"x_min":65,"x_max":749,"o":"m 403 -16 q 157 81 249 -16 q 65 339 65 178 q 161 612 65 514 q 419 711 256 711 q 662 615 574 711 q 749 350 749 519 q 655 84 749 184 q 403 -16 561 -16 m 411 617 q 241 544 304 617 q 179 343 179 471 q 242 149 179 220 q 411 77 305 77 q 577 147 519 77 q 635 346 635 217 q 577 547 635 476 q 411 617 519 617 m 607 997 q 547 873 600 920 q 418 826 494 826 q 288 873 338 826 q 235 997 238 920 l 302 997 q 419 892 311 892 q 498 920 465 892 q 538 997 531 949 l 607 997 z "},"Ŗ":{"ha":799,"x_min":127,"x_max":753,"o":"m 753 0 l 617 0 l 489 293 q 340 414 436 414 l 241 414 l 241 0 l 127 0 l 127 972 l 418 972 q 635 903 557 972 q 713 713 713 833 q 655 539 713 610 q 497 445 597 468 l 497 442 q 597 327 552 422 l 753 0 m 241 869 l 241 517 l 392 517 q 538 569 483 517 q 594 704 594 621 q 543 826 594 782 q 397 869 492 869 l 241 869 m 484 -81 l 371 -257 l 288 -257 l 367 -81 l 484 -81 z "},"ŗ":{"ha":483,"x_min":113,"x_max":475,"o":"m 475 582 q 391 604 446 604 q 272 537 319 604 q 224 354 224 470 l 224 0 l 113 0 l 113 694 l 224 694 l 224 551 l 227 551 q 299 666 250 625 q 408 707 348 707 q 475 697 452 707 l 475 582 m 361 -81 l 249 -257 l 165 -257 l 245 -81 l 361 -81 z "},"Ŝ":{"ha":690,"x_min":82,"x_max":624,"o":"m 82 39 l 82 174 q 192 110 125 134 q 317 86 258 86 q 505 232 505 86 q 467 333 505 288 q 300 452 429 378 q 134 580 184 517 q 83 729 83 642 q 168 916 83 843 q 392 989 253 989 q 583 954 523 989 l 583 826 q 387 886 506 886 q 252 845 302 886 q 203 739 203 804 q 232 643 203 686 q 392 528 262 600 q 571 392 518 457 q 624 245 624 327 q 540 55 624 125 q 301 -16 456 -16 q 180 0 247 -16 q 82 39 114 17 m 548 1062 l 465 1062 l 354 1218 l 242 1062 l 165 1062 l 311 1287 l 401 1287 l 548 1062 z "},"ŝ":{"ha":553,"x_min":71,"x_max":497,"o":"m 71 25 l 71 144 q 251 77 152 77 q 383 175 383 77 q 354 242 383 216 q 240 305 325 269 q 106 396 140 349 q 72 510 72 442 q 140 654 72 597 q 317 711 209 711 q 465 680 399 711 l 465 567 q 308 617 397 617 q 219 590 252 617 q 186 519 186 563 q 210 452 186 477 q 318 391 234 426 q 459 300 420 347 q 497 186 497 252 q 429 40 497 97 q 243 -16 360 -16 q 71 25 144 -16 m 482 826 l 399 826 l 288 982 l 176 826 l 100 826 l 245 1051 l 336 1051 l 482 826 z "},"Ŧ":{"ha":728,"x_min":28,"x_max":703,"o":"m 703 869 l 422 869 l 422 540 l 589 540 l 589 435 l 422 435 l 422 0 l 308 0 l 308 435 l 139 435 l 139 540 l 308 540 l 308 869 l 28 869 l 28 972 l 703 972 l 703 869 z "},"ŧ":{"ha":471,"x_min":29,"x_max":435,"o":"m 428 371 l 260 371 l 260 208 q 283 109 260 138 q 362 79 307 79 q 435 102 403 79 l 435 7 q 331 -15 395 -15 q 149 189 149 -15 l 149 371 l 38 371 l 38 461 l 149 461 l 149 600 l 29 600 l 29 694 l 149 694 l 149 864 q 204 882 151 865 l 260 900 l 260 694 l 435 694 l 435 600 l 260 600 l 260 461 l 428 461 l 428 371 z "},"Ũ":{"ha":954,"x_min":115,"x_max":839,"o":"m 839 393 q 469 -16 839 -16 q 115 378 115 -16 l 115 972 l 229 972 l 229 385 q 481 86 229 86 q 725 375 725 86 l 725 972 l 839 972 l 839 393 m 696 1225 q 664 1108 696 1154 q 576 1063 631 1063 q 466 1099 528 1063 q 385 1128 414 1128 q 326 1051 326 1128 l 262 1051 q 294 1167 262 1124 q 385 1211 327 1211 q 486 1176 429 1211 q 573 1146 536 1146 q 630 1225 630 1146 l 696 1225 z "},"ũ":{"ha":786,"x_min":98,"x_max":674,"o":"m 674 0 l 563 0 l 563 110 l 560 110 q 346 -16 491 -16 q 98 279 98 -16 l 98 694 l 208 694 l 208 297 q 376 77 208 77 q 510 137 458 77 q 563 294 563 197 l 563 694 l 674 694 l 674 0 m 604 989 q 571 872 604 918 q 483 827 538 827 q 373 863 435 827 q 292 892 321 892 q 233 815 233 892 l 169 815 q 201 931 169 888 q 292 975 234 975 q 393 940 336 975 q 480 910 444 910 q 537 989 537 910 l 604 989 z "},"Ū":{"ha":954,"x_min":115,"x_max":839,"o":"m 839 393 q 469 -16 839 -16 q 115 378 115 -16 l 115 972 l 229 972 l 229 385 q 481 86 229 86 q 725 375 725 86 l 725 972 l 839 972 l 839 393 m 648 1062 l 303 1062 l 303 1136 l 648 1136 l 648 1062 z "},"ū":{"ha":786,"x_min":98,"x_max":674,"o":"m 674 0 l 563 0 l 563 110 l 560 110 q 346 -16 491 -16 q 98 279 98 -16 l 98 694 l 208 694 l 208 297 q 376 77 208 77 q 510 137 458 77 q 563 294 563 197 l 563 694 l 674 694 l 674 0 m 555 826 l 211 826 l 211 900 l 555 900 l 555 826 z "},"Ŭ":{"ha":954,"x_min":115,"x_max":839,"o":"m 839 393 q 469 -16 839 -16 q 115 378 115 -16 l 115 972 l 229 972 l 229 385 q 481 86 229 86 q 725 375 725 86 l 725 972 l 839 972 l 839 393 m 661 1233 q 601 1109 654 1156 q 471 1062 547 1062 q 342 1109 392 1062 q 288 1233 292 1156 l 356 1233 q 473 1128 364 1128 q 552 1156 519 1128 q 591 1233 585 1185 l 661 1233 z "},"ŭ":{"ha":786,"x_min":98,"x_max":674,"o":"m 674 0 l 563 0 l 563 110 l 560 110 q 346 -16 491 -16 q 98 279 98 -16 l 98 694 l 208 694 l 208 297 q 376 77 208 77 q 510 137 458 77 q 563 294 563 197 l 563 694 l 674 694 l 674 0 m 569 997 q 509 873 562 920 q 380 826 456 826 q 250 873 300 826 q 197 997 200 920 l 264 997 q 381 892 273 892 q 460 920 427 892 q 500 997 493 949 l 569 997 z "},"Ų":{"ha":954,"x_min":115,"x_max":839,"o":"m 595 -214 q 509 -229 557 -229 q 427 -198 458 -229 q 396 -113 396 -166 q 430 -15 396 -71 q 115 378 115 7 l 115 972 l 229 972 l 229 385 q 481 86 229 86 q 725 375 725 86 l 725 972 l 839 972 l 839 393 q 514 -15 839 9 q 483 -113 483 -71 q 528 -157 483 -157 q 595 -140 562 -157 l 595 -214 z "},"ų":{"ha":786,"x_min":98,"x_max":718,"o":"m 718 -214 q 632 -229 680 -229 q 550 -197 581 -229 q 519 -113 519 -165 q 563 0 519 -68 l 563 110 l 560 110 q 346 -16 490 -16 q 98 279 98 -16 l 98 694 l 208 694 l 208 297 q 376 77 208 77 q 510 137 458 77 q 563 294 563 197 l 563 694 l 674 694 l 674 0 l 646 0 q 606 -113 606 -68 q 651 -157 606 -157 q 718 -140 685 -157 l 718 -214 z "},"Ŵ":{"ha":1297,"x_min":18,"x_max":1280,"o":"m 1280 972 l 1006 0 l 872 0 l 672 711 q 656 810 659 756 l 654 810 q 636 712 650 760 l 435 0 l 302 0 l 18 972 l 143 972 l 350 227 q 366 129 363 180 l 370 129 q 391 227 373 165 l 606 972 l 715 972 l 921 221 q 937 130 932 182 l 940 130 q 958 224 943 165 l 1157 972 l 1280 972 m 854 1062 l 771 1062 l 660 1218 l 548 1062 l 471 1062 l 617 1287 l 707 1287 l 854 1062 z "},"ŵ":{"ha":1004,"x_min":16,"x_max":987,"o":"m 987 694 l 779 0 l 664 0 l 521 497 q 510 562 513 526 l 507 562 q 493 498 505 537 l 338 0 l 227 0 l 16 694 l 133 694 l 277 172 q 286 110 283 149 l 292 110 q 304 174 294 140 l 464 694 l 566 694 l 709 171 q 720 109 716 146 l 725 109 q 736 171 726 135 l 878 694 l 987 694 m 705 826 l 623 826 l 511 982 l 399 826 l 323 826 l 469 1051 l 559 1051 l 705 826 z "},"Ŷ":{"ha":768,"x_min":12,"x_max":760,"o":"m 760 972 l 439 359 l 439 0 l 325 0 l 325 357 l 12 972 l 142 972 l 359 533 q 383 473 363 525 l 385 473 q 411 533 392 496 l 639 972 l 760 972 m 578 1061 l 496 1061 l 385 1217 l 273 1061 l 196 1061 l 342 1286 l 432 1286 l 578 1061 z "},"ŷ":{"ha":672,"x_min":9,"x_max":665,"o":"m 665 694 l 346 -111 q 106 -327 260 -327 q 33 -318 62 -327 l 33 -218 q 99 -231 69 -231 q 225 -130 183 -231 l 281 1 l 9 694 l 133 694 l 321 160 q 335 107 324 150 l 339 107 q 353 159 342 123 l 550 694 l 665 694 m 540 826 l 457 826 l 346 982 l 234 826 l 157 826 l 303 1051 l 393 1051 l 540 826 z "},"ſ":{"ha":335,"x_min":113,"x_max":414,"o":"m 414 930 q 340 949 382 949 q 224 802 224 949 l 224 0 l 113 0 l 113 807 q 177 980 113 916 q 334 1043 241 1043 q 414 1031 384 1043 l 414 930 z "},"Ǻ":{"ha":896,"x_min":15,"x_max":880,"o":"m 880 0 l 754 0 l 651 273 l 239 273 l 142 0 l 15 0 l 374 935 q 305 1046 305 970 q 346 1143 305 1106 q 449 1181 387 1181 q 547 1144 509 1181 q 585 1050 585 1107 q 519 937 585 974 l 880 0 m 445 1125 q 389 1104 411 1125 q 368 1050 368 1082 q 445 972 368 972 q 500 995 477 972 q 522 1050 522 1017 q 500 1104 522 1083 q 445 1125 477 1125 m 614 375 l 461 789 q 446 854 454 810 l 444 854 q 428 789 437 813 l 277 375 l 614 375 m 627 1444 l 449 1222 l 363 1222 l 514 1444 l 627 1444 z "},"ǻ":{"ha":707,"x_min":61,"x_max":610,"o":"m 610 0 l 498 0 l 498 109 l 496 109 q 282 -16 423 -16 q 120 39 178 -16 q 61 184 61 94 q 290 411 61 379 l 498 440 q 355 617 498 617 q 129 532 230 617 l 129 646 q 365 711 231 711 q 610 452 610 711 l 610 0 m 498 351 l 331 328 q 214 290 254 317 q 175 193 175 262 q 211 110 175 142 q 308 77 248 77 q 445 135 391 77 q 498 282 498 193 l 498 351 m 351 755 q 253 791 292 755 q 214 884 214 827 q 254 982 214 945 q 355 1019 294 1019 q 454 982 416 1019 q 493 888 493 945 q 452 793 493 831 q 351 755 410 755 m 351 964 q 296 942 318 964 q 275 887 275 920 q 351 811 275 811 q 407 833 385 811 q 429 887 429 854 q 407 942 429 920 q 351 964 385 964 m 537 1284 l 359 1062 l 273 1062 l 425 1284 l 537 1284 z "},"Ǽ":{"ha":1195,"x_min":7,"x_max":1131,"o":"m 1131 0 l 616 0 l 616 273 l 270 273 l 139 0 l 7 0 l 481 972 l 1108 972 l 1108 869 l 729 869 l 729 546 l 1081 546 l 1081 444 l 729 444 l 729 103 l 1131 103 l 1131 0 m 616 375 l 616 869 l 551 869 l 317 375 l 616 375 m 909 1284 l 731 1062 l 645 1062 l 796 1284 l 909 1284 z "},"ǽ":{"ha":1156,"x_min":61,"x_max":1100,"o":"m 1100 319 l 608 319 q 670 140 610 203 q 833 77 730 77 q 1051 155 954 77 l 1051 50 q 808 -16 962 -16 q 549 139 625 -16 l 546 139 q 283 -16 448 -16 q 120 38 180 -16 q 61 184 61 93 q 321 404 61 388 l 498 415 q 353 617 498 617 q 129 534 234 617 l 129 646 q 365 711 229 711 q 568 575 522 711 l 571 575 q 812 711 650 711 q 1025 622 949 711 q 1100 376 1100 534 l 1100 319 m 986 414 q 940 564 985 511 q 814 617 895 617 q 679 562 735 617 q 610 414 623 506 l 986 414 m 498 278 l 498 321 l 361 313 q 220 279 267 307 q 174 187 174 252 q 210 107 174 138 q 307 77 245 77 q 443 135 387 77 q 498 278 498 192 m 760 1048 l 583 826 l 496 826 l 648 1048 l 760 1048 z "},"Ǿ":{"ha":1047,"x_min":64,"x_max":983,"o":"m 220 89 l 117 -35 l 64 9 l 171 139 q 64 475 64 271 q 190 848 64 707 q 536 989 317 989 q 808 901 694 989 l 900 1011 l 953 968 l 859 856 q 983 498 983 720 q 857 122 983 260 q 519 -16 731 -16 q 220 89 339 -16 m 739 817 q 528 886 654 886 q 278 774 374 886 q 183 485 183 663 q 250 232 183 334 l 739 817 m 785 766 l 293 179 q 519 86 382 86 q 772 191 680 86 q 864 483 864 296 q 785 766 864 659 m 699 1284 l 521 1062 l 435 1062 l 586 1284 l 699 1284 z "},"ǿ":{"ha":814,"x_min":33,"x_max":796,"o":"m 796 711 l 682 589 q 749 354 749 495 q 654 83 749 183 q 403 -16 560 -16 q 187 53 273 -16 l 89 -56 l 33 -3 l 134 109 q 65 339 65 201 q 161 612 65 514 q 420 711 258 711 q 629 644 545 711 l 739 764 l 796 711 m 557 567 q 411 617 503 617 q 241 544 303 617 q 179 343 179 471 q 213 191 179 254 l 557 567 m 604 503 l 260 129 q 410 77 319 77 q 578 148 520 77 q 636 347 636 218 q 604 503 636 438 m 589 1048 l 411 826 l 325 826 l 476 1048 l 589 1048 z "},"·":{"ha":301,"x_min":76,"x_max":228,"o":"m 151 346 q 98 368 120 346 q 76 422 76 391 q 98 476 76 454 q 151 498 120 498 q 205 476 183 498 q 228 422 228 454 q 205 368 228 391 q 151 346 183 346 z "},"Ẁ":{"ha":1297,"x_min":18,"x_max":1280,"o":"m 1280 972 l 1006 0 l 872 0 l 672 711 q 656 810 659 756 l 654 810 q 636 712 650 760 l 435 0 l 302 0 l 18 972 l 143 972 l 350 227 q 366 129 363 180 l 370 129 q 391 227 373 165 l 606 972 l 715 972 l 921 221 q 937 130 932 182 l 940 130 q 958 224 943 165 l 1157 972 l 1280 972 m 775 1062 l 689 1062 l 511 1284 l 625 1284 l 775 1062 z "},"ẁ":{"ha":1004,"x_min":16,"x_max":987,"o":"m 987 694 l 779 0 l 664 0 l 521 497 q 510 562 513 526 l 507 562 q 493 498 505 537 l 338 0 l 227 0 l 16 694 l 133 694 l 277 172 q 286 110 283 149 l 292 110 q 304 174 294 140 l 464 694 l 566 694 l 709 171 q 720 109 716 146 l 725 109 q 736 171 726 135 l 878 694 l 987 694 m 616 826 l 530 826 l 352 1048 l 466 1048 l 616 826 z "},"Ẃ":{"ha":1297,"x_min":18,"x_max":1280,"o":"m 1280 972 l 1006 0 l 872 0 l 672 711 q 656 810 659 756 l 654 810 q 636 712 650 760 l 435 0 l 302 0 l 18 972 l 143 972 l 350 227 q 366 129 363 180 l 370 129 q 391 227 373 165 l 606 972 l 715 972 l 921 221 q 937 130 932 182 l 940 130 q 958 224 943 165 l 1157 972 l 1280 972 m 804 1284 l 627 1062 l 541 1062 l 692 1284 l 804 1284 z "},"ẃ":{"ha":1004,"x_min":16,"x_max":987,"o":"m 987 694 l 779 0 l 664 0 l 521 497 q 510 562 513 526 l 507 562 q 493 498 505 537 l 338 0 l 227 0 l 16 694 l 133 694 l 277 172 q 286 110 283 149 l 292 110 q 304 174 294 140 l 464 694 l 566 694 l 709 171 q 720 109 716 146 l 725 109 q 736 171 726 135 l 878 694 l 987 694 m 662 1048 l 484 826 l 398 826 l 549 1048 l 662 1048 z "},"Ẅ":{"ha":1297,"x_min":18,"x_max":1280,"o":"m 1280 972 l 1006 0 l 872 0 l 672 711 q 656 810 659 756 l 654 810 q 636 712 650 760 l 435 0 l 302 0 l 18 972 l 143 972 l 350 227 q 366 129 363 180 l 370 129 q 391 227 373 165 l 606 972 l 715 972 l 921 221 q 937 130 932 182 l 940 130 q 958 224 943 165 l 1157 972 l 1280 972 m 780 1063 q 733 1082 753 1063 q 713 1130 713 1101 q 732 1177 713 1158 q 779 1196 751 1196 q 827 1177 807 1196 q 846 1130 846 1158 q 827 1082 846 1102 q 780 1063 808 1063 m 519 1063 q 471 1083 491 1063 q 451 1130 451 1103 q 470 1177 451 1158 q 517 1196 490 1196 q 566 1177 545 1196 q 586 1130 586 1158 q 566 1082 586 1102 q 519 1063 547 1063 z "},"ẅ":{"ha":1004,"x_min":16,"x_max":987,"o":"m 987 694 l 779 0 l 664 0 l 521 497 q 510 562 513 526 l 507 562 q 493 498 505 537 l 338 0 l 227 0 l 16 694 l 133 694 l 277 172 q 286 110 283 149 l 292 110 q 304 174 294 140 l 464 694 l 566 694 l 709 171 q 720 109 716 146 l 725 109 q 736 171 726 135 l 878 694 l 987 694 m 633 826 q 587 845 606 826 q 567 893 567 864 q 586 941 567 922 q 632 960 605 960 q 680 940 661 960 q 700 893 700 921 q 681 846 700 865 q 633 826 662 826 m 373 826 q 325 846 345 826 q 304 893 304 866 q 324 941 304 922 q 371 960 343 960 q 419 940 399 960 q 439 893 439 921 q 420 846 439 865 q 373 826 400 826 z "},"Ỳ":{"ha":768,"x_min":12,"x_max":760,"o":"m 760 972 l 439 359 l 439 0 l 325 0 l 325 357 l 12 972 l 142 972 l 359 533 q 383 473 363 525 l 385 473 q 411 533 392 496 l 639 972 l 760 972 m 486 1062 l 400 1062 l 222 1284 l 336 1284 l 486 1062 z "},"ỳ":{"ha":672,"x_min":9,"x_max":665,"o":"m 665 694 l 346 -111 q 106 -327 260 -327 q 33 -318 62 -327 l 33 -218 q 99 -231 69 -231 q 225 -130 183 -231 l 281 1 l 9 694 l 133 694 l 321 160 q 335 107 324 150 l 339 107 q 353 159 342 123 l 550 694 l 665 694 m 427 826 l 340 826 l 163 1048 l 277 1048 l 427 826 z "},"‛":{"ha":318,"x_min":75,"x_max":250,"o":"m 250 686 l 171 686 l 75 989 l 175 989 l 250 686 z "},"‾":{"ha":576,"x_min":0,"x_max":576,"o":"m 576 947 l 0 947 l 0 1028 l 576 1028 l 576 947 z "},"₤":{"ha":749,"x_min":72,"x_max":682,"o":"m 532 331 l 331 331 l 331 325 q 200 95 331 160 l 682 95 l 682 0 l 72 0 l 72 92 q 220 304 220 140 l 220 331 l 86 331 l 86 426 l 220 426 l 220 518 l 86 518 l 86 614 l 220 614 l 220 699 q 294 907 220 826 q 485 989 368 989 q 629 961 565 989 l 629 856 q 486 895 562 895 q 331 686 331 895 l 331 614 l 532 614 l 532 518 l 331 518 l 331 426 l 532 426 l 532 331 z "},"℮":{"ha":833,"x_min":58,"x_max":776,"o":"m 776 359 l 214 359 l 215 109 q 416 26 296 26 q 684 193 589 26 l 732 164 q 588 19 662 61 q 416 -24 513 -24 q 156 86 255 -24 q 58 359 58 195 q 158 637 58 532 q 414 743 259 743 q 663 647 560 743 q 776 359 766 551 m 618 410 l 618 611 q 413 694 530 694 q 214 611 294 694 l 214 410 l 618 410 z "},"⅛":{"ha":1280,"x_min":86,"x_max":1190,"o":"m 433 396 l 92 396 l 92 472 l 217 472 l 217 875 l 86 838 l 86 922 l 305 987 l 305 472 l 433 472 l 433 396 m 945 972 l 363 0 l 265 0 l 848 972 l 945 972 m 1079 304 q 1190 151 1190 255 q 1134 31 1190 75 q 977 -14 1078 -14 q 836 30 892 -14 q 779 146 779 74 q 889 304 779 250 q 800 439 800 354 q 852 549 800 507 q 993 590 904 590 q 1121 551 1072 590 q 1171 448 1171 511 q 1079 304 1171 357 m 985 345 q 1077 439 1077 384 q 987 509 1077 509 q 920 490 946 509 q 894 441 894 471 q 985 345 894 383 m 981 264 q 873 149 873 227 q 905 91 873 115 q 986 68 937 68 q 1065 91 1034 68 q 1097 146 1097 114 q 981 264 1097 224 z "},"⅜":{"ha":1280,"x_min":87,"x_max":1238,"o":"m 87 418 l 87 514 q 235 463 157 463 q 320 488 289 463 q 351 557 351 513 q 203 652 351 652 l 146 652 l 146 732 l 200 732 q 334 823 334 732 q 236 904 334 904 q 110 857 172 904 l 110 951 q 254 986 169 986 q 376 946 331 986 q 422 840 422 905 q 323 701 422 738 l 323 699 q 444 562 444 670 q 386 432 444 482 q 232 382 328 382 q 87 418 139 382 m 994 972 l 412 0 l 314 0 l 897 972 l 994 972 m 1128 304 q 1238 151 1238 255 q 1183 31 1238 75 q 1026 -14 1127 -14 q 885 30 941 -14 q 828 146 828 74 q 938 304 828 250 q 849 439 849 354 q 901 549 849 507 q 1042 590 953 590 q 1170 551 1121 590 q 1219 448 1219 511 q 1128 304 1219 357 m 1034 345 q 1126 439 1126 384 q 1036 509 1126 509 q 969 490 995 509 q 943 441 943 471 q 1034 345 943 383 m 1029 264 q 922 149 922 227 q 954 91 922 115 q 1035 68 985 68 q 1114 91 1083 68 q 1145 146 1145 114 q 1029 264 1145 224 z "},"⅝":{"ha":1290,"x_min":97,"x_max":1240,"o":"m 97 411 l 97 510 q 233 463 174 463 q 325 493 290 463 q 359 571 359 524 q 220 674 359 674 l 115 669 l 115 975 l 425 975 l 425 891 l 202 891 l 202 755 q 389 713 326 764 q 452 575 452 662 q 393 436 452 490 q 231 382 334 382 q 97 411 147 382 m 995 972 l 413 0 l 315 0 l 898 972 l 995 972 m 1129 304 q 1240 151 1240 255 q 1184 31 1240 75 q 1027 -14 1128 -14 q 886 30 943 -14 q 829 146 829 74 q 939 304 829 250 q 850 439 850 354 q 902 549 850 507 q 1043 590 954 590 q 1172 551 1122 590 q 1221 448 1221 511 q 1129 304 1221 357 m 1035 345 q 1127 439 1127 384 q 1037 509 1127 509 q 970 490 996 509 q 944 441 944 471 q 1035 345 944 383 m 1031 264 q 923 149 923 227 q 955 91 923 115 q 1036 68 987 68 q 1116 91 1084 68 q 1147 146 1147 114 q 1031 264 1147 224 z "},"⅞":{"ha":1239,"x_min":110,"x_max":1148,"o":"m 278 396 l 179 396 l 397 899 l 110 899 l 110 979 l 513 979 l 513 943 l 278 396 m 903 972 l 321 0 l 224 0 l 806 972 l 903 972 m 1038 304 q 1148 151 1148 255 q 1093 31 1148 75 q 936 -14 1037 -14 q 794 30 851 -14 q 738 146 738 74 q 848 304 738 250 q 759 439 759 354 q 811 549 759 507 q 951 590 863 590 q 1080 551 1031 590 q 1129 448 1129 511 q 1038 304 1129 357 m 943 345 q 1036 439 1036 384 q 945 509 1036 509 q 879 490 905 509 q 852 441 852 471 q 943 345 852 383 m 939 264 q 831 149 831 227 q 863 91 831 115 q 945 68 895 68 q 1024 91 993 68 q 1055 146 1055 114 q 939 264 1055 224 z "},"":{"ha":541,"x_min":149,"x_max":345,"o":"m 345 -81 l 232 -257 l 149 -257 l 228 -81 l 345 -81 z "},"":{"ha":541,"x_min":149,"x_max":345,"o":"m 345 -81 l 232 -257 l 149 -257 l 228 -81 l 345 -81 z "},";":{"ha":301,"x_min":26,"x_max":229,"o":"m 153 559 q 99 581 121 559 q 77 635 77 604 q 99 688 77 666 q 153 709 121 709 q 207 688 184 709 q 229 635 229 666 q 207 581 229 604 q 153 559 184 559 m 214 155 l 106 -179 l 26 -179 l 106 155 l 214 155 z "},"΄":{"ha":378,"x_min":140,"x_max":322,"o":"m 322 1042 l 203 796 l 140 796 l 209 1042 l 322 1042 z "},"΅":{"ha":378,"x_min":-26,"x_max":437,"o":"m 319 1052 l 200 806 l 137 806 l 205 1052 l 319 1052 m 370 830 q 323 849 342 830 q 304 897 304 868 q 323 944 304 925 q 369 963 342 963 q 417 944 397 963 q 437 897 437 924 q 417 849 437 868 q 370 830 397 830 m 41 830 q -6 849 14 830 q -26 897 -26 868 q -6 944 -26 925 q 41 963 14 963 q 89 944 68 963 q 109 897 109 924 q 89 849 109 868 q 41 830 69 830 z "},"Ά":{"ha":896,"x_min":15,"x_max":880,"o":"m 880 0 l 754 0 l 651 273 l 239 273 l 142 0 l 15 0 l 388 972 l 506 972 l 880 0 m 614 375 l 461 789 q 446 854 454 810 l 444 854 q 428 789 437 813 l 277 375 l 614 375 m 213 972 l 94 726 l 31 726 l 100 972 l 213 972 z "},"Έ":{"ha":792,"x_min":-40,"x_max":731,"o":"m 731 0 l 216 0 l 216 972 l 709 972 l 709 869 l 330 869 l 330 546 l 681 546 l 681 444 l 330 444 l 330 103 l 731 103 l 731 0 m 142 972 l 24 726 l -40 726 l 29 972 l 142 972 z "},"Ή":{"ha":1075,"x_min":-40,"x_max":947,"o":"m 947 0 l 833 0 l 833 444 l 330 444 l 330 0 l 216 0 l 216 972 l 330 972 l 330 546 l 833 546 l 833 972 l 947 972 l 947 0 m 142 972 l 24 726 l -40 726 l 29 972 l 142 972 z "},"Ί":{"ha":458,"x_min":-40,"x_max":330,"o":"m 330 0 l 216 0 l 216 972 l 330 972 l 330 0 m 142 972 l 24 726 l -40 726 l 29 972 l 142 972 z "},"Ό":{"ha":1112,"x_min":-32,"x_max":1053,"o":"m 589 -16 q 257 120 382 -16 q 133 475 133 256 q 260 849 133 709 q 605 989 387 989 q 929 853 806 989 q 1053 498 1053 718 q 926 122 1053 260 q 589 -16 800 -16 m 597 886 q 348 775 444 886 q 252 485 252 665 q 346 196 252 305 q 589 86 439 86 q 841 191 749 86 q 933 483 933 295 q 844 781 933 675 q 597 886 754 886 m 151 972 l 32 726 l -32 726 l 37 972 l 151 972 z "},"Ύ":{"ha":926,"x_min":-52,"x_max":917,"o":"m 917 972 l 596 359 l 596 0 l 482 0 l 482 357 l 170 972 l 299 972 l 517 533 q 541 473 521 525 l 543 473 q 568 533 549 496 l 796 972 l 917 972 m 130 972 l 12 726 l -52 726 l 17 972 l 130 972 z "},"Ώ":{"ha":1147,"x_min":-32,"x_max":1082,"o":"m 1082 0 l 730 0 l 730 100 q 964 529 964 273 q 869 792 964 695 q 627 888 775 888 q 380 792 476 888 q 285 530 285 696 q 519 100 285 273 l 519 0 l 167 0 l 167 100 l 403 100 q 167 532 167 259 q 292 867 167 745 q 623 989 418 989 q 957 868 832 989 q 1082 533 1082 747 q 846 100 1082 260 l 1082 100 l 1082 0 m 151 972 l 32 726 l -32 726 l 37 972 l 151 972 z "},"ΐ":{"ha":370,"x_min":-53,"x_max":410,"o":"m 353 7 q 271 -8 311 -8 q 113 180 113 -8 l 113 694 l 223 694 l 223 183 q 292 90 223 90 q 353 102 320 90 l 353 7 m 292 1052 l 173 806 l 110 806 l 178 1052 l 292 1052 m 342 830 q 296 849 315 830 q 277 897 277 868 q 296 944 277 925 q 342 963 315 963 q 390 944 370 963 q 410 897 410 924 q 390 849 410 868 q 342 830 370 830 m 14 830 q -33 849 -14 830 q -53 897 -53 868 q -33 944 -53 925 q 14 963 -14 963 q 61 944 41 963 q 81 897 81 924 q 62 849 81 868 q 14 830 42 830 z "},"Α":{"ha":896,"x_min":15,"x_max":880,"o":"m 880 0 l 754 0 l 651 273 l 239 273 l 142 0 l 15 0 l 388 972 l 506 972 l 880 0 m 614 375 l 461 789 q 446 854 454 810 l 444 854 q 428 789 437 813 l 277 375 l 614 375 z "},"Β":{"ha":796,"x_min":127,"x_max":726,"o":"m 127 0 l 127 972 l 404 972 q 604 911 530 972 q 678 750 678 849 q 633 606 678 667 q 510 519 589 545 l 510 517 q 667 443 608 505 q 726 279 726 380 q 637 77 726 155 q 411 0 547 0 l 127 0 m 241 869 l 241 555 l 358 555 q 505 601 452 555 q 559 728 559 646 q 372 869 559 869 l 241 869 m 241 453 l 241 103 l 396 103 q 552 151 496 103 q 607 281 607 198 q 372 453 607 453 l 241 453 z "},"Ε":{"ha":703,"x_min":127,"x_max":643,"o":"m 643 0 l 127 0 l 127 972 l 621 972 l 621 869 l 241 869 l 241 546 l 593 546 l 593 444 l 241 444 l 241 103 l 643 103 l 643 0 z "},"Ζ":{"ha":792,"x_min":22,"x_max":762,"o":"m 762 945 l 193 103 l 749 103 l 749 0 l 22 0 l 22 32 l 587 869 l 68 869 l 68 972 l 762 972 l 762 945 z "},"Η":{"ha":986,"x_min":127,"x_max":859,"o":"m 859 0 l 745 0 l 745 444 l 241 444 l 241 0 l 127 0 l 127 972 l 241 972 l 241 546 l 745 546 l 745 972 l 859 972 l 859 0 z "},"Ι":{"ha":370,"x_min":127,"x_max":241,"o":"m 241 0 l 127 0 l 127 972 l 241 972 l 241 0 z "},"Κ":{"ha":806,"x_min":127,"x_max":804,"o":"m 804 0 l 646 0 l 270 445 q 244 479 249 470 l 241 479 l 241 0 l 127 0 l 127 972 l 241 972 l 241 515 l 244 515 q 270 549 254 530 l 633 972 l 775 972 l 358 506 l 804 0 z "},"Λ":{"ha":873,"x_min":16,"x_max":857,"o":"m 857 0 l 730 0 l 456 780 q 437 860 445 812 l 434 860 q 414 779 427 818 l 138 0 l 16 0 l 373 972 l 502 972 l 857 0 z "},"Μ":{"ha":1247,"x_min":127,"x_max":1119,"o":"m 1119 0 l 1006 0 l 1006 652 q 1015 842 1006 730 l 1013 842 q 983 747 996 776 l 651 0 l 595 0 l 264 742 q 235 842 250 774 l 232 842 q 237 651 237 783 l 237 0 l 127 0 l 127 972 l 278 972 l 576 294 q 621 178 611 216 l 625 178 q 672 297 654 258 l 977 972 l 1119 972 l 1119 0 z "},"Ν":{"ha":1039,"x_min":127,"x_max":911,"o":"m 911 0 l 772 0 l 271 775 q 240 836 252 804 l 236 836 q 241 703 241 805 l 241 0 l 127 0 l 127 972 l 275 972 l 762 210 q 802 144 793 162 l 804 144 q 798 288 798 186 l 798 972 l 911 972 l 911 0 z "},"Ξ":{"ha":708,"x_min":39,"x_max":669,"o":"m 651 864 l 57 864 l 57 972 l 651 972 l 651 864 m 557 439 l 151 439 l 151 543 l 557 543 l 557 439 m 669 0 l 39 0 l 39 110 l 669 110 l 669 0 z "},"Ο":{"ha":1047,"x_min":64,"x_max":983,"o":"m 519 -16 q 188 120 313 -16 q 64 475 64 256 q 191 849 64 709 q 536 989 317 989 q 860 853 737 989 q 983 498 983 718 q 857 122 983 260 q 519 -16 731 -16 m 528 886 q 279 775 374 886 q 183 485 183 665 q 276 196 183 305 q 519 86 370 86 q 772 191 680 86 q 864 483 864 295 q 774 781 864 675 q 528 886 685 886 z "},"Π":{"ha":990,"x_min":127,"x_max":865,"o":"m 865 0 l 750 0 l 750 867 l 242 867 l 242 0 l 127 0 l 127 972 l 865 972 l 865 0 z "},"Ρ":{"ha":778,"x_min":127,"x_max":722,"o":"m 241 368 l 241 0 l 127 0 l 127 972 l 395 972 q 636 897 551 972 q 722 682 722 821 q 627 456 722 544 q 370 368 532 368 l 241 368 m 241 869 l 241 471 l 361 471 q 541 525 479 471 q 603 677 603 578 q 375 869 603 869 l 241 869 z "},"Σ":{"ha":717,"x_min":31,"x_max":684,"o":"m 684 0 l 31 0 l 31 53 l 347 500 l 60 911 l 60 972 l 642 972 l 642 867 l 226 867 l 483 505 l 198 100 l 684 100 l 684 0 z "},"Τ":{"ha":728,"x_min":28,"x_max":703,"o":"m 703 869 l 422 869 l 422 0 l 308 0 l 308 869 l 28 869 l 28 972 l 703 972 l 703 869 z "},"Υ":{"ha":768,"x_min":12,"x_max":760,"o":"m 760 972 l 439 359 l 439 0 l 325 0 l 325 357 l 12 972 l 142 972 l 359 533 q 383 473 363 525 l 385 473 q 411 533 392 496 l 639 972 l 760 972 z "},"Χ":{"ha":819,"x_min":18,"x_max":799,"o":"m 799 0 l 660 0 l 436 372 q 414 420 426 389 l 411 420 q 388 372 404 405 l 157 0 l 18 0 l 343 489 l 43 972 l 183 972 l 382 631 q 416 563 401 597 l 419 563 q 457 633 441 608 l 664 972 l 795 972 l 489 490 l 799 0 z "},"Ψ":{"ha":1078,"x_min":92,"x_max":986,"o":"m 591 972 l 591 365 l 630 365 q 876 613 876 365 l 876 972 l 986 972 l 986 613 q 889 362 986 459 q 630 264 792 264 l 591 264 l 591 0 l 486 0 l 486 264 l 448 264 q 189 362 285 264 q 92 613 92 459 l 92 972 l 202 972 l 202 613 q 448 365 202 365 l 486 365 l 486 972 l 591 972 z "},"Ω":{"ha":1048,"x_min":68,"x_max":983,"o":"m 983 0 l 631 0 l 631 100 q 865 529 865 273 q 770 792 865 695 q 528 888 676 888 q 281 792 377 888 q 186 530 186 696 q 420 100 186 273 l 420 0 l 68 0 l 68 100 l 304 100 q 68 532 68 259 q 193 867 68 745 q 524 989 319 989 q 858 868 733 989 q 983 533 983 747 q 747 100 983 260 l 983 100 l 983 0 z "},"Ϊ":{"ha":370,"x_min":-10,"x_max":385,"o":"m 241 0 l 127 0 l 127 972 l 241 972 l 241 0 m 319 1062 q 272 1081 292 1062 q 252 1129 252 1100 q 271 1177 252 1158 q 317 1196 290 1196 q 366 1176 346 1196 q 385 1129 385 1157 q 366 1082 385 1101 q 319 1062 347 1062 m 58 1062 q 10 1082 30 1062 q -10 1129 -10 1102 q 9 1177 -10 1158 q 56 1196 28 1196 q 104 1176 84 1196 q 125 1129 125 1157 q 105 1082 125 1101 q 58 1062 85 1062 z "},"Ϋ":{"ha":768,"x_min":12,"x_max":760,"o":"m 760 972 l 439 359 l 439 0 l 325 0 l 325 357 l 12 972 l 142 972 l 359 533 q 383 473 363 525 l 385 473 q 411 533 392 496 l 639 972 l 760 972 m 515 1061 q 468 1080 488 1061 q 448 1128 448 1099 q 467 1176 448 1157 q 513 1195 486 1195 q 562 1176 542 1195 q 581 1128 581 1156 q 562 1081 581 1101 q 515 1061 543 1061 m 254 1061 q 206 1081 226 1061 q 186 1128 186 1101 q 205 1176 186 1157 q 252 1195 224 1195 q 300 1176 280 1195 q 321 1128 321 1156 q 301 1081 321 1101 q 254 1061 281 1061 z "},"ά":{"ha":859,"x_min":68,"x_max":825,"o":"m 825 694 l 688 353 q 793 0 699 309 l 677 0 l 625 212 l 623 212 q 505 35 568 87 q 349 -16 441 -16 q 145 78 223 -16 q 68 327 68 172 q 155 606 68 500 q 389 711 242 711 q 642 494 570 711 l 644 494 l 708 694 l 825 694 m 592 353 q 509 557 557 496 q 389 618 460 618 q 240 539 298 618 q 182 334 182 460 q 233 150 182 219 q 362 81 283 81 q 581 321 493 81 l 592 353 m 540 1042 l 421 796 l 357 796 l 427 1042 l 540 1042 z "},"έ":{"ha":620,"x_min":61,"x_max":567,"o":"m 567 15 q 346 -16 479 -16 q 137 39 214 -16 q 61 189 61 95 q 109 298 61 252 q 233 357 156 345 l 233 361 q 131 416 175 372 q 87 516 87 460 q 159 660 87 608 q 353 711 231 711 q 536 681 450 711 l 536 568 q 346 617 446 617 q 201 518 201 617 q 255 435 201 466 q 395 404 309 404 q 475 407 444 404 l 475 308 q 380 311 426 311 q 174 190 174 311 q 223 107 174 138 q 357 77 272 77 q 567 126 469 77 l 567 15 m 478 1042 l 359 796 l 296 796 l 365 1042 l 478 1042 z "},"ή":{"ha":799,"x_min":88,"x_max":689,"o":"m 689 -274 l 576 -274 l 576 388 q 416 610 576 610 q 278 550 332 610 q 223 398 223 490 l 223 0 l 113 0 l 113 471 q 88 694 113 629 l 202 694 q 221 577 221 644 l 224 577 q 454 711 299 711 q 689 427 689 711 l 689 -274 m 542 1042 l 423 796 l 359 796 l 429 1042 l 542 1042 z "},"ί":{"ha":370,"x_min":113,"x_max":353,"o":"m 353 7 q 271 -8 311 -8 q 113 180 113 -8 l 113 694 l 223 694 l 223 183 q 292 90 223 90 q 353 102 320 90 l 353 7 m 301 1042 l 182 796 l 119 796 l 188 1042 l 301 1042 z "},"ΰ":{"ha":806,"x_min":102,"x_max":720,"o":"m 102 694 l 212 694 l 212 313 q 263 141 212 200 q 410 81 315 81 q 556 141 504 81 q 608 311 608 201 q 509 694 608 513 l 633 694 q 720 315 720 525 q 635 73 720 162 q 410 -16 551 -16 q 183 65 264 -16 q 102 293 102 146 l 102 694 m 497 1052 l 378 806 l 315 806 l 384 1052 l 497 1052 m 548 830 q 502 849 521 830 q 482 897 482 868 q 502 944 482 925 q 547 963 521 963 q 595 944 576 963 q 615 897 615 924 q 595 849 615 868 q 548 830 576 830 m 219 830 q 172 849 192 830 q 153 897 153 868 q 172 944 153 925 q 219 963 192 963 q 267 944 247 963 q 287 897 287 924 q 267 849 287 868 q 219 830 248 830 z "},"β":{"ha":766,"x_min":113,"x_max":709,"o":"m 223 33 l 223 -269 l 113 -269 l 113 755 q 186 962 113 886 q 388 1039 260 1039 q 567 976 500 1039 q 634 808 634 913 q 584 654 634 722 q 454 559 534 585 l 454 555 q 643 463 576 536 q 709 277 709 391 q 627 65 709 146 q 411 -16 546 -16 q 223 33 307 -16 m 338 502 l 338 591 q 469 660 416 603 q 522 794 522 716 q 381 944 522 944 q 265 893 307 944 q 223 745 223 842 l 223 138 q 409 79 317 79 q 546 129 496 79 q 595 270 595 179 q 338 502 595 475 z "},"γ":{"ha":721,"x_min":3,"x_max":677,"o":"m 385 -47 q 382 -327 385 -264 l 263 -327 q 274 9 274 -212 q 166 359 245 155 q 3 694 86 563 l 131 694 q 363 96 300 393 l 366 96 q 521 377 477 260 q 564 606 564 494 q 557 694 564 648 l 673 694 q 677 637 677 659 q 635 386 677 518 q 385 -47 593 253 z "},"ζ":{"ha":625,"x_min":57,"x_max":612,"o":"m 566 -210 l 444 -210 q 510 -104 510 -156 q 468 -36 510 -58 q 332 -3 425 -15 q 57 306 57 31 q 461 935 57 600 l 461 938 l 165 938 l 165 1028 l 575 1028 l 575 937 q 172 308 172 586 q 368 106 172 138 q 560 36 508 83 q 612 -87 612 -11 q 566 -210 612 -155 z "},"η":{"ha":799,"x_min":88,"x_max":689,"o":"m 689 -274 l 576 -274 l 576 388 q 416 610 576 610 q 278 550 332 610 q 223 398 223 490 l 223 0 l 113 0 l 113 471 q 88 694 113 629 l 202 694 q 221 577 221 644 l 224 577 q 454 711 299 711 q 689 427 689 711 l 689 -274 z "},"θ":{"ha":814,"x_min":66,"x_max":749,"o":"m 400 -16 q 154 120 242 -16 q 66 503 66 256 q 158 902 66 763 q 422 1040 250 1040 q 749 520 749 1040 q 657 124 749 264 q 400 -16 566 -16 m 633 567 q 410 945 621 945 q 248 843 309 945 q 180 567 186 740 l 633 567 m 634 477 l 179 477 q 243 181 182 283 q 410 79 303 79 q 572 182 513 79 q 634 477 631 286 z "},"ι":{"ha":370,"x_min":113,"x_max":353,"o":"m 353 7 q 271 -8 311 -8 q 113 180 113 -8 l 113 694 l 223 694 l 223 183 q 292 90 223 90 q 353 102 320 90 l 353 7 z "},"κ":{"ha":728,"x_min":113,"x_max":707,"o":"m 707 0 l 570 0 l 319 339 l 223 236 l 223 0 l 113 0 l 113 694 l 223 694 l 223 357 l 410 568 q 527 681 489 659 q 597 704 566 704 q 669 699 646 704 l 669 601 q 614 606 648 606 q 472 500 570 606 l 394 416 l 707 0 z "},"λ":{"ha":692,"x_min":-1,"x_max":672,"o":"m 672 0 l 552 0 l 363 561 l 121 0 l -1 0 l 313 689 l 267 823 q 161 928 231 928 q 79 915 125 928 l 79 1021 q 167 1029 122 1029 q 290 986 243 1029 q 379 823 337 943 l 672 0 z "},"μ":{"ha":800,"x_min":113,"x_max":689,"o":"m 689 0 l 578 0 l 578 98 l 575 98 q 382 -16 519 -16 q 227 64 275 -16 l 224 64 l 224 -265 l 113 -265 l 113 694 l 224 694 l 224 300 q 389 77 224 77 q 525 138 473 77 q 578 298 578 198 l 578 694 l 689 694 l 689 0 z "},"ν":{"ha":730,"x_min":8,"x_max":655,"o":"m 396 0 l 285 0 l 8 694 l 131 694 l 358 106 q 543 552 543 338 q 519 694 543 635 l 640 694 q 655 568 655 647 q 396 0 655 312 z "},"ξ":{"ha":624,"x_min":58,"x_max":606,"o":"m 559 -214 l 438 -214 q 503 -105 503 -161 q 459 -36 503 -59 q 330 -2 416 -12 q 129 87 199 15 q 58 278 58 160 q 124 452 58 376 q 307 556 191 528 q 189 727 189 608 q 242 856 189 800 q 385 935 296 911 l 385 938 q 155 938 385 936 l 155 1029 l 543 1028 l 543 936 q 370 862 439 918 q 301 734 301 806 q 416 583 301 623 l 518 587 l 518 486 l 442 488 q 252 432 331 488 q 172 286 172 375 q 365 107 172 138 q 552 40 498 87 q 606 -88 606 -7 q 559 -214 606 -159 z "},"ο":{"ha":814,"x_min":65,"x_max":749,"o":"m 403 -16 q 157 81 249 -16 q 65 339 65 178 q 161 612 65 514 q 419 711 256 711 q 662 615 574 711 q 749 350 749 519 q 655 84 749 184 q 403 -16 561 -16 m 411 617 q 241 544 304 617 q 179 343 179 471 q 242 149 179 220 q 411 77 305 77 q 577 147 519 77 q 635 346 635 217 q 577 547 635 476 q 411 617 519 617 z "},"ρ":{"ha":814,"x_min":109,"x_max":749,"o":"m 222 67 l 220 67 l 220 -269 l 109 -269 l 109 357 q 187 617 109 524 q 416 711 265 711 q 658 611 567 711 q 749 359 749 511 q 665 83 749 182 q 431 -16 581 -16 q 222 67 300 -16 m 220 176 q 302 106 246 134 q 418 79 357 79 q 633 353 633 79 q 573 542 633 468 q 418 616 513 616 q 270 549 321 616 q 220 355 220 481 l 220 176 z "},"ς":{"ha":645,"x_min":65,"x_max":614,"o":"m 566 -214 l 444 -214 q 510 -103 510 -163 q 470 -35 510 -56 q 338 -1 431 -14 q 137 92 209 14 q 65 292 65 170 q 166 596 65 481 q 430 711 268 711 q 585 676 516 711 l 585 563 q 420 616 507 616 q 248 527 316 616 q 180 305 180 438 q 378 106 180 138 q 562 38 511 84 q 614 -88 614 -8 q 566 -214 614 -159 z "},"υ":{"ha":806,"x_min":102,"x_max":720,"o":"m 102 694 l 212 694 l 212 313 q 263 141 212 200 q 410 81 315 81 q 556 141 504 81 q 608 311 608 201 q 509 694 608 513 l 633 694 q 720 315 720 525 q 635 73 720 162 q 410 -16 551 -16 q 183 65 264 -16 q 102 293 102 146 l 102 694 z "},"χ":{"ha":747,"x_min":8,"x_max":742,"o":"m 742 -319 q 680 -325 713 -325 q 574 -279 618 -325 q 479 -117 530 -234 l 372 129 l 134 -317 l 8 -317 l 316 242 l 198 509 q 104 609 153 609 q 45 600 72 609 l 45 704 q 117 711 68 711 q 212 680 176 711 q 283 567 248 648 l 378 343 l 563 694 l 688 694 l 434 233 l 594 -122 q 689 -224 640 -224 q 742 -213 714 -224 l 742 -319 z "},"ψ":{"ha":1042,"x_min":103,"x_max":939,"o":"m 939 377 q 842 90 939 195 q 587 -16 745 -16 l 571 -16 l 571 -327 l 471 -327 l 471 -16 l 454 -16 q 199 90 295 -16 q 103 377 103 195 l 103 694 l 216 694 l 216 377 q 283 163 216 244 q 454 82 351 82 l 471 82 l 471 903 l 571 903 l 571 82 l 587 82 q 758 163 689 82 q 826 377 826 243 l 826 694 l 939 694 l 939 377 z "},"ω":{"ha":1133,"x_min":86,"x_max":1047,"o":"m 568 114 l 566 114 q 358 -16 495 -16 q 158 71 229 -16 q 86 309 86 158 q 172 694 86 484 l 296 694 q 199 305 199 477 q 240 140 199 199 q 355 82 281 82 q 511 316 511 82 l 511 509 l 623 509 l 623 316 q 778 82 623 82 q 893 141 852 82 q 935 305 935 200 q 838 694 935 477 l 962 694 q 1047 309 1047 483 q 975 70 1047 156 q 773 -16 902 -16 q 568 114 636 -16 z "},"ϊ":{"ha":370,"x_min":-13,"x_max":382,"o":"m 353 7 q 271 -8 311 -8 q 113 180 113 -8 l 113 694 l 223 694 l 223 183 q 292 90 223 90 q 353 102 320 90 l 353 7 m 316 815 q 269 834 289 815 q 250 882 250 853 q 269 930 250 911 q 315 949 288 949 q 363 929 343 949 q 382 882 382 910 q 363 835 382 854 q 316 815 345 815 m 56 815 q 7 835 27 815 q -13 882 -13 855 q 6 930 -13 911 q 54 949 26 949 q 102 929 81 949 q 122 882 122 910 q 102 835 122 854 q 56 815 83 815 z "},"ϋ":{"ha":806,"x_min":102,"x_max":720,"o":"m 102 694 l 212 694 l 212 313 q 263 141 212 200 q 410 81 315 81 q 556 141 504 81 q 608 311 608 201 q 509 694 608 513 l 633 694 q 720 315 720 525 q 635 73 720 162 q 410 -16 551 -16 q 183 65 264 -16 q 102 293 102 146 l 102 694 m 515 815 q 469 834 488 815 q 449 882 449 853 q 468 930 449 911 q 514 949 487 949 q 562 929 543 949 q 582 882 582 910 q 563 835 582 854 q 515 815 544 815 m 255 815 q 207 835 227 815 q 186 882 186 855 q 206 930 186 911 q 253 949 225 949 q 301 929 281 949 q 321 882 321 910 q 302 835 321 854 q 255 815 282 815 z "},"ό":{"ha":814,"x_min":65,"x_max":749,"o":"m 403 -16 q 157 81 249 -16 q 65 339 65 178 q 161 612 65 514 q 419 711 256 711 q 662 615 574 711 q 749 350 749 519 q 655 84 749 184 q 403 -16 561 -16 m 411 617 q 241 544 304 617 q 179 343 179 471 q 242 149 179 220 q 411 77 305 77 q 577 147 519 77 q 635 346 635 217 q 577 547 635 476 q 411 617 519 617 m 523 1042 l 404 796 l 340 796 l 410 1042 l 523 1042 z "},"ύ":{"ha":806,"x_min":102,"x_max":720,"o":"m 102 694 l 212 694 l 212 313 q 263 141 212 200 q 410 81 315 81 q 556 141 504 81 q 608 311 608 201 q 509 694 608 513 l 633 694 q 720 315 720 525 q 635 73 720 162 q 410 -16 551 -16 q 183 65 264 -16 q 102 293 102 146 l 102 694 m 506 1042 l 387 796 l 323 796 l 393 1042 l 506 1042 z "},"ώ":{"ha":1133,"x_min":86,"x_max":1047,"o":"m 568 114 l 566 114 q 358 -16 495 -16 q 158 71 229 -16 q 86 309 86 158 q 172 694 86 484 l 296 694 q 199 305 199 477 q 240 140 199 199 q 355 82 281 82 q 511 316 511 82 l 511 509 l 623 509 l 623 316 q 778 82 623 82 q 893 141 852 82 q 935 305 935 200 q 838 694 935 477 l 962 694 q 1047 309 1047 483 q 975 70 1047 156 q 773 -16 902 -16 q 568 114 636 -16 m 671 1042 l 552 796 l 488 796 l 557 1042 l 671 1042 z "},"Ё":{"ha":703,"x_min":127,"x_max":643,"o":"m 643 0 l 127 0 l 127 972 l 621 972 l 621 869 l 241 869 l 241 546 l 593 546 l 593 444 l 241 444 l 241 103 l 643 103 l 643 0 m 508 1062 q 461 1081 481 1062 q 441 1129 441 1100 q 460 1177 441 1158 q 507 1196 479 1196 q 555 1176 535 1196 q 574 1129 574 1157 q 555 1082 574 1101 q 508 1062 536 1062 m 248 1062 q 199 1082 219 1062 q 179 1129 179 1102 q 198 1177 179 1158 q 245 1196 218 1196 q 294 1176 273 1196 q 314 1129 314 1157 q 294 1082 314 1101 q 248 1062 275 1062 z "},"Ђ":{"ha":972,"x_min":28,"x_max":888,"o":"m 519 4 l 519 109 q 628 86 564 86 q 733 133 694 86 q 772 261 772 180 q 714 408 772 355 q 554 460 657 460 l 385 460 l 385 0 l 271 0 l 271 869 l 28 869 l 28 972 l 703 972 l 703 869 l 385 869 l 385 560 l 557 560 q 799 482 710 560 q 888 262 888 404 q 821 60 888 132 q 631 -12 753 -12 q 519 4 568 -12 z "},"Ѓ":{"ha":655,"x_min":127,"x_max":632,"o":"m 632 867 l 242 867 l 242 0 l 127 0 l 127 972 l 632 972 l 632 867 m 583 1284 l 406 1062 l 319 1062 l 471 1284 l 583 1284 z "},"Є":{"ha":857,"x_min":64,"x_max":785,"o":"m 785 41 q 518 -16 677 -16 q 188 118 313 -16 q 64 468 64 252 q 196 846 64 703 q 537 989 328 989 q 785 949 682 989 l 785 827 q 536 886 674 886 q 296 792 390 886 q 186 536 202 699 l 616 536 l 616 433 l 184 433 q 288 179 195 271 q 526 86 380 86 q 785 151 678 86 l 785 41 z "},"Ѕ":{"ha":690,"x_min":82,"x_max":624,"o":"m 82 39 l 82 174 q 192 110 125 134 q 317 86 258 86 q 505 232 505 86 q 467 333 505 288 q 300 452 429 378 q 134 580 184 517 q 83 729 83 642 q 168 916 83 843 q 392 989 253 989 q 583 954 523 989 l 583 826 q 387 886 506 886 q 252 845 302 886 q 203 739 203 804 q 232 643 203 686 q 392 528 262 600 q 571 392 518 457 q 624 245 624 327 q 540 55 624 125 q 301 -16 456 -16 q 180 0 247 -16 q 82 39 114 17 z "},"Ї":{"ha":370,"x_min":-10,"x_max":385,"o":"m 241 0 l 127 0 l 127 972 l 241 972 l 241 0 m 319 1062 q 272 1081 292 1062 q 252 1129 252 1100 q 271 1177 252 1158 q 317 1196 290 1196 q 366 1176 346 1196 q 385 1129 385 1157 q 366 1082 385 1101 q 319 1062 347 1062 m 58 1062 q 10 1082 30 1062 q -10 1129 -10 1102 q 9 1177 -10 1158 q 56 1196 28 1196 q 104 1176 84 1196 q 125 1129 125 1157 q 105 1082 125 1101 q 58 1062 85 1062 z "},"Љ":{"ha":1362,"x_min":11,"x_max":1296,"o":"m 692 0 l 692 869 l 432 869 q 278 91 333 197 q 104 -15 223 -15 q 11 1 46 -15 l 11 113 q 93 86 45 86 q 170 139 140 86 q 248 440 200 191 q 336 972 295 689 l 806 972 l 806 560 l 990 560 q 1215 490 1134 560 q 1296 290 1296 420 q 1212 78 1296 156 q 981 0 1127 0 l 692 0 m 806 457 l 806 103 l 966 103 q 1121 151 1067 103 q 1176 283 1176 199 q 966 457 1176 457 l 806 457 z "},"Њ":{"ha":1366,"x_min":127,"x_max":1300,"o":"m 696 0 l 696 456 l 241 456 l 241 0 l 127 0 l 127 972 l 241 972 l 241 559 l 696 559 l 696 972 l 810 972 l 810 560 l 994 560 q 1219 490 1139 560 q 1300 290 1300 420 q 1216 78 1300 156 q 985 0 1131 0 l 696 0 m 810 457 l 810 103 l 970 103 q 1126 151 1071 103 q 1181 283 1181 199 q 970 457 1181 457 l 810 457 z "},"Ћ":{"ha":1004,"x_min":28,"x_max":918,"o":"m 918 0 l 804 0 l 804 264 q 611 464 804 464 l 422 464 l 422 0 l 308 0 l 308 869 l 28 869 l 28 972 l 703 972 l 703 869 l 422 869 l 422 564 l 612 564 q 918 264 918 564 l 918 0 z "},"Ќ":{"ha":806,"x_min":127,"x_max":804,"o":"m 804 0 l 646 0 l 270 445 q 244 479 249 470 l 241 479 l 241 0 l 127 0 l 127 972 l 241 972 l 241 515 l 244 515 q 270 549 254 530 l 633 972 l 775 972 l 358 506 l 804 0 m 625 1284 l 448 1062 l 361 1062 l 513 1284 l 625 1284 z "},"Ў":{"ha":783,"x_min":35,"x_max":791,"o":"m 791 972 l 488 293 q 339 41 401 98 q 191 -16 277 -16 q 71 4 121 -16 l 71 119 q 183 85 128 85 q 272 121 231 85 q 363 277 312 158 l 35 972 l 164 972 l 397 453 l 422 391 l 423 391 q 452 450 433 410 l 668 972 l 791 972 m 659 1233 q 587 1109 652 1157 q 428 1062 523 1062 q 269 1109 332 1062 q 203 1233 206 1157 l 299 1233 q 429 1128 307 1128 q 519 1157 484 1128 q 561 1233 555 1185 l 659 1233 z "},"Џ":{"ha":984,"x_min":127,"x_max":859,"o":"m 859 0 l 540 0 l 540 -220 l 444 -220 l 444 0 l 127 0 l 127 972 l 241 972 l 241 103 l 745 103 l 745 972 l 859 972 l 859 0 z "},"А":{"ha":896,"x_min":15,"x_max":880,"o":"m 880 0 l 754 0 l 651 273 l 239 273 l 142 0 l 15 0 l 388 972 l 506 972 l 880 0 m 614 375 l 461 789 q 446 854 454 810 l 444 854 q 428 789 437 813 l 277 375 l 614 375 z "},"Б":{"ha":794,"x_min":127,"x_max":732,"o":"m 127 0 l 127 972 l 647 972 l 647 869 l 241 869 l 241 560 l 426 560 q 652 490 571 560 q 732 290 732 420 q 648 78 732 156 q 416 0 563 0 l 127 0 m 241 457 l 241 103 l 401 103 q 557 151 503 103 q 612 283 612 198 q 401 457 612 457 l 241 457 z "},"В":{"ha":796,"x_min":127,"x_max":726,"o":"m 127 0 l 127 972 l 404 972 q 604 911 530 972 q 678 750 678 849 q 633 606 678 667 q 510 519 589 545 l 510 517 q 667 443 608 505 q 726 279 726 380 q 637 77 726 155 q 411 0 547 0 l 127 0 m 241 869 l 241 555 l 358 555 q 505 601 452 555 q 559 728 559 646 q 372 869 559 869 l 241 869 m 241 453 l 241 103 l 396 103 q 552 151 496 103 q 607 281 607 198 q 372 453 607 453 l 241 453 z "},"Г":{"ha":655,"x_min":127,"x_max":632,"o":"m 632 867 l 242 867 l 242 0 l 127 0 l 127 972 l 632 972 l 632 867 z "},"Д":{"ha":970,"x_min":16,"x_max":924,"o":"m 924 -220 l 825 -220 l 825 0 l 115 0 l 115 -220 l 16 -220 l 16 103 l 106 103 q 261 512 197 270 q 332 972 324 753 l 793 972 l 793 103 l 924 103 l 924 -220 m 680 103 l 680 869 l 432 869 q 367 487 425 709 q 229 103 309 264 l 680 103 z "},"Е":{"ha":703,"x_min":127,"x_max":643,"o":"m 643 0 l 127 0 l 127 972 l 621 972 l 621 869 l 241 869 l 241 546 l 593 546 l 593 444 l 241 444 l 241 103 l 643 103 l 643 0 z "},"Ж":{"ha":1204,"x_min":-15,"x_max":1217,"o":"m 1217 0 l 1064 0 l 684 445 q 659 479 667 464 l 655 479 l 655 0 l 547 0 l 547 479 l 545 479 q 519 445 534 462 l 139 0 l -15 0 l 431 505 l 15 972 l 155 972 l 519 551 q 545 518 534 534 l 547 518 l 547 972 l 655 972 l 655 518 l 659 518 q 684 551 667 533 l 1048 972 l 1187 972 l 772 505 l 1217 0 z "},"З":{"ha":750,"x_min":65,"x_max":674,"o":"m 65 41 l 65 164 q 323 81 179 81 q 491 132 429 81 q 553 269 553 182 q 300 456 553 456 l 199 456 l 199 550 l 292 550 q 459 597 399 550 q 518 729 518 644 q 469 846 518 802 q 334 890 420 890 q 96 814 212 890 l 96 929 q 343 989 203 989 q 561 923 481 989 q 640 750 640 857 q 456 511 640 561 l 456 509 q 615 433 556 497 q 674 275 674 370 q 579 63 674 142 q 319 -16 484 -16 q 65 41 155 -16 z "},"И":{"ha":1040,"x_min":127,"x_max":911,"o":"m 911 0 l 798 0 l 798 703 q 804 836 798 798 l 800 836 q 769 775 787 803 l 269 0 l 127 0 l 127 972 l 241 972 l 241 288 q 236 144 241 178 l 239 144 q 277 210 254 174 l 765 972 l 911 972 l 911 0 z "},"Й":{"ha":1040,"x_min":127,"x_max":911,"o":"m 911 0 l 798 0 l 798 703 q 804 836 798 798 l 800 836 q 769 775 787 803 l 269 0 l 127 0 l 127 972 l 241 972 l 241 288 q 236 144 241 178 l 239 144 q 277 210 254 174 l 765 972 l 911 972 l 911 0 m 753 1233 q 682 1109 746 1157 q 522 1062 617 1062 q 363 1109 426 1062 q 297 1233 300 1157 l 393 1233 q 524 1128 401 1128 q 614 1157 578 1128 q 655 1233 650 1185 l 753 1233 z "},"К":{"ha":806,"x_min":127,"x_max":804,"o":"m 804 0 l 646 0 l 270 445 q 244 479 249 470 l 241 479 l 241 0 l 127 0 l 127 972 l 241 972 l 241 515 l 244 515 q 270 549 254 530 l 633 972 l 775 972 l 358 506 l 804 0 z "},"Л":{"ha":935,"x_min":11,"x_max":806,"o":"m 806 0 l 692 0 l 692 869 l 432 869 q 358 409 393 602 q 296 143 323 217 q 218 27 269 70 q 98 -15 168 -15 q 11 -1 50 -15 l 11 106 q 87 86 45 86 q 169 140 138 86 q 246 433 200 193 q 336 972 292 672 l 806 972 l 806 0 z "},"М":{"ha":1247,"x_min":127,"x_max":1119,"o":"m 1119 0 l 1006 0 l 1006 652 q 1015 842 1006 730 l 1013 842 q 983 747 996 776 l 651 0 l 595 0 l 264 742 q 235 842 250 774 l 232 842 q 237 651 237 783 l 237 0 l 127 0 l 127 972 l 278 972 l 576 294 q 621 178 611 216 l 625 178 q 672 297 654 258 l 977 972 l 1119 972 l 1119 0 z "},"Н":{"ha":986,"x_min":127,"x_max":859,"o":"m 859 0 l 745 0 l 745 444 l 241 444 l 241 0 l 127 0 l 127 972 l 241 972 l 241 546 l 745 546 l 745 972 l 859 972 l 859 0 z "},"О":{"ha":1047,"x_min":64,"x_max":983,"o":"m 519 -16 q 188 120 313 -16 q 64 475 64 256 q 191 849 64 709 q 536 989 317 989 q 860 853 737 989 q 983 498 983 718 q 857 122 983 260 q 519 -16 731 -16 m 528 886 q 279 775 374 886 q 183 485 183 665 q 276 196 183 305 q 519 86 370 86 q 772 191 680 86 q 864 483 864 295 q 774 781 864 675 q 528 886 685 886 z "},"П":{"ha":990,"x_min":127,"x_max":865,"o":"m 865 0 l 750 0 l 750 867 l 242 867 l 242 0 l 127 0 l 127 972 l 865 972 l 865 0 z "},"Р":{"ha":778,"x_min":127,"x_max":722,"o":"m 241 368 l 241 0 l 127 0 l 127 972 l 395 972 q 636 897 551 972 q 722 682 722 821 q 627 456 722 544 q 370 368 532 368 l 241 368 m 241 869 l 241 471 l 361 471 q 541 525 479 471 q 603 677 603 578 q 375 869 603 869 l 241 869 z "},"С":{"ha":860,"x_min":64,"x_max":789,"o":"m 789 41 q 521 -16 682 -16 q 189 117 313 -16 q 64 468 64 251 q 204 845 64 701 q 560 989 345 989 q 789 949 699 989 l 789 827 q 559 886 685 886 q 287 774 391 886 q 183 475 183 662 q 280 192 183 297 q 536 86 378 86 q 789 151 682 86 l 789 41 z "},"Т":{"ha":728,"x_min":28,"x_max":703,"o":"m 703 869 l 422 869 l 422 0 l 308 0 l 308 869 l 28 869 l 28 972 l 703 972 l 703 869 z "},"У":{"ha":782,"x_min":35,"x_max":791,"o":"m 791 972 l 488 293 q 339 41 401 98 q 191 -16 277 -16 q 71 4 121 -16 l 71 119 q 183 85 128 85 q 272 121 231 85 q 363 277 312 158 l 35 972 l 164 972 l 397 453 l 422 391 l 423 391 q 452 450 433 410 l 668 972 l 791 972 z "},"Ф":{"ha":1009,"x_min":64,"x_max":956,"o":"m 563 127 l 563 0 l 457 0 l 457 127 l 439 127 q 170 238 276 127 q 64 511 64 349 q 170 772 64 666 q 440 878 275 878 l 457 878 l 457 1000 l 563 1000 l 563 878 l 579 878 q 851 773 746 878 q 956 511 956 669 q 849 239 956 351 q 581 127 743 127 l 563 127 m 563 782 l 563 228 l 581 228 q 766 305 696 228 q 836 510 836 382 q 766 707 836 632 q 579 782 696 782 l 563 782 m 457 228 l 457 782 l 440 782 q 254 706 325 782 q 183 510 183 630 q 253 304 183 381 q 439 228 323 228 l 457 228 z "},"Х":{"ha":819,"x_min":18,"x_max":799,"o":"m 799 0 l 660 0 l 436 372 q 414 420 426 389 l 411 420 q 388 372 404 405 l 157 0 l 18 0 l 343 489 l 43 972 l 183 972 l 382 631 q 416 563 401 597 l 419 563 q 457 633 441 608 l 664 972 l 795 972 l 489 490 l 799 0 z "},"Ц":{"ha":1031,"x_min":127,"x_max":989,"o":"m 989 -220 l 890 -220 l 890 0 l 127 0 l 127 972 l 241 972 l 241 103 l 745 103 l 745 972 l 859 972 l 859 103 l 989 103 l 989 -220 z "},"Ч":{"ha":918,"x_min":113,"x_max":782,"o":"m 782 0 l 668 0 l 668 437 q 379 355 513 355 q 182 421 252 355 q 113 607 113 488 l 113 972 l 227 972 l 227 612 q 393 456 227 456 q 668 530 514 456 l 668 972 l 782 972 l 782 0 z "},"Ш":{"ha":1318,"x_min":127,"x_max":1189,"o":"m 1189 0 l 127 0 l 127 972 l 241 972 l 241 103 l 602 103 l 602 972 l 715 972 l 715 103 l 1075 103 l 1075 972 l 1189 972 l 1189 0 z "},"Щ":{"ha":1361,"x_min":127,"x_max":1320,"o":"m 1320 -220 l 1221 -220 l 1221 0 l 127 0 l 127 972 l 241 972 l 241 103 l 602 103 l 602 972 l 715 972 l 715 103 l 1075 103 l 1075 972 l 1189 972 l 1189 103 l 1320 103 l 1320 -220 z "},"Ъ":{"ha":980,"x_min":28,"x_max":913,"o":"m 308 0 l 308 868 l 28 868 l 28 972 l 422 972 l 422 560 l 607 560 q 832 490 751 560 q 913 290 913 420 q 828 78 913 156 q 597 0 743 0 l 308 0 m 422 457 l 422 103 l 582 103 q 738 151 683 103 q 793 283 793 199 q 582 457 793 457 l 422 457 z "},"Ы":{"ha":1088,"x_min":127,"x_max":960,"o":"m 960 0 l 846 0 l 846 972 l 960 972 l 960 0 m 127 0 l 127 972 l 241 972 l 241 560 l 426 560 q 652 490 571 560 q 732 290 732 420 q 648 78 732 156 q 416 0 563 0 l 127 0 m 241 457 l 241 103 l 401 103 q 557 151 503 103 q 612 283 612 198 q 401 457 612 457 l 241 457 z "},"Ь":{"ha":800,"x_min":127,"x_max":732,"o":"m 127 0 l 127 972 l 241 972 l 241 560 l 426 560 q 652 490 571 560 q 732 290 732 420 q 648 78 732 156 q 416 0 563 0 l 127 0 m 241 457 l 241 103 l 401 103 q 557 151 503 103 q 612 283 612 198 q 401 457 612 457 l 241 457 z "},"Э":{"ha":856,"x_min":71,"x_max":792,"o":"m 71 41 l 71 151 q 330 86 177 86 q 567 178 475 86 q 671 433 660 270 l 240 433 l 240 536 l 669 536 q 560 794 652 702 q 321 886 468 886 q 71 827 183 886 l 71 947 q 321 989 175 989 q 661 848 530 989 q 792 472 792 707 q 666 120 792 256 q 335 -16 541 -16 q 71 41 178 -16 z "},"Ю":{"ha":1415,"x_min":127,"x_max":1350,"o":"m 468 454 l 241 454 l 241 0 l 127 0 l 127 972 l 241 972 l 241 557 l 472 557 q 611 874 492 760 q 920 989 730 989 q 1233 855 1116 989 q 1350 498 1350 721 q 1230 121 1350 258 q 903 -16 1109 -16 q 591 113 709 -16 q 468 454 473 241 m 916 886 q 674 780 762 886 q 587 489 587 674 q 670 192 587 297 q 903 86 753 86 q 1144 190 1059 86 q 1230 483 1230 294 q 1148 782 1230 678 q 916 886 1065 886 z "},"Я":{"ha":800,"x_min":20,"x_max":672,"o":"m 672 0 l 559 0 l 559 414 l 432 414 q 358 389 389 414 q 294 293 328 364 l 157 0 l 20 0 l 184 325 q 297 444 233 420 l 297 446 q 142 534 201 467 q 83 699 83 601 q 166 895 83 817 q 391 972 249 972 l 672 972 l 672 0 m 559 517 l 559 869 l 400 869 q 255 824 306 869 q 204 697 204 778 q 259 565 204 614 q 404 517 314 517 l 559 517 z "},"а":{"ha":707,"x_min":61,"x_max":610,"o":"m 610 0 l 498 0 l 498 109 l 496 109 q 282 -16 423 -16 q 120 39 178 -16 q 61 184 61 94 q 290 411 61 379 l 498 440 q 355 617 498 617 q 129 532 230 617 l 129 646 q 365 711 231 711 q 610 452 610 711 l 610 0 m 498 351 l 331 328 q 214 290 254 317 q 175 193 175 262 q 211 110 175 142 q 308 77 248 77 q 445 135 391 77 q 498 282 498 193 l 498 351 z "},"б":{"ha":804,"x_min":81,"x_max":738,"o":"m 650 1036 l 650 932 q 560 901 622 911 q 347 857 408 878 q 247 766 286 836 q 197 562 208 696 l 200 562 q 432 680 281 680 q 654 585 570 680 q 738 336 738 491 q 650 80 738 177 q 414 -16 562 -16 q 167 97 254 -16 q 81 422 81 211 q 112 700 81 586 q 198 872 143 814 q 321 951 254 930 q 553 1002 389 973 q 650 1036 618 1017 m 196 452 l 196 355 q 212 249 197 301 q 257 157 228 197 q 326 97 286 117 q 416 77 366 77 q 567 147 509 77 q 624 325 624 216 q 565 514 624 444 q 407 585 507 585 q 196 452 267 585 z "},"в":{"ha":736,"x_min":113,"x_max":663,"o":"m 113 0 l 113 694 l 415 694 q 577 649 517 694 q 636 525 636 604 q 503 361 636 390 q 663 200 663 340 q 597 58 663 115 q 435 0 532 0 l 113 0 m 224 600 l 224 404 l 391 404 q 525 509 525 404 q 404 600 525 600 l 224 600 m 224 309 l 224 95 l 416 95 q 551 204 551 95 q 400 309 551 309 l 224 309 z "},"г":{"ha":532,"x_min":113,"x_max":498,"o":"m 498 600 l 224 600 l 224 0 l 113 0 l 113 694 l 498 694 l 498 600 z "},"д":{"ha":760,"x_min":12,"x_max":718,"o":"m 718 -183 l 624 -183 l 624 0 l 107 0 l 107 -183 l 12 -183 l 12 95 l 73 95 q 254 694 252 351 l 616 694 l 616 95 l 718 95 l 718 -183 m 505 95 l 505 600 l 350 600 q 191 95 331 319 l 505 95 z "},"е":{"ha":726,"x_min":65,"x_max":671,"o":"m 671 319 l 180 319 q 243 140 183 203 q 407 77 302 77 q 623 155 524 77 l 623 50 q 380 -16 531 -16 q 149 78 233 -16 q 65 345 65 173 q 157 609 65 507 q 385 711 249 711 q 596 623 522 711 q 671 378 671 534 l 671 319 m 557 414 q 510 564 556 510 q 383 617 465 617 q 250 561 304 617 q 182 414 195 505 l 557 414 z "},"ж":{"ha":1036,"x_min":3,"x_max":1035,"o":"m 1035 0 l 884 0 l 574 343 l 571 343 l 571 0 l 465 0 l 465 343 l 463 343 l 151 0 l 3 0 l 347 358 l 24 694 l 165 694 l 463 370 l 465 370 l 465 694 l 571 694 l 571 370 l 574 370 l 871 694 l 1014 694 l 689 358 l 1035 0 z "},"з":{"ha":631,"x_min":60,"x_max":567,"o":"m 60 19 l 60 129 q 273 77 151 77 q 456 194 456 77 q 254 309 456 309 l 186 309 l 186 404 l 251 404 q 428 514 428 404 q 388 589 428 560 q 277 617 347 617 q 73 566 175 617 l 73 669 q 285 711 189 711 q 538 525 538 711 q 396 362 538 396 l 396 359 q 519 308 472 353 q 567 190 567 262 q 490 40 567 96 q 279 -16 414 -16 q 60 19 136 -16 z "},"и":{"ha":807,"x_min":113,"x_max":694,"o":"m 694 0 l 594 0 l 594 554 q 549 472 579 525 l 228 0 l 113 0 l 113 694 l 214 694 l 214 147 q 250 214 222 167 l 579 694 l 694 694 l 694 0 z "},"й":{"ha":807,"x_min":113,"x_max":694,"o":"m 694 0 l 594 0 l 594 554 q 549 472 579 525 l 228 0 l 113 0 l 113 694 l 214 694 l 214 147 q 250 214 222 167 l 579 694 l 694 694 l 694 0 m 639 997 q 568 873 632 921 q 408 826 503 826 q 249 873 312 826 q 183 997 186 921 l 279 997 q 410 892 288 892 q 500 921 464 892 q 541 997 536 949 l 639 997 z "},"к":{"ha":690,"x_min":113,"x_max":689,"o":"m 689 0 l 533 0 l 227 334 l 224 334 l 224 0 l 113 0 l 113 694 l 224 694 l 224 376 l 227 376 l 518 694 l 664 694 l 342 359 l 689 0 z "},"л":{"ha":732,"x_min":11,"x_max":620,"o":"m 620 0 l 509 0 l 509 600 l 347 600 q 252 127 319 263 q 71 -9 184 -9 q 11 0 36 -9 l 11 96 q 62 83 35 83 q 254 694 212 83 l 620 694 l 620 0 z "},"м":{"ha":975,"x_min":113,"x_max":863,"o":"m 863 0 l 753 0 l 753 572 q 707 445 738 529 l 533 0 l 433 0 l 254 445 q 208 572 240 481 l 208 0 l 113 0 l 113 694 l 254 694 l 437 241 q 488 104 457 192 l 537 239 l 715 694 l 863 694 l 863 0 z "},"н":{"ha":802,"x_min":113,"x_max":689,"o":"m 689 0 l 578 0 l 578 315 l 224 315 l 224 0 l 113 0 l 113 694 l 224 694 l 224 410 l 578 410 l 578 694 l 689 694 l 689 0 z "},"о":{"ha":814,"x_min":65,"x_max":749,"o":"m 403 -16 q 157 81 249 -16 q 65 339 65 178 q 161 612 65 514 q 419 711 256 711 q 662 615 574 711 q 749 350 749 519 q 655 84 749 184 q 403 -16 561 -16 m 411 617 q 241 544 304 617 q 179 343 179 471 q 242 149 179 220 q 411 77 305 77 q 577 147 519 77 q 635 346 635 217 q 577 547 635 476 q 411 617 519 617 z "},"п":{"ha":802,"x_min":113,"x_max":689,"o":"m 689 0 l 578 0 l 578 600 l 224 600 l 224 0 l 113 0 l 113 694 l 689 694 l 689 0 z "},"р":{"ha":817,"x_min":113,"x_max":751,"o":"m 227 100 l 224 100 l 224 -319 l 113 -319 l 113 694 l 224 694 l 224 572 l 227 572 q 467 711 309 711 q 676 617 601 711 q 751 368 751 524 q 667 89 751 193 q 435 -16 582 -16 q 227 100 300 -16 m 224 380 l 224 283 q 280 137 224 197 q 422 77 336 77 q 580 155 523 77 q 637 370 637 232 q 584 551 637 486 q 439 617 530 617 q 283 550 342 617 q 224 380 224 482 z "},"с":{"ha":642,"x_min":65,"x_max":587,"o":"m 586 32 q 396 -16 506 -16 q 156 80 248 -16 q 65 331 65 177 q 163 607 65 503 q 426 711 262 711 q 587 677 517 711 l 587 563 q 422 617 510 617 q 247 541 315 617 q 179 340 179 465 q 243 148 179 218 q 415 77 307 77 q 586 138 506 77 l 586 32 z "},"т":{"ha":570,"x_min":20,"x_max":549,"o":"m 549 600 l 340 600 l 340 0 l 229 0 l 229 600 l 20 600 l 20 694 l 549 694 l 549 600 z "},"у":{"ha":672,"x_min":9,"x_max":665,"o":"m 665 694 l 346 -111 q 106 -327 260 -327 q 33 -318 62 -327 l 33 -218 q 99 -231 69 -231 q 225 -130 183 -231 l 281 1 l 9 694 l 133 694 l 321 160 q 335 107 324 150 l 339 107 q 353 159 342 123 l 550 694 l 665 694 z "},"ф":{"ha":953,"x_min":65,"x_max":887,"o":"m 526 -16 l 526 -327 l 426 -327 l 426 -16 l 404 -16 q 159 82 252 -16 q 65 339 65 180 q 160 609 65 508 q 410 711 254 711 l 426 711 l 426 989 l 526 989 l 526 711 l 541 711 q 792 610 698 711 q 887 339 887 509 q 794 82 887 180 q 550 -16 701 -16 l 526 -16 m 526 617 l 526 77 l 541 77 q 710 149 647 77 q 773 343 773 220 q 711 545 773 472 q 545 617 649 617 l 526 617 m 426 77 l 426 617 l 410 617 q 242 544 305 617 q 179 343 179 471 q 242 150 179 222 q 412 77 306 77 l 426 77 z "},"х":{"ha":637,"x_min":18,"x_max":620,"o":"m 620 694 l 387 343 l 616 0 l 486 0 l 350 225 q 319 278 337 246 l 317 278 q 285 225 313 272 l 146 0 l 18 0 l 254 340 l 28 694 l 157 694 l 292 457 q 321 403 307 431 l 323 403 l 497 694 l 620 694 z "},"ц":{"ha":833,"x_min":113,"x_max":792,"o":"m 792 -183 l 696 -183 l 696 0 l 113 0 l 113 694 l 224 694 l 224 95 l 578 95 l 578 694 l 689 694 l 689 95 l 792 95 l 792 -183 z "},"ч":{"ha":785,"x_min":103,"x_max":672,"o":"m 672 0 l 562 0 l 562 279 q 336 213 439 213 q 103 460 103 213 l 103 694 l 214 694 l 214 465 q 346 313 214 313 q 562 371 446 313 l 562 694 l 672 694 l 672 0 z "},"ш":{"ha":1111,"x_min":113,"x_max":998,"o":"m 998 0 l 113 0 l 113 694 l 224 694 l 224 95 l 500 95 l 500 694 l 611 694 l 611 95 l 887 95 l 887 694 l 998 694 l 998 0 z "},"щ":{"ha":1145,"x_min":113,"x_max":1103,"o":"m 1103 -183 l 1006 -183 l 1006 0 l 113 0 l 113 694 l 224 694 l 224 95 l 500 95 l 500 694 l 611 694 l 611 95 l 887 95 l 887 694 l 998 694 l 998 95 l 1103 95 l 1103 -183 z "},"ъ":{"ha":821,"x_min":20,"x_max":762,"o":"m 232 0 l 232 600 l 20 600 l 20 694 l 343 694 l 343 428 l 530 428 q 700 373 637 428 q 762 217 762 317 q 699 58 762 117 q 540 0 636 0 l 232 0 m 343 332 l 343 95 l 510 95 q 648 217 648 95 q 509 332 648 332 l 343 332 z "},"ы":{"ha":985,"x_min":113,"x_max":872,"o":"m 872 0 l 762 0 l 762 694 l 872 694 l 872 0 m 113 0 l 113 694 l 224 694 l 224 428 l 411 428 q 580 372 517 428 q 643 217 643 317 q 580 58 643 117 q 420 0 517 0 l 113 0 m 224 332 l 224 95 l 391 95 q 529 217 529 95 q 389 332 529 332 l 224 332 z "},"ь":{"ha":700,"x_min":113,"x_max":643,"o":"m 113 0 l 113 694 l 224 694 l 224 428 l 411 428 q 580 372 517 428 q 643 217 643 317 q 580 58 643 117 q 420 0 517 0 l 113 0 m 224 332 l 224 95 l 391 95 q 529 217 529 95 q 389 332 529 332 l 224 332 z "},"э":{"ha":642,"x_min":61,"x_max":582,"o":"m 61 31 l 61 136 q 241 77 140 77 q 400 138 340 77 q 467 302 461 199 l 171 302 l 171 397 l 467 397 q 398 559 458 500 q 237 617 338 617 q 69 564 140 617 l 69 674 q 239 711 141 711 q 493 614 404 711 q 582 342 582 517 q 491 81 582 178 q 245 -16 399 -16 q 61 31 139 -16 z "},"ю":{"ha":1129,"x_min":113,"x_max":1062,"o":"m 420 315 l 224 315 l 224 0 l 113 0 l 113 694 l 224 694 l 224 410 l 422 410 q 527 631 439 552 q 750 711 614 711 q 980 617 899 711 q 1062 350 1062 524 q 975 82 1062 181 q 734 -16 887 -16 q 508 71 589 -16 q 420 315 427 158 m 741 617 q 533 346 533 617 q 743 77 533 77 q 949 346 949 77 q 741 617 949 617 z "},"я":{"ha":699,"x_min":42,"x_max":587,"o":"m 587 0 l 476 0 l 476 288 l 383 288 q 261 179 316 288 l 171 0 l 42 0 l 159 214 q 257 313 199 289 q 133 372 176 323 q 90 494 90 421 q 157 641 90 587 q 345 694 224 694 l 587 694 l 587 0 m 476 380 l 476 600 l 345 600 q 204 493 204 600 q 340 380 204 380 l 476 380 z "},"ё":{"ha":726,"x_min":65,"x_max":671,"o":"m 671 319 l 180 319 q 243 140 183 203 q 407 77 302 77 q 623 155 524 77 l 623 50 q 380 -16 531 -16 q 149 78 233 -16 q 65 345 65 173 q 157 609 65 507 q 385 711 249 711 q 596 623 522 711 q 671 378 671 534 l 671 319 m 557 414 q 510 564 556 510 q 383 617 465 617 q 250 561 304 617 q 182 414 195 505 l 557 414 m 500 826 q 453 845 473 826 q 433 893 433 864 q 452 941 433 922 q 498 960 471 960 q 547 940 527 960 q 566 893 566 921 q 547 846 566 865 q 500 826 528 826 m 239 826 q 191 846 211 826 q 171 893 171 866 q 190 941 171 922 q 237 960 210 960 q 286 940 265 960 q 306 893 306 921 q 286 846 306 865 q 239 826 267 826 z "},"ђ":{"ha":802,"x_min":26,"x_max":708,"o":"m 318 -264 l 318 -157 q 403 -182 363 -182 q 549 -80 502 -182 q 595 262 595 21 q 418 598 595 598 q 283 535 338 598 q 228 378 228 471 l 228 0 l 117 0 l 117 815 l 26 815 l 26 906 l 117 906 l 117 1028 l 228 1028 l 228 906 l 454 906 l 454 815 l 228 815 l 228 562 l 231 562 q 445 693 302 693 q 708 264 708 693 q 634 -152 708 -22 q 401 -281 559 -281 q 318 -264 362 -281 z "},"ѓ":{"ha":532,"x_min":113,"x_max":498,"o":"m 498 600 l 224 600 l 224 0 l 113 0 l 113 694 l 498 694 l 498 600 m 456 1048 l 278 826 l 192 826 l 343 1048 l 456 1048 z "},"є":{"ha":642,"x_min":65,"x_max":586,"o":"m 586 31 q 400 -16 508 -16 q 155 80 245 -16 q 65 338 65 176 q 159 612 65 513 q 416 711 252 711 q 579 677 509 711 l 579 567 q 412 617 511 617 q 251 557 313 617 q 180 397 189 498 l 476 397 l 476 302 l 179 302 q 245 139 184 200 q 406 77 305 77 q 586 139 505 77 l 586 31 z "},"ѕ":{"ha":553,"x_min":71,"x_max":497,"o":"m 71 25 l 71 144 q 251 77 152 77 q 383 175 383 77 q 354 242 383 216 q 240 305 325 269 q 106 396 140 349 q 72 510 72 442 q 140 654 72 597 q 317 711 209 711 q 465 680 399 711 l 465 567 q 308 617 397 617 q 219 590 252 617 q 186 519 186 563 q 210 452 186 477 q 318 391 234 426 q 459 300 420 347 q 497 186 497 252 q 429 40 497 97 q 243 -16 360 -16 q 71 25 144 -16 z "},"ї":{"ha":336,"x_min":-31,"x_max":365,"o":"m 224 0 l 113 0 l 113 694 l 224 694 l 224 0 m 298 826 q 252 845 271 826 q 232 893 232 864 q 251 941 232 922 q 297 960 270 960 q 345 940 326 960 q 365 893 365 921 q 346 846 365 865 q 298 826 327 826 m 38 826 q -11 846 9 826 q -31 893 -31 866 q -11 941 -31 922 q 36 960 8 960 q 84 940 64 960 q 104 893 104 921 q 85 846 104 865 q 38 826 65 826 z "},"љ":{"ha":1103,"x_min":11,"x_max":1039,"o":"m 509 0 l 509 600 l 347 600 q 252 127 319 263 q 71 -9 184 -9 q 11 0 36 -9 l 11 96 q 62 83 35 83 q 254 694 212 83 l 620 694 l 620 428 l 807 428 q 976 372 913 428 q 1039 217 1039 317 q 976 59 1039 117 q 817 0 912 0 l 509 0 m 620 332 l 620 95 l 786 95 q 925 217 925 95 q 785 332 925 332 l 620 332 z "},"њ":{"ha":1120,"x_min":113,"x_max":1055,"o":"m 525 0 l 525 323 l 224 323 l 224 0 l 113 0 l 113 694 l 224 694 l 224 419 l 525 419 l 525 694 l 636 694 l 636 419 l 823 419 q 994 366 932 419 q 1055 213 1055 312 q 993 57 1055 113 q 833 0 930 0 l 525 0 m 636 323 l 636 95 l 803 95 q 941 213 941 95 q 802 323 941 323 l 636 323 z "},"ћ":{"ha":788,"x_min":26,"x_max":693,"o":"m 693 0 l 582 0 l 582 382 q 422 600 582 600 q 283 536 338 600 q 228 372 228 473 l 228 0 l 117 0 l 117 815 l 26 815 l 26 906 l 117 906 l 117 1028 l 228 1028 l 228 906 l 454 906 l 454 815 l 228 815 l 228 563 l 231 563 q 458 694 311 694 q 693 411 693 694 l 693 0 z "},"ќ":{"ha":690,"x_min":113,"x_max":689,"o":"m 689 0 l 533 0 l 227 334 l 224 334 l 224 0 l 113 0 l 113 694 l 224 694 l 224 376 l 227 376 l 518 694 l 664 694 l 342 359 l 689 0 m 550 1048 l 372 826 l 286 826 l 437 1048 l 550 1048 z "},"ў":{"ha":673,"x_min":9,"x_max":665,"o":"m 665 694 l 346 -111 q 106 -327 260 -327 q 33 -318 62 -327 l 33 -218 q 99 -231 69 -231 q 225 -130 183 -231 l 281 1 l 9 694 l 133 694 l 321 160 q 335 107 324 150 l 339 107 q 353 159 342 123 l 550 694 l 665 694 m 574 997 q 503 873 567 921 q 343 826 438 826 q 184 873 247 826 q 118 997 121 921 l 214 997 q 345 892 222 892 q 435 921 399 892 q 476 997 471 949 l 574 997 z "},"џ":{"ha":802,"x_min":113,"x_max":689,"o":"m 689 0 l 449 0 l 449 -212 l 353 -212 l 353 0 l 113 0 l 113 694 l 224 694 l 224 95 l 578 95 l 578 694 l 689 694 l 689 0 z "},"Ґ":{"ha":651,"x_min":127,"x_max":632,"o":"m 632 869 l 241 869 l 241 0 l 127 0 l 127 972 l 534 972 l 534 1152 l 632 1152 l 632 869 z "},"ґ":{"ha":543,"x_min":113,"x_max":503,"o":"m 503 600 l 224 600 l 224 0 l 113 0 l 113 694 l 406 694 l 406 878 l 503 878 l 503 600 z "},"―":{"ha":576,"x_min":0,"x_max":576,"o":"m 576 947 l 0 947 l 0 1028 l 576 1028 l 576 947 z "},"№":{"ha":1558,"x_min":127,"x_max":1493,"o":"m 1234 410 q 1049 485 1116 410 q 983 693 983 560 q 1052 910 983 835 q 1247 986 1121 986 q 1430 912 1367 986 q 1493 703 1493 838 q 1424 489 1493 568 q 1234 410 1356 410 m 1242 895 q 1127 843 1168 895 q 1086 696 1086 791 q 1239 502 1086 502 q 1389 697 1389 502 q 1242 895 1389 895 m 869 0 l 728 0 l 271 770 q 240 830 250 808 l 236 830 q 241 699 241 799 l 241 0 l 127 0 l 127 972 l 277 972 l 758 150 l 761 150 q 755 292 755 183 l 755 972 l 869 972 l 869 0 m 1472 216 l 1004 216 l 1004 305 l 1472 305 l 1472 216 z "},"π":{"ha":871,"x_min":11,"x_max":812,"o":"m 812 600 l 661 600 l 661 184 q 732 89 661 89 q 791 103 750 89 l 791 7 q 708 -8 749 -8 q 550 179 550 -8 l 550 600 l 286 600 l 286 189 q 265 0 286 58 l 150 0 q 175 189 175 61 l 175 600 q 11 546 73 597 l 11 648 q 186 694 77 694 l 812 694 l 812 600 z "},"⁴":{"ha":488,"x_min":32,"x_max":463,"o":"m 463 534 l 388 534 l 388 396 l 298 396 l 298 534 l 32 534 l 32 597 l 282 972 l 388 972 l 388 608 l 463 608 l 463 534 m 301 887 l 298 887 q 273 838 290 866 l 125 608 l 298 608 l 298 827 q 301 887 298 849 z "},"⁵":{"ha":509,"x_min":85,"x_max":441,"o":"m 85 411 l 85 510 q 221 463 163 463 q 313 493 279 463 q 347 571 347 524 q 209 674 347 674 l 104 669 l 104 975 l 414 975 l 414 891 l 191 891 l 191 755 q 377 713 314 764 q 441 575 441 662 q 381 436 441 490 q 220 382 322 382 q 85 411 136 382 z "},"⁷":{"ha":509,"x_min":52,"x_max":456,"o":"m 220 396 l 121 396 l 339 899 l 52 899 l 52 979 l 456 979 l 456 943 l 220 396 z "},"⁸":{"ha":509,"x_min":49,"x_max":459,"o":"m 349 700 q 459 547 459 651 q 404 427 459 471 q 247 382 348 382 q 105 426 162 382 q 49 542 49 470 q 159 700 49 646 q 70 836 70 750 q 122 945 70 903 q 262 986 174 986 q 391 947 342 986 q 440 844 440 907 q 349 700 440 753 m 254 741 q 347 836 347 780 q 256 905 347 905 q 190 886 216 905 q 163 837 163 867 q 254 741 163 779 m 250 660 q 142 545 142 623 q 174 487 142 511 q 256 464 206 464 q 335 487 304 464 q 366 543 366 510 q 250 660 366 620 z "},"Ș":{"ha":690,"x_min":82,"x_max":624,"o":"m 82 39 l 82 174 q 192 110 125 134 q 317 86 258 86 q 505 232 505 86 q 467 333 505 288 q 300 452 429 378 q 134 580 184 517 q 83 729 83 642 q 168 916 83 843 q 392 989 253 989 q 583 954 523 989 l 583 826 q 387 886 506 886 q 252 845 302 886 q 203 739 203 804 q 232 643 203 686 q 392 528 262 600 q 571 392 518 457 q 624 245 624 327 q 540 55 624 125 q 301 -16 456 -16 q 180 0 247 -16 q 82 39 114 17 m 428 -81 l 315 -257 l 232 -257 l 311 -81 l 428 -81 z "},"ș":{"ha":553,"x_min":71,"x_max":497,"o":"m 71 25 l 71 144 q 251 77 152 77 q 383 175 383 77 q 354 242 383 216 q 240 305 325 269 q 106 396 140 349 q 72 510 72 442 q 140 654 72 597 q 317 711 209 711 q 465 680 399 711 l 465 567 q 308 617 397 617 q 219 590 252 617 q 186 519 186 563 q 210 452 186 477 q 318 391 234 426 q 459 300 420 347 q 497 186 497 252 q 429 40 497 97 q 243 -16 360 -16 q 71 25 144 -16 m 351 -81 l 238 -257 l 155 -257 l 234 -81 l 351 -81 z "},"¤":{"ha":772,"x_min":68,"x_max":704,"o":"m 704 240 l 642 175 l 549 269 q 387 217 477 217 q 224 269 294 217 l 130 175 l 68 240 l 161 331 q 110 492 110 408 q 161 652 110 579 l 68 745 l 130 810 l 224 717 q 387 769 298 769 q 547 717 474 769 l 642 810 l 704 745 l 611 652 q 664 492 664 576 q 611 331 664 410 l 704 240 m 387 680 q 254 625 308 680 q 200 493 200 570 q 255 361 200 416 q 387 307 309 307 q 518 361 463 307 q 574 493 574 416 q 517 625 574 570 q 387 680 461 680 z "},"Ơ":{"ha":1059,"x_min":64,"x_max":1081,"o":"m 791 913 q 846 907 824 907 q 991 996 991 907 q 977 1084 991 1044 l 1069 1084 q 1081 993 1081 1047 q 1034 874 1081 920 q 903 829 986 829 l 880 829 q 983 498 983 697 q 857 122 983 260 q 519 -16 731 -16 q 188 120 313 -16 q 64 475 64 256 q 191 849 64 709 q 536 989 317 989 q 791 913 682 989 m 528 886 q 279 775 374 886 q 183 485 183 665 q 276 196 183 305 q 519 86 370 86 q 772 191 680 86 q 864 483 864 295 q 774 781 864 675 q 528 886 685 886 z "},"ơ":{"ha":829,"x_min":65,"x_max":809,"o":"m 705 865 l 796 865 q 809 773 809 827 q 661 616 809 643 q 749 350 749 520 q 655 84 749 184 q 403 -16 561 -16 q 157 81 249 -16 q 65 339 65 178 q 161 612 65 514 q 419 711 256 711 q 510 701 452 711 q 625 694 551 694 q 692 719 665 694 q 719 777 719 743 q 705 865 719 826 m 411 617 q 241 544 304 617 q 179 343 179 471 q 242 149 179 220 q 411 77 305 77 q 577 147 519 77 q 635 346 635 217 q 577 547 635 476 q 411 617 519 617 z "},"Ư":{"ha":983,"x_min":115,"x_max":1009,"o":"m 839 393 q 469 -16 839 -16 q 115 378 115 -16 l 115 972 l 229 972 l 229 385 q 481 86 229 86 q 725 375 725 86 l 725 972 l 825 972 q 892 997 865 972 q 919 1054 919 1021 q 905 1143 919 1104 l 997 1143 q 1009 1051 1009 1105 q 839 888 1009 909 l 839 393 z "},"ư":{"ha":817,"x_min":98,"x_max":829,"o":"m 674 0 l 563 0 l 563 110 l 560 110 q 346 -16 491 -16 q 98 279 98 -16 l 98 694 l 208 694 l 208 297 q 376 77 208 77 q 510 137 458 77 q 563 294 563 197 l 563 694 l 646 694 q 712 719 686 694 q 739 777 739 743 q 726 865 739 826 l 817 865 q 829 773 829 827 q 674 614 829 639 l 674 0 z "},"̉":{"ha":422,"x_min":116,"x_max":307,"o":"m 116 1065 q 170 1068 141 1068 q 268 1040 230 1068 q 307 963 307 1011 q 280 893 307 922 q 216 860 254 865 l 216 826 l 142 826 l 142 904 q 218 956 218 904 q 155 998 218 998 q 116 993 143 998 l 116 1065 z "},"̣":{"ha":463,"x_min":164,"x_max":298,"o":"m 231 -213 q 184 -193 203 -213 q 164 -146 164 -174 q 184 -99 164 -118 q 231 -81 205 -81 q 279 -99 259 -81 q 298 -146 298 -118 q 279 -193 298 -174 q 231 -213 259 -213 z "},"̀":{"ha":372,"x_min":69,"x_max":305,"o":"m 305 826 l 220 826 l 69 993 l 183 993 l 305 826 z "},"́":{"ha":372,"x_min":68,"x_max":304,"o":"m 68 826 l 190 993 l 304 993 l 155 826 l 68 826 z "},"Ạ":{"ha":896,"x_min":15,"x_max":880,"o":"m 880 0 l 754 0 l 651 273 l 239 273 l 142 0 l 15 0 l 388 972 l 506 972 l 880 0 m 614 375 l 461 789 q 446 854 454 810 l 444 854 q 428 789 437 813 l 277 375 l 614 375 m 463 -213 q 416 -193 435 -213 q 396 -146 396 -174 q 416 -99 396 -118 q 463 -81 437 -81 q 511 -99 491 -81 q 530 -146 530 -118 q 511 -193 530 -174 q 463 -213 491 -213 z "},"ạ":{"ha":707,"x_min":61,"x_max":610,"o":"m 610 0 l 498 0 l 498 109 l 496 109 q 282 -16 423 -16 q 120 39 178 -16 q 61 184 61 94 q 290 411 61 379 l 498 440 q 355 617 498 617 q 129 532 230 617 l 129 646 q 365 711 231 711 q 610 452 610 711 l 610 0 m 498 351 l 331 328 q 214 290 254 317 q 175 193 175 262 q 211 110 175 142 q 308 77 248 77 q 445 135 391 77 q 498 282 498 193 l 498 351 m 363 -213 q 315 -193 335 -213 q 296 -146 296 -174 q 316 -99 296 -118 q 363 -81 336 -81 q 410 -99 391 -81 q 430 -146 430 -118 q 410 -193 430 -174 q 363 -213 391 -213 z "},"Ả":{"ha":896,"x_min":15,"x_max":880,"o":"m 880 0 l 754 0 l 651 273 l 239 273 l 142 0 l 15 0 l 388 972 l 506 972 l 880 0 m 614 375 l 461 789 q 446 854 454 810 l 444 854 q 428 789 437 813 l 277 375 l 614 375 m 374 1303 q 428 1305 399 1305 q 526 1277 488 1305 q 564 1200 564 1249 q 538 1131 564 1159 q 473 1097 512 1102 l 473 1063 l 400 1063 l 400 1141 q 476 1193 476 1141 q 412 1236 476 1236 q 374 1230 401 1236 l 374 1303 z "},"ả":{"ha":707,"x_min":61,"x_max":610,"o":"m 610 0 l 498 0 l 498 109 l 496 109 q 282 -16 423 -16 q 120 39 178 -16 q 61 184 61 94 q 290 411 61 379 l 498 440 q 355 617 498 617 q 129 532 230 617 l 129 646 q 365 711 231 711 q 610 452 610 711 l 610 0 m 498 351 l 331 328 q 214 290 254 317 q 175 193 175 262 q 211 110 175 142 q 308 77 248 77 q 445 135 391 77 q 498 282 498 193 l 498 351 m 281 1065 q 336 1068 307 1068 q 434 1040 395 1068 q 472 963 472 1011 q 446 893 472 922 q 381 860 420 865 l 381 826 l 308 826 l 308 904 q 384 956 384 904 q 320 998 384 998 q 281 993 309 998 l 281 1065 z "},"Ấ":{"ha":896,"x_min":15,"x_max":880,"o":"m 880 0 l 754 0 l 651 273 l 239 273 l 142 0 l 15 0 l 388 972 l 506 972 l 880 0 m 614 375 l 461 789 q 446 854 454 810 l 444 854 q 428 789 437 813 l 277 375 l 614 375 m 587 1166 l 709 1333 l 823 1333 l 673 1166 l 587 1166 m 632 1063 l 550 1063 l 439 1163 l 326 1063 l 250 1063 l 396 1232 l 486 1232 l 632 1063 z "},"ấ":{"ha":707,"x_min":61,"x_max":750,"o":"m 610 0 l 498 0 l 498 109 l 496 109 q 282 -16 423 -16 q 120 39 178 -16 q 61 184 61 94 q 290 411 61 379 l 498 440 q 355 617 498 617 q 129 532 230 617 l 129 646 q 365 711 231 711 q 610 452 610 711 l 610 0 m 498 351 l 331 328 q 214 290 254 317 q 175 193 175 262 q 211 110 175 142 q 308 77 248 77 q 445 135 391 77 q 498 282 498 193 l 498 351 m 514 929 l 636 1096 l 750 1096 l 600 929 l 514 929 m 559 826 l 477 826 l 366 926 l 253 826 l 176 826 l 323 996 l 412 996 l 559 826 z "},"Ầ":{"ha":896,"x_min":15,"x_max":880,"o":"m 880 0 l 754 0 l 651 273 l 239 273 l 142 0 l 15 0 l 388 972 l 506 972 l 880 0 m 614 375 l 461 789 q 446 854 454 810 l 444 854 q 428 789 437 813 l 277 375 l 614 375 m 294 1166 l 208 1166 l 58 1333 l 172 1333 l 294 1166 m 250 1063 l 395 1232 l 486 1232 l 631 1063 l 555 1063 l 443 1163 l 332 1063 l 250 1063 z "},"ầ":{"ha":707,"x_min":-16,"x_max":610,"o":"m 610 0 l 499 0 l 499 109 l 496 109 q 283 -16 424 -16 q 120 39 179 -16 q 62 184 62 94 q 291 411 62 379 l 499 440 q 356 617 499 617 q 130 532 231 617 l 130 646 q 366 711 232 711 q 610 452 610 711 l 610 0 m 499 351 l 332 328 q 215 290 254 317 q 176 193 176 262 q 212 110 176 142 q 309 77 248 77 q 445 135 391 77 q 499 282 499 193 l 499 351 m 220 929 l 134 929 l -16 1096 l 98 1096 l 220 929 m 176 826 l 321 996 l 412 996 l 557 826 l 481 826 l 369 926 l 258 826 l 176 826 z "},"Ẩ":{"ha":896,"x_min":15,"x_max":880,"o":"m 880 0 l 754 0 l 651 273 l 239 273 l 142 0 l 15 0 l 388 972 l 506 972 l 880 0 m 614 375 l 461 789 q 446 854 454 810 l 444 854 q 428 789 437 813 l 277 375 l 614 375 m 580 1405 q 634 1408 604 1408 q 732 1380 694 1408 q 770 1303 770 1352 q 744 1234 770 1262 q 680 1200 719 1205 l 680 1166 l 606 1166 l 606 1244 q 683 1295 683 1244 q 618 1339 683 1339 q 580 1333 607 1339 l 580 1405 m 633 1063 l 551 1063 l 440 1164 l 328 1063 l 252 1063 l 397 1233 l 488 1233 l 633 1063 z "},"ẩ":{"ha":707,"x_min":61,"x_max":679,"o":"m 610 0 l 498 0 l 498 109 l 496 109 q 282 -16 423 -16 q 120 39 178 -16 q 61 184 61 94 q 290 411 61 379 l 498 440 q 355 617 498 617 q 129 532 230 617 l 129 646 q 365 711 231 711 q 610 452 610 711 l 610 0 m 498 351 l 331 328 q 214 290 254 317 q 175 193 175 262 q 211 110 175 142 q 308 77 248 77 q 445 135 391 77 q 498 282 498 193 l 498 351 m 489 1168 q 543 1171 513 1171 q 641 1142 604 1171 q 679 1065 679 1114 q 653 996 679 1025 q 589 963 628 968 l 589 929 l 515 929 l 515 1007 q 592 1058 592 1007 q 528 1101 592 1101 q 489 1096 516 1101 l 489 1168 m 542 826 l 460 826 l 349 926 l 237 826 l 161 826 l 306 996 l 397 996 l 542 826 z "},"Ẫ":{"ha":896,"x_min":15,"x_max":880,"o":"m 880 0 l 754 0 l 651 273 l 239 273 l 142 0 l 15 0 l 388 972 l 506 972 l 880 0 m 614 375 l 461 789 q 446 854 454 810 l 444 854 q 428 789 437 813 l 277 375 l 614 375 m 660 1432 q 628 1323 660 1363 q 539 1284 597 1284 q 435 1309 494 1284 q 349 1334 376 1334 q 289 1272 289 1334 l 225 1272 q 349 1417 225 1417 q 447 1392 391 1417 q 536 1366 502 1366 q 593 1432 593 1366 l 660 1432 m 633 1061 l 551 1061 l 440 1162 l 328 1061 l 252 1061 l 397 1231 l 488 1231 l 633 1061 z "},"ẫ":{"ha":707,"x_min":61,"x_max":610,"o":"m 610 0 l 498 0 l 498 109 l 496 109 q 282 -16 423 -16 q 120 39 178 -16 q 61 184 61 94 q 290 411 61 379 l 498 440 q 355 617 498 617 q 129 532 230 617 l 129 646 q 365 711 231 711 q 610 452 610 711 l 610 0 m 498 351 l 331 328 q 214 290 254 317 q 175 193 175 262 q 211 110 175 142 q 308 77 248 77 q 445 135 391 77 q 498 282 498 193 l 498 351 m 581 1196 q 550 1088 581 1128 q 460 1048 518 1048 q 357 1074 415 1048 q 270 1099 298 1099 q 210 1036 210 1099 l 146 1036 q 270 1182 146 1182 q 368 1156 313 1182 q 458 1131 423 1131 q 515 1196 515 1131 l 581 1196 m 555 826 l 473 826 l 361 926 l 249 826 l 173 826 l 319 996 l 409 996 l 555 826 z "},"Ậ":{"ha":896,"x_min":15,"x_max":880,"o":"m 880 0 l 754 0 l 651 273 l 239 273 l 142 0 l 15 0 l 388 972 l 506 972 l 880 0 m 614 375 l 461 789 q 446 854 454 810 l 444 854 q 428 789 437 813 l 277 375 l 614 375 m 630 1063 l 547 1063 l 436 1219 l 324 1063 l 248 1063 l 393 1288 l 484 1288 l 630 1063 m 463 -213 q 416 -193 435 -213 q 396 -146 396 -174 q 416 -99 396 -118 q 463 -81 437 -81 q 511 -99 491 -81 q 530 -146 530 -118 q 511 -193 530 -174 q 463 -213 491 -213 z "},"ậ":{"ha":707,"x_min":61,"x_max":610,"o":"m 610 0 l 498 0 l 498 109 l 496 109 q 282 -16 423 -16 q 120 39 178 -16 q 61 184 61 94 q 290 411 61 379 l 498 440 q 355 617 498 617 q 129 532 230 617 l 129 646 q 365 711 231 711 q 610 452 610 711 l 610 0 m 498 351 l 331 328 q 214 290 254 317 q 175 193 175 262 q 211 110 175 142 q 308 77 248 77 q 445 135 391 77 q 498 282 498 193 l 498 351 m 547 826 l 465 826 l 353 982 l 241 826 l 165 826 l 311 1051 l 401 1051 l 547 826 m 363 -213 q 315 -193 335 -213 q 296 -146 296 -174 q 316 -99 296 -118 q 363 -81 336 -81 q 410 -99 391 -81 q 430 -146 430 -118 q 410 -193 430 -174 q 363 -213 391 -213 z "},"Ắ":{"ha":896,"x_min":15,"x_max":880,"o":"m 880 0 l 754 0 l 651 273 l 239 273 l 142 0 l 15 0 l 388 972 l 506 972 l 880 0 m 614 375 l 461 789 q 446 854 454 810 l 444 854 q 428 789 437 813 l 277 375 l 614 375 m 380 1219 l 503 1385 l 616 1385 l 466 1219 l 380 1219 m 631 1232 q 571 1108 625 1156 q 442 1061 518 1061 q 313 1108 363 1061 q 259 1232 262 1155 l 327 1232 q 444 1141 334 1141 q 562 1232 550 1141 l 631 1232 z "},"ắ":{"ha":707,"x_min":61,"x_max":610,"o":"m 610 0 l 498 0 l 498 109 l 496 109 q 282 -16 423 -16 q 120 39 178 -16 q 61 184 61 94 q 290 411 61 379 l 498 440 q 355 617 498 617 q 129 532 230 617 l 129 646 q 365 711 231 711 q 610 452 610 711 l 610 0 m 498 351 l 331 328 q 214 290 254 317 q 175 193 175 262 q 211 110 175 142 q 308 77 248 77 q 445 135 391 77 q 498 282 498 193 l 498 351 m 301 983 l 424 1150 l 537 1150 l 387 983 l 301 983 m 553 997 q 493 873 546 920 q 363 826 439 826 q 234 873 284 826 q 180 997 184 920 l 248 997 q 365 906 256 906 q 484 997 471 906 l 553 997 z "},"Ằ":{"ha":896,"x_min":15,"x_max":880,"o":"m 880 0 l 754 0 l 651 273 l 239 273 l 142 0 l 15 0 l 388 972 l 506 972 l 880 0 m 614 375 l 461 789 q 446 854 454 810 l 444 854 q 428 789 437 813 l 277 375 l 614 375 m 508 1219 l 422 1219 l 272 1386 l 386 1386 l 508 1219 m 257 1233 l 326 1233 q 444 1142 337 1142 q 561 1233 554 1142 l 629 1233 q 575 1109 626 1156 q 446 1062 524 1062 q 317 1109 370 1062 q 257 1233 264 1157 z "},"ằ":{"ha":707,"x_min":61,"x_max":610,"o":"m 610 0 l 498 0 l 498 109 l 496 109 q 282 -16 423 -16 q 120 39 178 -16 q 61 184 61 94 q 290 411 61 379 l 498 440 q 355 617 498 617 q 129 532 230 617 l 129 646 q 365 711 231 711 q 610 452 610 711 l 610 0 m 498 351 l 331 328 q 214 290 254 317 q 175 193 175 262 q 211 110 175 142 q 308 77 248 77 q 445 135 391 77 q 498 282 498 193 l 498 351 m 444 983 l 358 983 l 208 1150 l 322 1150 l 444 983 m 193 997 l 262 997 q 380 906 273 906 q 497 997 490 906 l 565 997 q 511 873 562 920 q 382 826 460 826 q 253 873 306 826 q 193 997 200 921 z "},"Ẳ":{"ha":896,"x_min":15,"x_max":880,"o":"m 880 0 l 754 0 l 651 273 l 239 273 l 142 0 l 15 0 l 388 972 l 506 972 l 880 0 m 614 375 l 461 789 q 446 854 454 810 l 444 854 q 428 789 437 813 l 277 375 l 614 375 m 380 1455 q 434 1457 406 1457 q 533 1429 496 1457 q 571 1352 571 1400 q 544 1282 571 1311 q 480 1249 517 1254 l 480 1216 l 407 1216 l 407 1293 q 483 1345 483 1293 q 419 1388 483 1388 q 380 1383 408 1388 l 380 1455 m 639 1232 q 579 1108 632 1156 q 450 1061 526 1061 q 320 1108 370 1061 q 267 1232 270 1155 l 334 1232 q 451 1141 342 1141 q 570 1232 557 1141 l 639 1232 z "},"ẳ":{"ha":707,"x_min":61,"x_max":610,"o":"m 610 0 l 498 0 l 498 109 l 496 109 q 282 -16 423 -16 q 120 39 178 -16 q 61 184 61 94 q 290 411 61 379 l 498 440 q 355 617 498 617 q 129 532 230 617 l 129 646 q 365 711 231 711 q 610 452 610 711 l 610 0 m 498 351 l 331 328 q 214 290 254 317 q 175 193 175 262 q 211 110 175 142 q 308 77 248 77 q 445 135 391 77 q 498 282 498 193 l 498 351 m 294 1219 q 348 1222 319 1222 q 447 1194 410 1222 q 485 1116 485 1165 q 458 1047 485 1076 q 394 1014 431 1019 l 394 981 l 321 981 l 321 1058 q 397 1109 397 1058 q 333 1153 397 1153 q 294 1147 321 1153 l 294 1219 m 553 997 q 493 873 546 920 q 363 826 439 826 q 234 873 284 826 q 180 997 184 920 l 248 997 q 365 906 256 906 q 484 997 471 906 l 553 997 z "},"Ẵ":{"ha":896,"x_min":15,"x_max":880,"o":"m 880 0 l 754 0 l 651 273 l 239 273 l 142 0 l 15 0 l 388 972 l 506 972 l 880 0 m 614 375 l 461 789 q 446 854 454 810 l 444 854 q 428 789 437 813 l 277 375 l 614 375 m 667 1432 q 635 1323 667 1363 q 546 1284 604 1284 q 442 1309 500 1284 q 355 1334 383 1334 q 296 1272 296 1334 l 232 1272 q 355 1417 232 1417 q 454 1392 398 1417 q 543 1366 509 1366 q 600 1432 600 1366 l 667 1432 m 635 1232 q 575 1108 629 1156 q 447 1061 522 1061 q 317 1108 367 1061 q 263 1232 267 1155 l 332 1232 q 448 1141 338 1141 q 566 1232 554 1141 l 635 1232 z "},"ẵ":{"ha":707,"x_min":61,"x_max":610,"o":"m 610 0 l 498 0 l 498 109 l 496 109 q 282 -16 423 -16 q 120 39 178 -16 q 61 184 61 94 q 290 411 61 379 l 498 440 q 355 617 498 617 q 129 532 230 617 l 129 646 q 365 711 231 711 q 610 452 610 711 l 610 0 m 498 351 l 331 328 q 214 290 254 317 q 175 193 175 262 q 211 110 175 142 q 308 77 248 77 q 445 135 391 77 q 498 282 498 193 l 498 351 m 585 1196 q 554 1088 585 1128 q 465 1048 522 1048 q 361 1074 419 1048 q 274 1099 302 1099 q 214 1036 214 1099 l 151 1036 q 274 1182 151 1182 q 372 1156 317 1182 q 462 1131 427 1131 q 519 1196 519 1131 l 585 1196 m 554 997 q 494 873 547 920 q 366 826 441 826 q 235 873 286 826 q 182 997 185 920 l 250 997 q 367 906 257 906 q 485 997 473 906 l 554 997 z "},"Ặ":{"ha":896,"x_min":15,"x_max":880,"o":"m 880 0 l 754 0 l 651 273 l 239 273 l 142 0 l 15 0 l 388 972 l 506 972 l 880 0 m 614 375 l 461 789 q 446 854 454 810 l 444 854 q 428 789 437 813 l 277 375 l 614 375 m 635 1233 q 575 1109 628 1156 q 446 1062 522 1062 q 316 1109 366 1062 q 262 1233 266 1156 l 330 1233 q 447 1128 338 1128 q 526 1156 493 1128 q 566 1233 559 1185 l 635 1233 m 463 -213 q 416 -193 435 -213 q 396 -146 396 -174 q 416 -99 396 -118 q 463 -81 437 -81 q 511 -99 491 -81 q 530 -146 530 -118 q 511 -193 530 -174 q 463 -213 491 -213 z "},"ặ":{"ha":707,"x_min":61,"x_max":610,"o":"m 610 0 l 498 0 l 498 109 l 496 109 q 282 -16 423 -16 q 120 39 178 -16 q 61 184 61 94 q 290 411 61 379 l 498 440 q 355 617 498 617 q 129 532 230 617 l 129 646 q 365 711 231 711 q 610 452 610 711 l 610 0 m 498 351 l 331 328 q 214 290 254 317 q 175 193 175 262 q 211 110 175 142 q 308 77 248 77 q 445 135 391 77 q 498 282 498 193 l 498 351 m 547 997 q 487 873 540 920 q 357 826 433 826 q 228 873 278 826 q 174 997 178 920 l 242 997 q 359 892 250 892 q 438 920 405 892 q 477 997 471 949 l 547 997 m 363 -213 q 315 -193 335 -213 q 296 -146 296 -174 q 316 -99 296 -118 q 363 -81 336 -81 q 410 -99 391 -81 q 430 -146 430 -118 q 410 -193 430 -174 q 363 -213 391 -213 z "},"Ẹ":{"ha":703,"x_min":127,"x_max":643,"o":"m 643 0 l 127 0 l 127 972 l 621 972 l 621 869 l 241 869 l 241 546 l 593 546 l 593 444 l 241 444 l 241 103 l 643 103 l 643 0 m 396 -213 q 349 -193 368 -213 q 329 -146 329 -174 q 349 -99 329 -118 q 396 -81 370 -81 q 444 -99 424 -81 q 463 -146 463 -118 q 444 -193 463 -174 q 396 -213 424 -213 z "},"ẹ":{"ha":726,"x_min":65,"x_max":671,"o":"m 671 319 l 180 319 q 243 140 183 203 q 407 77 302 77 q 623 155 524 77 l 623 50 q 380 -16 531 -16 q 149 78 233 -16 q 65 345 65 173 q 157 609 65 507 q 385 711 249 711 q 596 623 522 711 q 671 378 671 534 l 671 319 m 557 414 q 510 564 556 510 q 383 617 465 617 q 250 561 304 617 q 182 414 195 505 l 557 414 m 395 -213 q 348 -193 368 -213 q 328 -146 328 -174 q 349 -99 328 -118 q 395 -81 369 -81 q 443 -99 423 -81 q 463 -146 463 -118 q 443 -193 463 -174 q 395 -213 423 -213 z "},"Ẻ":{"ha":703,"x_min":127,"x_max":643,"o":"m 643 0 l 127 0 l 127 972 l 621 972 l 621 869 l 241 869 l 241 546 l 593 546 l 593 444 l 241 444 l 241 103 l 643 103 l 643 0 m 298 1301 q 353 1304 323 1304 q 451 1276 412 1304 q 489 1199 489 1247 q 463 1129 489 1158 q 398 1096 437 1101 l 398 1062 l 325 1062 l 325 1140 q 401 1192 401 1140 q 337 1234 401 1234 q 298 1229 326 1234 l 298 1301 z "}}}
